<svg width="2555" height="2555" viewBox="0 0 2555 2555" fill="none" xmlns="http://www.w3.org/2000/svg">
<path fill-rule="evenodd" clip-rule="evenodd" d="M387.657 490.869C202.43 700.254 90 975.533 90 1277.07C90 1932.67 621.47 2464.14 1277.07 2464.14C1932.67 2464.14 2464.14 1932.67 2464.14 1277.07C2464.14 850.16 2238.78 475.884 1900.54 266.717C1898.33 268.46 1895.54 269.5 1892.5 269.5C1885.32 269.5 1879.5 263.68 1879.5 256.5C1879.5 255.691 1879.57 254.9 1879.72 254.132C1703.07 149.841 1497.06 90 1277.07 90C932.322 90 621.897 236.962 405.028 471.656C407.183 473.976 408.5 477.084 408.5 480.5C408.5 487.68 402.68 493.5 395.5 493.5C392.554 493.5 389.837 492.52 387.657 490.869ZM2466.14 1277.07C2466.14 849.639 2240.61 474.883 1902.06 265.307C1904.2 262.991 1905.5 259.898 1905.5 256.5C1905.5 249.32 1899.68 243.5 1892.5 243.5C1886.85 243.5 1882.05 247.099 1880.25 252.127C1703.42 147.834 1497.23 88 1277.07 88C931.741 88 620.794 235.21 403.559 470.299C401.344 468.546 398.544 467.5 395.5 467.5C388.32 467.5 382.5 473.32 382.5 480.5C382.5 484.014 383.894 487.203 386.16 489.543C200.62 699.281 88 975.024 88 1277.07C88 1933.78 620.365 2466.14 1277.07 2466.14C1933.78 2466.14 2466.14 1933.78 2466.14 1277.07ZM368.236 714.069C556.775 410.361 893.306 208.128 1277.07 208.128C1867.43 208.128 2346.01 686.71 2346.01 1277.07C2346.01 1867.43 1867.43 2346.01 1277.07 2346.01C686.71 2346.01 208.128 1867.43 208.128 1277.07C208.128 1075.07 264.161 886.15 361.532 725.015C362.293 725.328 363.126 725.5 364 725.5C367.59 725.5 370.5 722.59 370.5 719C370.5 717.028 369.622 715.262 368.236 714.069ZM366.537 713.014C555.43 408.738 892.589 206.128 1277.07 206.128C1868.54 206.128 2348.01 685.606 2348.01 1277.07C2348.01 1868.54 1868.54 2348.01 1277.07 2348.01C685.606 2348.01 206.128 1868.54 206.128 1277.07C206.128 1074.69 262.267 885.416 359.821 723.978C358.402 722.786 357.5 720.998 357.5 719C357.5 715.41 360.41 712.5 364 712.5C364.9 712.5 365.757 712.683 366.537 713.014ZM1277.07 327.614C1209.93 327.614 1144.42 334.582 1081.23 347.835C1081.41 348.695 1081.5 349.587 1081.5 350.5C1081.5 357.68 1075.68 363.5 1068.5 363.5C1062.36 363.5 1057.22 359.244 1055.85 353.522C638.178 453.2 327.614 828.867 327.614 1277.07C327.614 1801.44 752.701 2226.53 1277.07 2226.53C1801.44 2226.53 2226.53 1801.44 2226.53 1277.07C2226.53 917.151 2026.26 604.006 1731.08 442.992C1730.17 443.922 1728.9 444.5 1727.5 444.5C1724.74 444.5 1722.5 442.261 1722.5 439.5C1722.5 439.133 1722.54 438.775 1722.61 438.431C1589.75 367.698 1438.09 327.614 1277.07 327.614ZM1723.43 436.598C1590.31 365.757 1438.38 325.614 1277.07 325.614C1209.74 325.614 1144.04 332.608 1080.67 345.909C1078.81 340.995 1074.06 337.5 1068.5 337.5C1061.32 337.5 1055.5 343.32 1055.5 350.5C1055.5 350.85 1055.51 351.197 1055.54 351.54C636.909 451.372 325.614 827.868 325.614 1277.07C325.614 1802.55 751.596 2228.53 1277.07 2228.53C1802.55 2228.53 2228.53 1802.55 2228.53 1277.07C2228.53 916.446 2027.9 602.68 1732.16 441.306C1732.38 440.746 1732.5 440.137 1732.5 439.5C1732.5 436.739 1730.26 434.5 1727.5 434.5C1725.82 434.5 1724.33 435.328 1723.43 436.598ZM445.742 1277.07C445.742 1013.91 568.021 779.306 758.861 626.98C760.05 628.513 761.91 629.5 764 629.5C767.59 629.5 770.5 626.59 770.5 623C770.5 621.468 769.97 620.061 769.084 618.95C909.566 510.356 1085.77 445.742 1277.07 445.742C1509.23 445.742 1719.16 540.905 1869.98 694.351C1869.67 695.002 1869.5 695.731 1869.5 696.5C1869.5 699.261 1871.74 701.5 1874.5 701.5C1875.22 701.5 1875.9 701.348 1876.52 701.075C2006.65 836.469 2091.35 1015.85 2106.1 1214.7C2104.02 1215.31 2102.5 1217.23 2102.5 1219.5C2102.5 1222.01 2104.35 1224.09 2106.76 1224.45C2107.85 1241.85 2108.4 1259.39 2108.4 1277.07C2108.4 1736.2 1736.2 2108.4 1277.07 2108.4C817.941 2108.4 445.742 1736.2 445.742 1277.07ZM1878.16 699.901C2008.49 835.592 2093.31 1015.32 2108.09 1214.53C2110.57 1214.83 2112.5 1216.94 2112.5 1219.5C2112.5 1221.83 2110.91 1223.78 2108.76 1224.34C2109.85 1241.78 2110.4 1259.36 2110.4 1277.07C2110.4 1737.31 1737.31 2110.4 1277.07 2110.4C816.836 2110.4 443.742 1737.31 443.742 1277.07C443.742 1013.15 566.43 777.889 757.883 625.202C757.635 624.515 757.5 623.773 757.5 623C757.5 619.41 760.41 616.5 764 616.5C765.326 616.5 766.559 616.897 767.588 617.579C908.452 508.596 1085.19 443.742 1277.07 443.742C1509.68 443.742 1720.03 539.048 1871.2 692.74C1872.08 691.968 1873.24 691.5 1874.5 691.5C1877.26 691.5 1879.5 693.739 1879.5 696.5C1879.5 697.814 1878.99 699.009 1878.16 699.901ZM666.156 908.847C601.231 1016.33 563.871 1142.34 563.871 1277.07C563.871 1670.96 883.181 1990.27 1277.07 1990.27C1670.96 1990.27 1990.27 1670.96 1990.27 1277.07C1990.27 883.181 1670.96 563.871 1277.07 563.871C1022.54 563.871 799.156 697.203 672.945 897.834C674.498 899.022 675.5 900.894 675.5 903C675.5 906.59 672.59 909.5 669 909.5C667.98 909.5 667.015 909.265 666.156 908.847ZM664.511 907.701C599.362 1015.51 561.871 1141.91 561.871 1277.07C561.871 1672.07 882.077 1992.27 1277.07 1992.27C1672.07 1992.27 1992.27 1672.07 1992.27 1277.07C1992.27 882.077 1672.07 561.871 1277.07 561.871C1021.78 561.871 797.737 695.624 671.185 896.876C670.502 896.633 669.766 896.5 669 896.5C665.41 896.5 662.5 899.41 662.5 903C662.5 904.849 663.272 906.518 664.511 907.701ZM683.357 1277.07C683.357 949.172 949.172 683.357 1277.07 683.357C1604.97 683.357 1870.79 949.172 1870.79 1277.07C1870.79 1604.97 1604.97 1870.79 1277.07 1870.79C949.172 1870.79 683.357 1604.97 683.357 1277.07ZM1277.07 681.357C948.067 681.357 681.357 948.067 681.357 1277.07C681.357 1606.08 948.067 1872.79 1277.07 1872.79C1606.08 1872.79 1872.79 1606.08 1872.79 1277.07C1872.79 948.067 1606.08 681.357 1277.07 681.357ZM1277.07 801.485C1014.41 801.485 801.485 1014.41 801.485 1277.07C801.485 1539.73 1014.41 1752.66 1277.07 1752.66C1539.61 1752.66 1752.46 1539.93 1752.66 1277.43C1745.83 1276.76 1740.5 1271 1740.5 1264C1740.5 1257.25 1745.46 1251.65 1751.94 1250.66C1738.98 1013.99 1552.99 823.407 1318.31 803.248C1317.24 809.634 1311.69 814.5 1305 814.5C1297.78 814.5 1291.88 808.831 1291.52 801.7C1286.72 801.557 1281.9 801.485 1277.07 801.485ZM1753.93 1250.5C1740.9 1012.86 1554.14 821.504 1318.5 801.257C1318.5 801.171 1318.5 801.086 1318.5 801C1318.5 793.544 1312.46 787.5 1305 787.5C1297.98 787.5 1292.22 792.854 1291.56 799.7C1286.75 799.557 1281.92 799.485 1277.07 799.485C1013.31 799.485 799.485 1013.31 799.485 1277.07C799.485 1540.83 1013.31 1754.66 1277.07 1754.66C1540.7 1754.66 1754.43 1541.06 1754.66 1277.48C1761.81 1277.14 1767.5 1271.24 1767.5 1264C1767.5 1256.54 1761.46 1250.5 1754 1250.5L1753.93 1250.5ZM987.005 1068.13C1051.92 978.167 1157.66 919.613 1277.07 919.613C1474.49 919.613 1634.53 1079.65 1634.53 1277.07C1634.53 1474.49 1474.49 1634.53 1277.07 1634.53C1079.65 1634.53 919.613 1474.49 919.613 1277.07C919.613 1205.16 940.848 1138.21 977.39 1082.14C978.718 1083 980.301 1083.5 982 1083.5C986.694 1083.5 990.5 1079.69 990.5 1075C990.5 1072.18 989.123 1069.67 987.005 1068.13ZM985.25 1067.14C1050.52 976.574 1156.91 917.613 1277.07 917.613C1475.59 917.613 1636.53 1078.55 1636.53 1277.07C1636.53 1475.59 1475.59 1636.53 1277.07 1636.53C1078.55 1636.53 917.613 1475.59 917.613 1277.07C917.613 1204.67 939.016 1137.27 975.84 1080.86C974.39 1079.33 973.5 1077.27 973.5 1075C973.5 1070.31 977.306 1066.5 982 1066.5C983.151 1066.5 984.249 1066.73 985.25 1067.14ZM1039.1 1277.07C1039.1 1145.64 1145.64 1039.1 1277.07 1039.1C1289.46 1039.1 1301.63 1040.05 1313.51 1041.87C1313.7 1044.46 1315.86 1046.5 1318.5 1046.5C1320.53 1046.5 1322.29 1045.28 1323.07 1043.54C1432.48 1064.97 1515.04 1161.38 1515.04 1277.07C1515.04 1408.5 1408.5 1515.04 1277.07 1515.04C1145.64 1515.04 1039.1 1408.5 1039.1 1277.07ZM1277.07 1037.1C1289.55 1037.1 1301.8 1038.05 1313.77 1039.89C1314.44 1037.92 1316.3 1036.5 1318.5 1036.5C1321.26 1036.5 1323.5 1038.74 1323.5 1041.5C1323.5 1041.53 1323.5 1041.56 1323.5 1041.59C1433.81 1063.21 1517.04 1160.42 1517.04 1277.07C1517.04 1409.6 1409.6 1517.04 1277.07 1517.04C1144.54 1517.04 1037.1 1409.6 1037.1 1277.07C1037.1 1144.54 1144.54 1037.1 1277.07 1037.1Z" fill="#494949"/>
<path fill-rule="evenodd" clip-rule="evenodd" d="M2166.48 2063.27C2351.71 1853.89 2464.14 1578.61 2464.14 1277.07C2464.14 621.47 1932.67 90.0001 1277.07 90C621.47 90 90.0002 621.47 90.0001 1277.07C90.0001 1703.98 315.359 2078.26 653.603 2287.43C655.815 2285.68 658.607 2284.64 661.642 2284.64C668.822 2284.64 674.642 2290.46 674.642 2297.64C674.642 2298.45 674.568 2299.24 674.427 2300.01C851.072 2404.3 1057.08 2464.14 1277.07 2464.14C1621.82 2464.14 1932.24 2317.18 2149.11 2082.49C2146.96 2080.17 2145.64 2077.06 2145.64 2073.64C2145.64 2066.46 2151.46 2060.64 2158.64 2060.64C2161.59 2060.64 2164.3 2061.62 2166.48 2063.27ZM88.0001 1277.07C88.0001 1704.5 313.528 2079.26 652.08 2288.84C649.946 2291.15 648.642 2294.24 648.642 2297.64C648.642 2304.82 654.462 2310.64 661.642 2310.64C667.288 2310.64 672.093 2307.04 673.888 2302.01C850.725 2406.31 1056.91 2466.14 1277.07 2466.14C1622.4 2466.14 1933.35 2318.93 2150.58 2083.84C2152.8 2085.6 2155.6 2086.64 2158.64 2086.64C2165.82 2086.64 2171.64 2080.82 2171.64 2073.64C2171.64 2070.13 2170.25 2066.94 2167.98 2064.6C2353.52 1854.86 2466.14 1579.12 2466.14 1277.07C2466.14 620.365 1933.78 88.0001 1277.07 88C620.365 88 88.0002 620.365 88.0001 1277.07ZM2185.91 1840.07C1997.37 2143.78 1660.84 2346.01 1277.07 2346.01C686.71 2346.01 208.128 1867.43 208.128 1277.07C208.128 686.71 686.71 208.128 1277.07 208.128C1867.43 208.128 2346.01 686.71 2346.01 1277.07C2346.01 1479.08 2289.98 1667.99 2192.61 1829.13C2191.85 1828.81 2191.02 1828.64 2190.14 1828.64C2186.55 1828.64 2183.64 1831.55 2183.64 1835.14C2183.64 1837.11 2184.52 1838.88 2185.91 1840.07ZM2187.61 1841.13C1998.71 2145.4 1661.55 2348.01 1277.07 2348.01C685.606 2348.01 206.128 1868.54 206.128 1277.07C206.128 685.606 685.606 206.128 1277.07 206.128C1868.54 206.128 2348.01 685.606 2348.01 1277.07C2348.01 1479.45 2291.88 1668.73 2194.32 1830.16C2195.74 1831.36 2196.64 1833.14 2196.64 1835.14C2196.64 1838.73 2193.73 1841.64 2190.14 1841.64C2189.24 1841.64 2188.38 1841.46 2187.61 1841.13ZM1277.07 2226.53C1344.21 2226.53 1409.72 2219.56 1472.92 2206.31C1472.74 2205.45 1472.64 2204.56 1472.64 2203.64C1472.64 2196.46 1478.46 2190.64 1485.64 2190.64C1491.78 2190.64 1496.93 2194.9 1498.29 2200.62C1915.96 2100.94 2226.53 1725.27 2226.53 1277.07C2226.53 752.7 1801.44 327.614 1277.07 327.614C752.701 327.614 327.614 752.7 327.614 1277.07C327.614 1636.99 527.882 1950.14 823.064 2111.15C823.972 2110.22 825.24 2109.64 826.642 2109.64C829.404 2109.64 831.642 2111.88 831.642 2114.64C831.642 2115.01 831.603 2115.37 831.528 2115.71C964.391 2186.44 1116.05 2226.53 1277.07 2226.53ZM830.714 2117.54C963.827 2188.39 1115.76 2228.53 1277.07 2228.53C1344.4 2228.53 1410.1 2221.53 1473.48 2208.23C1475.33 2213.15 1480.08 2216.64 1485.64 2216.64C1492.82 2216.64 1498.64 2210.82 1498.64 2203.64C1498.64 2203.29 1498.63 2202.95 1498.6 2202.6C1917.23 2102.77 2228.53 1726.27 2228.53 1277.07C2228.53 751.596 1802.55 325.614 1277.07 325.614C751.596 325.614 325.614 751.596 325.614 1277.07C325.614 1637.7 526.246 1951.46 821.978 2112.84C821.761 2113.4 821.642 2114.01 821.642 2114.64C821.642 2117.4 823.881 2119.64 826.642 2119.64C828.321 2119.64 829.807 2118.81 830.714 2117.54ZM2108.4 1277.07C2108.4 1540.23 1986.12 1774.84 1795.28 1927.16C1794.09 1925.63 1792.23 1924.64 1790.14 1924.64C1786.55 1924.64 1783.64 1927.55 1783.64 1931.14C1783.64 1932.67 1784.17 1934.08 1785.06 1935.19C1644.58 2043.79 1468.37 2108.4 1277.07 2108.4C1044.91 2108.4 834.983 2013.24 684.158 1859.79C684.468 1859.14 684.642 1858.41 684.642 1857.64C684.642 1854.88 682.404 1852.64 679.642 1852.64C678.924 1852.64 678.24 1852.79 677.623 1853.07C547.494 1717.67 462.796 1538.29 448.047 1339.44C450.124 1338.84 451.642 1336.92 451.642 1334.64C451.642 1332.13 449.792 1330.05 447.381 1329.7C446.294 1312.29 445.742 1294.75 445.742 1277.07C445.742 817.941 817.941 445.742 1277.07 445.742C1736.2 445.742 2108.4 817.941 2108.4 1277.07ZM675.977 1854.24C545.654 1718.55 460.834 1538.83 446.054 1339.61C443.569 1339.32 441.642 1337.2 441.642 1334.64C441.642 1332.32 443.232 1330.36 445.384 1329.8C444.295 1312.36 443.742 1294.78 443.742 1277.07C443.742 816.836 816.836 443.742 1277.07 443.742C1737.31 443.742 2110.4 816.836 2110.4 1277.07C2110.4 1540.99 1987.71 1776.25 1796.26 1928.94C1796.51 1929.63 1796.64 1930.37 1796.64 1931.14C1796.64 1934.73 1793.73 1937.64 1790.14 1937.64C1788.82 1937.64 1787.58 1937.25 1786.55 1936.56C1645.69 2045.55 1468.95 2110.4 1277.07 2110.4C1044.46 2110.4 834.11 2015.09 682.938 1861.4C682.058 1862.17 680.905 1862.64 679.642 1862.64C676.881 1862.64 674.642 1860.4 674.642 1857.64C674.642 1856.33 675.149 1855.13 675.977 1854.24ZM1887.99 1645.3C1952.91 1537.81 1990.27 1411.8 1990.27 1277.07C1990.27 883.181 1670.96 563.871 1277.07 563.871C883.181 563.871 563.871 883.181 563.871 1277.07C563.871 1670.96 883.181 1990.27 1277.07 1990.27C1531.6 1990.27 1754.99 1856.94 1881.2 1656.31C1879.64 1655.12 1878.64 1653.25 1878.64 1651.14C1878.64 1647.55 1881.55 1644.64 1885.14 1644.64C1886.16 1644.64 1887.13 1644.88 1887.99 1645.3ZM1889.63 1646.44C1954.78 1538.63 1992.27 1412.23 1992.27 1277.07C1992.27 882.077 1672.07 561.871 1277.07 561.871C882.077 561.871 561.871 882.077 561.871 1277.07C561.871 1672.07 882.077 1992.27 1277.07 1992.27C1532.36 1992.27 1756.41 1858.52 1882.96 1657.27C1883.64 1657.51 1884.38 1657.64 1885.14 1657.64C1888.73 1657.64 1891.64 1654.73 1891.64 1651.14C1891.64 1649.29 1890.87 1647.62 1889.63 1646.44ZM1870.79 1277.07C1870.79 1604.97 1604.97 1870.79 1277.07 1870.79C949.172 1870.79 683.357 1604.97 683.357 1277.07C683.357 949.171 949.172 683.356 1277.07 683.356C1604.97 683.356 1870.79 949.172 1870.79 1277.07ZM1277.07 1872.79C1606.08 1872.79 1872.79 1606.08 1872.79 1277.07C1872.79 948.067 1606.08 681.356 1277.07 681.356C948.067 681.356 681.357 948.067 681.357 1277.07C681.357 1606.07 948.067 1872.79 1277.07 1872.79ZM1277.07 1752.66C1539.73 1752.66 1752.66 1539.73 1752.66 1277.07C1752.66 1014.41 1539.73 801.485 1277.07 801.485C1014.53 801.485 801.681 1014.22 801.485 1276.71C808.31 1277.38 813.642 1283.14 813.642 1290.14C813.642 1296.9 808.682 1302.49 802.206 1303.49C815.162 1540.15 1001.15 1730.74 1235.83 1750.89C1236.9 1744.51 1242.45 1739.64 1249.14 1739.64C1256.36 1739.64 1262.26 1745.31 1262.62 1752.44C1267.42 1752.59 1272.24 1752.66 1277.07 1752.66ZM800.212 1303.64C813.243 1541.28 1000 1732.64 1235.64 1752.89C1235.64 1752.97 1235.64 1753.06 1235.64 1753.14C1235.64 1760.6 1241.69 1766.64 1249.14 1766.64C1256.16 1766.64 1261.93 1761.29 1262.58 1754.44C1267.39 1754.59 1272.22 1754.66 1277.07 1754.66C1540.83 1754.66 1754.66 1540.83 1754.66 1277.07C1754.66 1013.31 1540.83 799.485 1277.07 799.485C1013.45 799.485 799.708 1013.08 799.485 1276.66C792.334 1277 786.642 1282.91 786.642 1290.14C786.642 1297.6 792.686 1303.64 800.142 1303.64L800.212 1303.64ZM1567.14 1486.01C1502.22 1575.98 1396.48 1634.53 1277.07 1634.53C1079.65 1634.53 919.613 1474.49 919.613 1277.07C919.613 1079.65 1079.65 919.613 1277.07 919.613C1474.49 919.613 1634.53 1079.65 1634.53 1277.07C1634.53 1348.98 1613.29 1415.94 1576.75 1472C1575.42 1471.14 1573.84 1470.64 1572.14 1470.64C1567.45 1470.64 1563.64 1474.45 1563.64 1479.14C1563.64 1481.97 1565.02 1484.47 1567.14 1486.01ZM1568.89 1487C1503.62 1577.57 1397.23 1636.53 1277.07 1636.53C1078.55 1636.53 917.613 1475.59 917.613 1277.07C917.613 1078.55 1078.55 917.613 1277.07 917.613C1475.59 917.613 1636.53 1078.55 1636.53 1277.07C1636.53 1349.47 1615.13 1416.87 1578.3 1473.28C1579.75 1474.81 1580.64 1476.87 1580.64 1479.14C1580.64 1483.84 1576.84 1487.64 1572.14 1487.64C1570.99 1487.64 1569.89 1487.41 1568.89 1487ZM1515.04 1277.07C1515.04 1408.5 1408.5 1515.04 1277.07 1515.04C1264.68 1515.04 1252.51 1514.1 1240.63 1512.27C1240.44 1509.68 1238.28 1507.64 1235.64 1507.64C1233.61 1507.64 1231.86 1508.86 1231.08 1510.6C1121.66 1489.17 1039.1 1392.76 1039.1 1277.07C1039.1 1145.64 1145.64 1039.1 1277.07 1039.1C1408.5 1039.1 1515.04 1145.64 1515.04 1277.07ZM1277.07 1517.04C1264.59 1517.04 1252.34 1516.09 1240.38 1514.26C1239.71 1516.23 1237.84 1517.64 1235.64 1517.64C1232.88 1517.64 1230.64 1515.4 1230.64 1512.64C1230.64 1512.61 1230.64 1512.58 1230.64 1512.56C1120.33 1490.93 1037.1 1393.72 1037.1 1277.07C1037.1 1144.54 1144.54 1037.1 1277.07 1037.1C1409.6 1037.1 1517.04 1144.54 1517.04 1277.07C1517.04 1409.6 1409.6 1517.04 1277.07 1517.04Z" fill="#494949"/>
</svg>
