<svg xmlns="http://www.w3.org/2000/svg" viewBox="0 0 3493.73 2154.64"><defs><style>.cls-1,.cls-6{fill:#f6e6cd;}.cls-10,.cls-2{fill:#f66741;}.cls-2,.cls-3,.cls-5,.cls-6,.cls-7,.cls-8,.cls-9{fill-rule:evenodd;}.cls-3{fill:#7a86f2;}.cls-4,.cls-8{fill:#12130f;}.cls-11,.cls-5{fill:#fff;}.cls-7{fill:#f7961e;}.cls-9{fill:#ffa613;}</style></defs><g id="Layer_2" data-name="Layer 2"><g id="Layer"><g id="Layer1"><path class="cls-1" d="M750.48,2125.43a2.66,2.66,0,0,1-.83-.13c-67.43-20.05-130.36-45.87-187-76.75-57.28-31.21-108.75-67.88-153-109-92-85.56-152.59-189.27-180.09-308.24-28-121.33-20-251.33,23.76-386.4,21-64.86,50.44-130.6,87.37-195.4,36.57-64.15,80.85-127.94,131.6-189.6,103-125.07,230.08-239.49,377.8-340.06C1003,415.76,1171.4,331.12,1350.66,268.3c114.16-40,229.78-70,343.64-89,110.52-18.48,219.56-26.73,324.12-24.53,205.8,4.33,392.27,49.39,539.26,130.31,175.19,96.45,289.2,240.1,329.72,415.4,28,121.33,20,251.33-23.76,386.4-21,64.86-50.44,130.6-87.37,195.4-36.57,64.15-80.85,127.94-131.6,189.6-103,125.08-230.07,239.49-377.79,340.06-152.92,104.1-321.34,188.74-500.6,251.57a2.93,2.93,0,1,1-1.94-5.53c353.71-124,664.75-333.44,875.81-589.83,210.8-256.07,296.58-528.24,241.54-766.35-40.13-173.64-153.15-316-326.84-411.59C2250.64,122.73,1801.2,116.6,1352.6,273.83c-353.71,124-664.74,333.43-875.8,589.82C266,1119.72,180.21,1391.89,235.25,1630c53.81,232.81,237.08,406.72,516.07,489.69a2.93,2.93,0,0,1-.84,5.74Z"/><path class="cls-1" d="M1073.51,1983.39c-75.88,0-149-4.9-218.78-14.72-72.94-10.26-141.58-26-204-46.63-63.08-20.9-120.39-47.08-170.32-77.83-104.06-64.06-175.83-146.82-213.34-246h0c-37.51-99.16-38.47-208.71-2.86-325.6,17.09-56.1,42.72-113.65,76.18-171.06,33.12-56.83,74.19-114,122.09-170,97.14-113.5,219.87-220.19,364.8-317.09,150-100.3,317.33-185.68,497.34-253.77s362-114.82,540.8-138.9c172.78-23.27,335.4-24.51,483.34-3.71,72.94,10.26,141.58,25.95,204,46.63,63.08,20.9,120.38,47.08,170.31,77.83,104.06,64.06,175.84,146.82,213.34,246s38.47,208.71,2.86,325.61c-17.09,56.09-42.72,113.64-76.17,171.06-33.12,56.82-74.2,114-122.09,170-97.14,113.51-219.88,220.19-364.8,317.1-150,100.3-317.33,185.68-497.35,253.77s-362,114.82-540.8,138.89C1246.83,1977.25,1158.42,1983.39,1073.51,1983.39Zm-801-387.23c73.35,193.92,280.4,324.15,583,366.71,303.24,42.64,665.92-7.89,1021.25-142.28s660.66-336.55,859.77-569.2c198.69-232.17,267.72-466.83,194.37-660.75s-280.4-324.16-583-366.72C2044.7,181.28,1682,231.81,1326.69,366.21S666,702.75,466.92,935.4C268.22,1167.57,199.19,1402.23,272.54,1596.16Z"/><path class="cls-2" d="M2530.37,837.39a81.77,81.77,0,0,1,163.53,0c-12.29-.42-29.2-.71-51.69-3.26-12.07-1.37-17.06,4.46-25.37,12.91-6.8,6.92-4.7,55.92-4.7,72.12A81.77,81.77,0,0,1,2530.37,837.39Z"/><path class="cls-3" d="M2785.29,1338.59v33.63c14.71,24.77,43.25,43.49,77.85,47.69a116.85,116.85,0,0,0,26.42.15v-81.47Z"/><path class="cls-3" d="M2697.4,838.47c-10.67,100.06,46.85,224,157,316.27,61.69,51.69,130.31,85.35,195.7,100.08v-358c0-17.1-13.83-32.07-30.88-33.39Z"/><path class="cls-4" d="M3019.1,1341.52h-376a33.94,33.94,0,0,1-33.9-33.9V862.79a31.13,31.13,0,0,1,34-31.49l376.19,29.24c18.52,1.44,33.58,17.72,33.58,36.29v410.79A33.94,33.94,0,0,1,3019.1,1341.52ZM2640.58,837.06a25.29,25.29,0,0,0-17.4,6.69,25.56,25.56,0,0,0-8.11,19v444.83a28.07,28.07,0,0,0,28,28h376a28.07,28.07,0,0,0,28-28V896.83c0-15.58-12.64-29.24-28.17-30.45l-376.19-29.24C2642,837.09,2641.31,837.06,2640.58,837.06Z"/><path class="cls-5" d="M3033.07,915v371.48a28,28,0,0,1-28,28h-340a28,28,0,0,1-28-28V884.19A25.51,25.51,0,0,1,2665,858.35l340.17,26.44A30.76,30.76,0,0,1,3033.07,915Z"/><path class="cls-4" d="M3005.08,1317.38h-340a31,31,0,0,1-30.93-30.93V884.19a28.44,28.44,0,0,1,31.08-28.76l340.18,26.44C3022.26,883.19,3036,898,3036,915v371.48A31,31,0,0,1,3005.08,1317.38ZM2662.78,861.2a22.52,22.52,0,0,0-22.8,23v402.26a25.1,25.1,0,0,0,25.07,25.07h340a25.09,25.09,0,0,0,25.06-25.07V915a27.82,27.82,0,0,0-25.22-27.26l-340.17-26.43C2664.09,861.22,2663.43,861.2,2662.78,861.2Z"/><path class="cls-6" d="M2959.28,1090.54s7.37,24.51,26.4,65.18,70.93,92.49,101,87.91,62-40.13,74.07-27.08,118.62,243.25,196.16,250.09,152.61-63.83,134-116.85-78.48-110.81-120.38-152c-62.23-61.2-174.68-83-181.2-101.36s3.39-74.15,11.31-103.84,27.05-76.53,13.44-78.29-19.58,11.47-19.58,11.47,10.14-35.83,10.14-56c0-30.4-2.19-41.28-18-29.21s-31.89,61.52-30.59,74.17,3.94,46.24.75,61.73-10.73,54.76-10.73,54.76-4.41-43.63-6.55-82.18,14.84-107.39,2.07-109.28-37.63,36.23-41.06,52.43,4.57,59.79,5.28,70.67-5.28,33.65-5.28,33.65-23.2-59.54-36.19-54.8-41.63,58.71-53,77.41-30.12,49.09-19.83,49c5.13-.07,20.72-7,34.07-15.1s21-23.82,24.58-19.68c7.1,8.28,33.84,68.31,33.84,76.59s-12.86,54.05-20.07,50.86-29.22-36.52-37.75-45.27S2974,1069.49,2959.28,1090.54Z"/><path class="cls-4" d="M3377.44,1474.62a84.41,84.41,0,0,1-21.12-2.72c-66-17.06-117-109.61-150.7-170.86-4.58-8.31-8.9-16.15-12.81-23-19.74-34.46-33.52-50.53-46.09-53.72-11.08-2.81-22.44,4.18-38.15,13.87l-3.33,2c-38.08,23.38-87.56-32.25-89.65-34.63a2.93,2.93,0,0,1,4.41-3.87c.48.55,48.29,54.31,82.17,33.51l3.33-2c16.93-10.45,29.17-18,42.66-14.56,14.45,3.67,28.85,20,49.73,56.49,3.94,6.88,8.27,14.75,12.86,23.07,33.24,60.37,83.47,151.59,147,168,22.47,5.8,45.26,1.57,67.73-12.57a2.93,2.93,0,0,1,3.12,5C3411.71,1469.27,3394.56,1474.62,3377.44,1474.62Z"/><path class="cls-4" d="M3087.14,1099.36a3,3,0,0,1-2.37-1.2c-.7-1-17.43-24-24.95-39.28a182.71,182.71,0,0,1-10.85-26.7,2.93,2.93,0,1,1,5.62-1.64,181.25,181.25,0,0,0,10.49,25.76c7.29,14.85,24.26,38.17,24.43,38.41a2.92,2.92,0,0,1-2.37,4.65Z"/><path class="cls-4" d="M3174.87,1093.55h-.26a2.94,2.94,0,0,1-2.66-3.18c.4-4.57,10-112.27,14.89-139.46.66-3.65,1.51-8.12,2.46-13.15,5.42-28.61,16.7-88.14,10.74-97.77-1.14-1.85-2.18-2.07-3-2.05-6,.15-17.62,14-29,34.54-11.65,21.09-9.29,47.54-9.26,47.81a2.93,2.93,0,1,1-5.83.55c-.11-1.15-2.56-28.53,10-51.2,7.69-13.9,22.31-37.27,33.93-37.55,2.29-.07,5.58.73,8.11,4.81,6.6,10.68-1.31,56.22-10,102-.95,5-1.79,9.47-2.45,13.11-4.87,26.93-14.73,137.81-14.83,138.93A2.92,2.92,0,0,1,3174.87,1093.55Z"/><path class="cls-4" d="M3479.46,1329.7a2.92,2.92,0,0,1-2.69-1.78c-.2-.46-20.63-47-95.7-116.39-64.1-59.29-128.25-82.79-162.71-95.41-11.12-4.07-19.14-7-24-9.87-16.62-9.77-6.55-57.09.8-91.63,2.28-10.76,4.26-20,4.76-25.32.76-8.13,4.72-19.9,8.9-32.36,5.24-15.6,11.77-35,8.59-40.59a2.05,2.05,0,0,0-1.5-1.08c-12.37-2.62-18.66,16.34-18.72,16.53a2.93,2.93,0,0,1-5.58-1.79c.32-1,8-24.18,25.51-20.47a7.89,7.89,0,0,1,5.37,3.9c4.49,7.85-1.63,26.07-8.11,45.36-3.9,11.6-7.93,23.59-8.63,31.05-.53,5.61-2.54,15-4.86,26-6.19,29.07-16.54,77.73-3.56,85.36,4.41,2.59,12.64,5.6,23,9.42,34.85,12.76,99.72,36.52,164.68,96.6,76.14,70.41,96.29,116.47,97.11,118.4a2.93,2.93,0,0,1-1.55,3.84A3,3,0,0,1,3479.46,1329.7Z"/><path class="cls-7" d="M3178.64,1046.59a98,98,0,1,0,97.94,98A98,98,0,0,0,3178.64,1046.59Zm0,32.78a65.18,65.18,0,1,1-65.17,65.2A65.17,65.17,0,0,1,3178.64,1079.37Z"/><path class="cls-8" d="M2835.07,941.27a47.79,47.79,0,0,0-20.35,91.07l-47.07,171,126.92,1.12-36.09-173.78a47.72,47.72,0,0,0-23.41-89.4Z"/><path class="cls-4" d="M3180,1212.29a74.71,74.71,0,0,1-25.54-4.65c-24.08-8.71-34.8-26.18-39.56-39.3a74.25,74.25,0,0,1-4.57-26.59,2.93,2.93,0,0,1,5.85.28h0a69.84,69.84,0,0,0,4.3,24.51c6.32,17.27,18.43,29.24,36,35.59,42.91,15.53,71.29-15.42,73.57-20.15a2.93,2.93,0,0,1,5.28,2.54c-1.82,3.77-10.8,13.61-24.26,20.36A69.27,69.27,0,0,1,3180,1212.29Z"/><path class="cls-7" d="M2838.5,996.46,3257,1139.81l-23.73,58-398.42-162.3Z"/><path class="cls-7" d="M2838.5,996.46l60.87,21.31v137.15L2839,1114.47Z"/><path class="cls-4" d="M2762.43,1152.82a2.92,2.92,0,0,1-2.8-3.79l24.09-78.28a2.93,2.93,0,1,1,5.6,1.73l-24.09,78.27A2.94,2.94,0,0,1,2762.43,1152.82Z"/><path class="cls-4" d="M2789.66,1064.32a2.8,2.8,0,0,1-.86-.13,2.92,2.92,0,0,1-1.94-3.66l6.3-20.45a2.92,2.92,0,1,1,5.59,1.72l-6.29,20.45A2.94,2.94,0,0,1,2789.66,1064.32Z"/><path class="cls-4" d="M2796.55,1035.89a2.87,2.87,0,0,1-1.77-.6,62.06,62.06,0,0,1-19.91-25.38,2.93,2.93,0,0,1,5.41-2.25,56.27,56.27,0,0,0,18,23,2.93,2.93,0,0,1-1.78,5.26Z"/><path class="cls-4" d="M2783.38,951.08a2.93,2.93,0,0,1-2.55-4.37c9.82-17.38,28.51-28.88,50-30.75a2.93,2.93,0,1,1,.51,5.83c-19.57,1.71-36.55,12.1-45.42,27.8A2.94,2.94,0,0,1,2783.38,951.08Z"/><path class="cls-4" d="M2899.37,1226.25h0l-86.22-.69a2.93,2.93,0,0,1,0-5.86h0l86.22.69a2.93,2.93,0,0,1,0,5.86Z"/><path class="cls-6" d="M2961.57,1105.17s-6.17-21.38,7.47-21.35,37.31,8.48,45.51,18.08,11.57,14.61,10.59,16.72S2961.57,1105.17,2961.57,1105.17Z"/><path class="cls-4" d="M2740.24,1225a2.92,2.92,0,0,1-2.8-3.79l11.54-37.5a2.93,2.93,0,1,1,5.59,1.73L2743,1222.91A2.94,2.94,0,0,1,2740.24,1225Z"/><path class="cls-4" d="M3064.06,1163.2c-11.34,0-23.87-18.94-36-37.26-5.71-8.63-11.1-16.78-15.4-21.31-12.46-13.1-35.93-19-45.68-16.63a4.6,4.6,0,0,0-3.12,2.32c-2.18,3.92-.52,11.35.31,13.88a2.93,2.93,0,0,1-5.57,1.83c-.38-1.18-3.66-11.7.13-18.54a10.45,10.45,0,0,1,6.86-5.17c10.94-2.7,37,3.22,51.32,18.28,4.65,4.89,10.18,13.25,16,22.11,9.68,14.62,22.91,34.63,31.08,34.63h.19a2.93,2.93,0,0,1,.07,5.86Z"/><path class="cls-7" d="M2829.7,1017.8c0-11.8,3.83-21.36,8.55-21.36s8.56,9.56,8.56,21.36-3.83,21.37-8.56,21.37S2829.7,1029.6,2829.7,1017.8Z"/><path class="cls-4" d="M3308.24,1230.61a2.86,2.86,0,0,1-1.33-.32,2.93,2.93,0,0,1-1.28-3.94c.78-1.53,19.62-37.49,64.59-41.38a2.93,2.93,0,1,1,.5,5.83c-41.65,3.61-59.7,37.87-59.87,38.22A2.94,2.94,0,0,1,3308.24,1230.61Z"/><path class="cls-4" d="M3320.83,1246.41a2.86,2.86,0,0,1-1.33-.32,2.94,2.94,0,0,1-1.28-3.94c.78-1.53,19.62-37.49,64.59-41.38a2.93,2.93,0,0,1,.51,5.84c-41.66,3.6-59.7,37.86-59.88,38.21A2.94,2.94,0,0,1,3320.83,1246.41Z"/><path class="cls-4" d="M3339.35,1266.31a2.89,2.89,0,0,1-1.33-.32,2.92,2.92,0,0,1-1.27-3.94c.78-1.53,19.61-37.49,64.58-41.38a2.93,2.93,0,1,1,.51,5.83c-41.65,3.61-59.7,37.87-59.88,38.21A2.92,2.92,0,0,1,3339.35,1266.31Z"/><path class="cls-4" d="M3245.7,1139.52a2.93,2.93,0,0,1-1-.16l-112.85-39a2.93,2.93,0,0,1,1.91-5.54l112.86,39a2.93,2.93,0,0,1-1,5.7Z"/><path class="cls-6" d="M3018.16,1006.75l-28,45s13.28,16.72,32.06,1.81S3018.16,1006.75,3018.16,1006.75Z"/><path class="cls-4" d="M2927.1,1076.54a3.08,3.08,0,0,1-1.11-.21l-70.58-28.77a2.93,2.93,0,0,1,2.21-5.42l70.58,28.76a2.93,2.93,0,0,1-1.1,5.64Z"/><path class="cls-4" d="M3008.26,1062.54c-11.85,0-20.93-8.4-21.43-8.87a2.93,2.93,0,0,1,4-4.27h0c.53.5,13.29,12.2,26.77,4.81a108.67,108.67,0,0,0,34.2-28.93,2.93,2.93,0,0,1,4.64,3.57,114.49,114.49,0,0,1-36,30.5A25.06,25.06,0,0,1,3008.26,1062.54Z"/><path class="cls-4" d="M3147.12,1045.67a2.93,2.93,0,0,1-2.91-2.64c-.35-3.52-8.4-86.27-7.67-100.87.17-3.37.92-10.2,1.86-18.84,1.54-14.2,3.66-33.64,4.58-50.11,1.43-25.79-.93-30.2-1.56-30.9a4.11,4.11,0,0,0-2.5.52c-10,4.58-29.46,32.09-34.1,48.25-5.14,17.8,4.91,45.57,5,45.85a2.93,2.93,0,1,1-5.5,2c-.44-1.21-10.81-29.88-5.14-49.5,4.77-16.59,24.86-46.26,37.29-52,2.84-1.3,5.36-1.46,7.5-.48,7,3.23,7.05,24.36.24,86.94-.93,8.54-1.66,15.3-1.83,18.49-.7,14.18,7.57,99.15,7.65,100a2.93,2.93,0,0,1-2.63,3.2Zm-5.75-203.42Z"/><path class="cls-4" d="M2999.69,1036.53a2.93,2.93,0,0,1-2.55-4.36c.12-.22,12.47-22.17,26.72-44.37,29.37-45.73,38.12-48,41-48.8a6.51,6.51,0,0,1,5.18.59c8.35,5,19.52,28.9,33.25,59.57,5.87,13.11,11.41,25.49,14.24,29.34a2.93,2.93,0,0,1-4.72,3.47c-3.2-4.36-8.35-15.86-14.87-30.42-9.91-22.13-23.49-52.45-30.93-56.95a1.36,1.36,0,0,0-.65.06c-11.4,3-45.38,57-64.12,90.38A2.92,2.92,0,0,1,2999.69,1036.53Z"/><path class="cls-4" d="M2879.69,1470.18h-85.41a12.94,12.94,0,0,1-12.92-12.94V1338.83a2.93,2.93,0,0,1,5.86,0v118.41a7.08,7.08,0,0,0,7.06,7.08h85.41a7.09,7.09,0,0,0,7.08-7.08l.09-117.82a2.93,2.93,0,0,1,2.93-2.93h0a2.93,2.93,0,0,1,2.92,2.93l-.09,117.82A13,13,0,0,1,2879.69,1470.18Z"/><path class="cls-5" d="M2736,1454.14h202.16a7.22,7.22,0,0,1,7.22,7.22v11.78a7.22,7.22,0,0,1-7.22,7.22H2736a7.23,7.23,0,0,1-7.22-7.22v-11.78A7.23,7.23,0,0,1,2736,1454.14Z"/><path class="cls-4" d="M2938.11,1483.29H2736a10.16,10.16,0,0,1-10.15-10.15v-11.78a10.16,10.16,0,0,1,10.15-10.15h202.16a10.16,10.16,0,0,1,10.15,10.15v11.78A10.16,10.16,0,0,1,2938.11,1483.29ZM2736,1457.07a4.3,4.3,0,0,0-4.29,4.29v11.78a4.3,4.3,0,0,0,4.29,4.29h202.16a4.29,4.29,0,0,0,4.29-4.29v-11.78a4.3,4.3,0,0,0-4.29-4.29Z"/><path class="cls-6" d="M1272.59,199.92c-88.62,1.14-190.87,40.54-279.37,115.34C835.89,448.25,781.63,642.74,872,749.67c.34.4.7.75,1,1.14H1253.7a543,543,0,0,0,66.84-48.29c157.33-133,211.59-327.48,121.2-434.41C1402.2,221.33,1341.52,199,1272.59,199.92Z"/><path class="cls-9" d="M1253.28,668s-70-149.48-49-232.33S1248.37,294,1245,235.63,1256,155,1256,155s1.38,67.54,9.31,91.92,27.37,122,19.72,174.48-.53,130-.53,130-4-145.81,18-208.38,29.39-105.54,19.6-141.68,40.93-86.19,40.93-86.19-4.69,82.37,8.15,116.53,39.35,71.4,19.56,144.05S1318.24,549,1318.49,584.82c.12,17.85-21.55,56.49-21.55,79.85C1296.94,674.65,1261.84,677.3,1253.28,668Z"/><path class="cls-2" d="M1237.94,674.65h70.48v56.16a18.94,18.94,0,0,1-18.94,18.94h-32.6a18.94,18.94,0,0,1-18.94-18.94Z"/><path class="cls-5" d="M1247.29,681.33h0a3.84,3.84,0,0,1,3.84,3.84v26.45a3.84,3.84,0,0,1-3.84,3.85h0a3.85,3.85,0,0,1-3.85-3.85V685.17A3.84,3.84,0,0,1,1247.29,681.33Z"/><path class="cls-5" d="M1247.29,719.77h0a4,4,0,0,1,3.84,4.14v2a4,4,0,0,1-3.84,4.14h0a4,4,0,0,1-3.85-4.14v-2A4,4,0,0,1,1247.29,719.77Z"/><path class="cls-4" d="M1289.48,752.67h-32.6A21.89,21.89,0,0,1,1235,730.81V674.65a2.93,2.93,0,1,1,5.86,0v56.16a16,16,0,0,0,16,16h32.6a2.93,2.93,0,1,1,0,5.85Z"/><path class="cls-8" d="M1237.26,674.65c0-2.26,15.93-4.09,35.58-4.09s35.58,1.83,35.58,4.09-15.93,4.08-35.58,4.08S1237.26,676.91,1237.26,674.65Z"/><path class="cls-9" d="M1251.81,664.67v9.06h0c.2,1.51,10.27,2.73,22.71,2.73s22.38-1.2,22.38-2.73v-9.06Z"/><path class="cls-4" d="M1262.34,667.6a2.92,2.92,0,0,1-2.85-2.29c-.12-.52-11.57-52.42-4.23-107.39,14.12-105.77,52-246.08,57.86-260.48,15.13-36.93,11.34-64.1,8-88.06-1-7.2-2-14-2.28-20.55-1.41-28.52,40-73.77,41.77-75.68a2.93,2.93,0,1,1,4.31,4c-.42.45-41.52,45.34-40.22,71.42.31,6.29,1.24,13,2.22,20,3.27,23.48,7.34,52.7-8.38,91.09-5.65,13.8-43.71,155.89-57.48,259-7.2,53.94,4,104.82,4.13,105.32a2.93,2.93,0,0,1-2.21,3.51A3.59,3.59,0,0,1,1262.34,667.6Z"/><path class="cls-4" d="M1313.37,494.19a2.93,2.93,0,0,1-2.8-3.8c.4-1.29,40.38-130.08,48.67-160.53,8.1-29.71-13-98.18-19.69-118.46-7.1-21.61,8.75-56.6,9.43-58.08a2.93,2.93,0,0,1,5.33,2.44c-.16.34-15.58,34.39-9.19,53.81,8.71,26.5,28.07,91.4,19.78,121.83s-48.33,159.43-48.73,160.73A2.93,2.93,0,0,1,1313.37,494.19Z"/><path class="cls-5" d="M1056.6,637h101.74v78.32H1056.6Z"/><path class="cls-4" d="M1158.34,718.24H1056.6a2.93,2.93,0,0,1-2.93-2.93V637a2.93,2.93,0,0,1,2.93-2.93h101.74a2.93,2.93,0,0,1,2.93,2.93v78.32A2.93,2.93,0,0,1,1158.34,718.24Zm-98.81-5.86h95.88V639.92h-95.88Z"/><path class="cls-5" d="M894.9,301.38h425.15a20.24,20.24,0,0,1,20.24,20.25v296.1A20.24,20.24,0,0,1,1320.05,638H894.9a20.25,20.25,0,0,1-20.25-20.25V321.63A20.25,20.25,0,0,1,894.9,301.38Z"/><path class="cls-3" d="M1113.25,301.38c-8.85,6.13-17.29,12.56-25.4,19.21h207.93a17.94,17.94,0,0,1,17.94,17.94V600.84a18,18,0,0,1-17.94,17.94H998.34A154.46,154.46,0,0,0,1013.2,638h306.85a20.24,20.24,0,0,0,20.24-20.25V321.62a20.23,20.23,0,0,0-20.24-20.24Z"/><path class="cls-5" d="M1033.41,726.41A11.61,11.61,0,0,1,1045,714.8h124.9a11.61,11.61,0,0,1,11.62,11.61v19.3a4.22,4.22,0,0,1-4.23,4.22H1037.63a4.22,4.22,0,0,1-4.22-4.22Z"/><path class="cls-4" d="M1177.31,752.86H1037.63a7.16,7.16,0,0,1-7.15-7.15v-19.3A14.56,14.56,0,0,1,1045,711.87h124.9a14.57,14.57,0,0,1,14.55,14.54v19.3A7.16,7.16,0,0,1,1177.31,752.86ZM1045,717.73a8.7,8.7,0,0,0-8.69,8.68v19.3a1.3,1.3,0,0,0,1.3,1.29h139.68a1.3,1.3,0,0,0,1.3-1.29v-19.3a8.7,8.7,0,0,0-8.69-8.68Z"/><path class="cls-4" d="M1295.79,621.71H919.16a20.9,20.9,0,0,1-20.87-20.87V338.52a20.89,20.89,0,0,1,20.87-20.87h376.63a20.89,20.89,0,0,1,20.86,20.87V600.84A20.9,20.9,0,0,1,1295.79,621.71ZM919.16,323.51a15,15,0,0,0-15,15V600.84a15,15,0,0,0,15,15h376.63a15,15,0,0,0,15-15V338.52a15,15,0,0,0-15-15Z"/><path class="cls-4" d="M1320.05,640.91H894.9a23.21,23.21,0,0,1-23.18-23.18V321.63a23.2,23.2,0,0,1,23.18-23.18h425.15a23.2,23.2,0,0,1,23.17,23.18v296.1A23.21,23.21,0,0,1,1320.05,640.91ZM894.9,304.31a17.34,17.34,0,0,0-17.32,17.32v296.1a17.34,17.34,0,0,0,17.32,17.32h425.15a17.34,17.34,0,0,0,17.31-17.32V321.63a17.34,17.34,0,0,0-17.31-17.32Z"/><path class="cls-4" d="M1295.79,621.71H919.16a20.9,20.9,0,0,1-20.87-20.87V338.52a20.89,20.89,0,0,1,20.87-20.87h376.63a20.89,20.89,0,0,1,20.86,20.87V600.84A20.9,20.9,0,0,1,1295.79,621.71ZM919.16,323.51a15,15,0,0,0-15,15V600.84a15,15,0,0,0,15,15h376.63a15,15,0,0,0,15-15V338.52a15,15,0,0,0-15-15Z"/><path class="cls-2" d="M1107.47,571.87a14.6,14.6,0,1,1,14.6,14.6A14.6,14.6,0,0,1,1107.47,571.87Z"/><path class="cls-2" d="M1005.28,425.88a14.6,14.6,0,1,1,14.6,14.6A14.6,14.6,0,0,1,1005.28,425.88Z"/><path class="cls-10" d="M1126.17,580.69a7.82,7.82,0,0,1-6.36-3.28l-99.53-139.36L964.7,528.59a7.82,7.82,0,1,1-13.32-8.18l61.74-100.58a7.82,7.82,0,0,1,13-.45L1125.87,559l129.42-199a7.81,7.81,0,0,1,13.1,8.52L1132.72,577.13a7.79,7.79,0,0,1-6.38,3.55Z"/><path class="cls-10" d="M1260.27,407.12h-.47a7.82,7.82,0,0,1-7.34-8.26l1.3-22.25-21.86,11a7.81,7.81,0,0,1-7-14l33.95-17.06a7.81,7.81,0,0,1,11.31,7.43l-2.09,35.76A7.81,7.81,0,0,1,1260.27,407.12Z"/><path class="cls-5" d="M841.85,488.15H960.59a13.66,13.66,0,0,1,13.56,13.76V716.38a13.67,13.67,0,0,1-13.56,13.77H841.85a13.67,13.67,0,0,1-13.56-13.77V501.91A13.66,13.66,0,0,1,841.85,488.15Z"/><path class="cls-3" d="M955.16,488.15c-1.89,4.71-3.56,9.42-5.13,14.13a11.44,11.44,0,0,1,8,11.24v134c1.23,2.23,2.46,4.46,3.81,6.64a148.83,148.83,0,0,0,12.3,17V501.92a13.67,13.67,0,0,0-13.56-13.77Z"/><path class="cls-4" d="M918.94,726.73H883.5a5.2,5.2,0,0,1-5.17-5.2v-6.59a5.19,5.19,0,0,1,5.17-5.2h35.44a5.19,5.19,0,0,1,5.17,5.2v6.59A5.2,5.2,0,0,1,918.94,726.73Zm-34.75-5.86h34.06V715.6H884.19Zm34.75-5.27h0Z"/><path class="cls-2" d="M861.87,641a16.91,16.91,0,1,1,16.9,16.9A16.9,16.9,0,0,1,861.87,641Z"/><path class="cls-10" d="M878.77,645.8A7.83,7.83,0,0,1,872,634.1L947,503a7.81,7.81,0,1,1,13.56,7.75l-75,131.07A7.83,7.83,0,0,1,878.77,645.8Z"/><path class="cls-4" d="M960.59,733.08H841.85a16.62,16.62,0,0,1-16.49-16.7V501.91a16.61,16.61,0,0,1,16.49-16.69H960.59a16.61,16.61,0,0,1,16.49,16.69V716.38A16.62,16.62,0,0,1,960.59,733.08Zm-118.74-242a10.75,10.75,0,0,0-10.63,10.83V716.38a10.75,10.75,0,0,0,10.63,10.84H960.59a10.75,10.75,0,0,0,10.63-10.84V501.91a10.75,10.75,0,0,0-10.63-10.83Z"/><path class="cls-4" d="M947.47,709.2H855c-7.44,0-13.5-6.53-13.5-14.55V513.52c0-8,6.06-14.56,13.5-14.56h92.5c7.44,0,13.5,6.53,13.5,14.56V694.65C961,702.67,954.91,709.2,947.47,709.2ZM855,504.82c-4.21,0-7.64,3.9-7.64,8.7V694.65c0,4.79,3.43,8.69,7.64,8.69h92.5c4.21,0,7.64-3.9,7.64-8.69V513.52c0-4.8-3.43-8.7-7.64-8.7Z"/><path class="cls-8" d="M1056.9,638.09l.15,10s34.89,11.45,58.26,15.15,43.18,5.26,43.18,5.26l-.91-31Z"/><path class="cls-4" d="M1397.92,752.67H747.21a2.93,2.93,0,0,1,0-5.85h650.71a2.93,2.93,0,1,1,0,5.85Z"/><path class="cls-5" d="M1422.18,457a40,40,0,1,1,40,40A40,40,0,0,1,1422.18,457Z"/><path class="cls-6" d="M147.16,1621.67c-87.54-72.89-72.42-235.35,33.75-362.86S444.12,1087,531.66,1159.89s72.42,235.35-33.76,362.86S234.69,1694.56,147.16,1621.67Z"/><path class="cls-3" d="M166.13,1504.91c-8.75,0-15.85-6.57-15.85-14.68V1279.36c0-8.11,7.1-14.68,15.85-14.68H290.07V1337H207.79v9.14h82.28v73H207.79v9.14h82.28v73H207.79v3.6Z"/><path class="cls-3" d="M299.94,1501.31v-73h78.92v73Z"/><path class="cls-3" d="M299.94,1419.13v-73h78.92v73Z"/><path class="cls-3" d="M388.73,1419.13v-73h78.92v73Z"/><path class="cls-3" d="M486.58,1421.23v-73h76.93v73Z"/><path class="cls-3" d="M299.94,1337v-72.27h78.92V1337Z"/><path class="cls-3" d="M389,1326.79v-72.27H468v72.27Z"/><path class="cls-3" d="M486.58,1323.36v-72.27h61.07c8.76,0,15.86,6.57,15.86,14.67v57.6Z"/><path class="cls-5" d="M118.47,1155.64H302.22A26.77,26.77,0,0,1,329,1182.4v385.26a26.77,26.77,0,0,1-26.76,26.76H118.47a26.77,26.77,0,0,1-26.76-26.76V1182.4A26.77,26.77,0,0,1,118.47,1155.64Z"/><path class="cls-6" d="M304.91,1189.63c-38.14,22.41-75,53.33-107.12,91.95-67,80.49-97.72,174.88-89.26,251.9a23.52,23.52,0,0,0,21.27,12.84H290.89c13,0,23.47-9.86,23.47-22V1207.21A21.53,21.53,0,0,0,304.91,1189.63Z"/><path class="cls-4" d="M302.22,1597.34H118.47a29.72,29.72,0,0,1-29.69-29.68V1182.41a29.73,29.73,0,0,1,29.69-29.7H302.22a29.73,29.73,0,0,1,29.69,29.7v385.25A29.72,29.72,0,0,1,302.22,1597.34ZM118.47,1158.57a23.86,23.86,0,0,0-23.83,23.84v385.25a23.86,23.86,0,0,0,23.83,23.83H302.22a23.86,23.86,0,0,0,23.83-23.83V1182.41a23.86,23.86,0,0,0-23.83-23.84Z"/><path class="cls-8" d="M160.92,1264.45a10.54,10.54,0,0,0-10.64,10.46v150.46a10.54,10.54,0,0,0,10.64,10.46H314.36V1264.45Z"/><path class="cls-4" d="M290.89,1549.25H129.8c-14.55,0-26.39-11.19-26.39-25V1207.21c0-13.77,11.84-25,26.39-25H290.89c14.55,0,26.39,11.19,26.39,25V1524.3C317.28,1538.06,305.44,1549.25,290.89,1549.25ZM129.8,1188.11c-11.32,0-20.53,8.56-20.53,19.1V1524.3c0,10.53,9.21,19.09,20.53,19.09H290.89c11.32,0,20.53-8.56,20.53-19.09V1207.21c0-10.54-9.21-19.1-20.53-19.1Z"/><path class="cls-5" d="M169.62,1234.85H426.06A10.92,10.92,0,0,1,437,1245.77v156.87a10.91,10.91,0,0,1-10.91,10.91H169.62a10.91,10.91,0,0,1-10.92-10.91V1245.77A10.92,10.92,0,0,1,169.62,1234.85Z"/><path class="cls-4" d="M426.06,1416.48H169.62a13.87,13.87,0,0,1-13.85-13.84V1245.77a13.87,13.87,0,0,1,13.85-13.85H426.06a13.87,13.87,0,0,1,13.84,13.85v156.87A13.86,13.86,0,0,1,426.06,1416.48Zm-256.44-178.7a8,8,0,0,0-8,8v156.87a8,8,0,0,0,8,8H426.06a8,8,0,0,0,8-8V1245.77a8,8,0,0,0-8-8Z"/><path class="cls-8" d="M158.7,1276.55H436.83v50.24H158.7Z"/><path class="cls-4" d="M436.83,1329.72H158.7a2.94,2.94,0,0,1-2.93-2.93v-50.24a2.93,2.93,0,0,1,2.93-2.93H436.83a2.93,2.93,0,0,1,2.93,2.93v50.24A2.94,2.94,0,0,1,436.83,1329.72Zm-275.2-5.86H433.9v-44.38H161.63Z"/><path class="cls-9" d="M324.75,1371c-3.56-13.44,2.35-26.66,13.19-29.54s22.52,5.7,26.08,19.14-2.34,26.67-13.19,29.54S328.31,1384.39,324.75,1371Z"/><path class="cls-2" d="M356.86,1369.8c-2.71-13.64,4.25-26.51,15.53-28.74s22.62,7,25.32,20.64-4.25,26.51-15.53,28.74S359.56,1383.44,356.86,1369.8Z"/><path class="cls-4" d="M239.73,1587.21H181.32a10.22,10.22,0,0,1-10.2-10.2v-11.58a10.21,10.21,0,0,1,10.2-10.2h58.41a10.21,10.21,0,0,1,10.2,10.2V1577A10.22,10.22,0,0,1,239.73,1587.21Zm-58.41-26.12a4.34,4.34,0,0,0-4.34,4.34V1577a4.35,4.35,0,0,0,4.34,4.34h58.41a4.35,4.35,0,0,0,4.34-4.34v-11.58a4.34,4.34,0,0,0-4.34-4.34Z"/><path class="cls-5" d="M595.8,1093.43a8.59,8.59,0,0,0-8.37,4.47l-86.69,160.86-38.15-67.56a8.59,8.59,0,0,0-15,8.46l45.81,81.1a8.6,8.6,0,0,0,15.05-.15l94-174.55a8.59,8.59,0,0,0-6.74-12.63Z"/><path class="cls-3" d="M486.59,1457.44v73H558a14.14,14.14,0,0,0,5.55-11v-62Zm40.64,9.49a18.28,18.28,0,0,1,18.3,18.27v9.61c0,10.7-8.19,19.39-18.3,19.39s-18.29-8.69-18.3-19.39v-9.61A18.28,18.28,0,0,1,527.23,1466.93Zm0,5.64a12.64,12.64,0,0,0-12.65,12.63h25.28A12.62,12.62,0,0,0,527.23,1472.57Zm0,18.21a4.13,4.13,0,0,0-4.12,4.14,4.08,4.08,0,0,0,2.39,3.73l-1.64,9.1h6.74l-1.67-9.1a4.12,4.12,0,0,0-1.7-7.87Z"/><path class="cls-6" d="M527.23,1363.26a18.28,18.28,0,0,0-18.29,18.28h0v9.59h0c0,10.7,8.2,19.37,18.31,19.37s18.3-8.67,18.3-19.37h0v-9.59h0A18.28,18.28,0,0,0,527.23,1363.26Zm0,5.65a12.63,12.63,0,0,1,12.64,12.63H514.59A12.63,12.63,0,0,1,527.23,1368.91Zm0,18.21A4.12,4.12,0,0,1,529,1395l1.65,9.11h-6.74l1.65-9.11a4.11,4.11,0,0,1,1.72-7.86Z"/><path class="cls-3" d="M389.27,1509.72v-73h78.92v73Z"/><path class="cls-6" d="M426.94,1449.38a18.29,18.29,0,0,0-18.3,18.28h0v9.59h0c0,10.7,8.2,19.37,18.3,19.37s18.3-8.67,18.31-19.37h0v-9.59h0A18.27,18.27,0,0,0,426.94,1449.38Zm0,5.65a12.62,12.62,0,0,1,12.63,12.63H414.29A12.64,12.64,0,0,1,426.94,1455Zm0,18.2a4.12,4.12,0,0,1,1.72,7.87l1.65,9.11h-6.74l1.65-9.11a4.12,4.12,0,0,1,1.72-7.87Z"/><path class="cls-8" d="M973.77,1694.51s-115.33,5.24-194.69,44.68-167.72,101.93-120.11,113c39.32,9.1,243.28-99.18,307.95-139C980.56,1704.79,973.77,1694.51,973.77,1694.51Z"/><path class="cls-4" d="M971.27,1771.75h-.09a2.93,2.93,0,0,1-2.84-3l5.5-192.39a2.93,2.93,0,0,1,5.86.17l-5.5,192.39A2.93,2.93,0,0,1,971.27,1771.75Z"/><path class="cls-8" d="M973.77,1694.51s-115.33,5.24-194.69,44.68-167.72,101.93-120.11,113c39.32,9.1,243.28-99.18,307.95-139C980.56,1704.79,973.77,1694.51,973.77,1694.51Z"/><path class="cls-4" d="M971.27,1771.75h-.09a2.93,2.93,0,0,1-2.84-3l5.5-192.39a2.93,2.93,0,0,1,5.86.17l-5.5,192.39A2.93,2.93,0,0,1,971.27,1771.75Z"/><path class="cls-6" d="M1627.29,302.55a108.13,108.13,0,1,1,108.13,108.14A108.13,108.13,0,0,1,1627.29,302.55Z"/><path class="cls-11" d="M1735.42,413.62a111.07,111.07,0,1,1,111-111.07A111.19,111.19,0,0,1,1735.42,413.62Zm0-216.27a105.21,105.21,0,1,0,105.19,105.2A105.32,105.32,0,0,0,1735.42,197.35Z"/><path class="cls-1" d="M2140.7,514.33c-30.72,0-59.47-4-85-11.86-46.47-14.34-81-41.22-99.9-77.71-27-52.24-20-118.78,19.89-187.36,39.69-68.3,107.21-130.52,190.11-175.22,53.81-29,111.35-48.84,166.42-57.37,53.48-8.28,103.81-5.84,145.55,7,46.47,14.35,81,41.22,99.9,77.72,27,52.24,20,118.78-19.89,187.36-39.69,68.3-107.21,130.52-190.11,175.22-53.81,29-111.36,48.84-166.42,57.37A397.11,397.11,0,0,1,2140.7,514.33ZM1959.25,423c18.4,35.55,52.14,61.75,97.59,75.78,86.07,26.57,201.57,7.87,309-50,169.56-91.41,263-251.72,208.39-357.34-18.39-35.55-52.13-61.75-97.58-75.78-86.07-26.57-201.57-7.87-309,50C1998.08,157,1904.6,317.34,1959.25,423Z"/><path class="cls-6" d="M2461.33,2c-106-2.58-230.46,49.3-332,148.65-112.4,109.94-167.25,249.21-154,362h595.94c126.48-153.1,151.85-343.48,51.95-445.61C2581.86,24.74,2524.93,3.58,2461.33,2Z"/><path class="cls-8" d="M2579,407.77a3,3,0,1,0,0,6h119.36a3,3,0,1,0,0-6Z"/><path class="cls-8" d="M1871.05,511.43a3,3,0,0,0,0,6h472a3,3,0,0,0,0-6Z"/><path class="cls-8" d="M1895.74,483.63a3,3,0,1,0,0,6h141.74a3,3,0,0,0,0-6Z"/><path class="cls-3" d="M2367.86,62.59c-19,.79-31.16,4.36-39.21,11.11-6.66,5.57-9.91,12-13.88,25-.35,1.1-1.51,4.93-1.58,5.2-.64,2.1-1.14,3.73-1.67,5.35-1.36,4.14-2.68,7.74-4.23,11.27a90.78,90.78,0,0,1-15.56,24.36c-4.12,4.65-10.78,6-20.76,4.53-7.91-1.19-14.37-3.11-32.64-9.31-2.38-.81-4-1.37-5.7-1.92-22.39-7.45-35.56-10-47.15-7.37-15.35,3.51-23.92,16.63-25.2,41-1.08,20,8.34,38.15,26.56,54.34,15.13,13.44,36,25.25,61,35.56a463,463,0,0,0,59.37,19.55c7.07,1.84,13.68,3.38,19.58,4.66,2.06.45,6.55,1.37,6.94,1.45l.51.09a3,3,0,1,0,1.11-5.95l-1.89-.37c-1.56-.31-3.35-.67-5.39-1.11-5.82-1.26-12.32-2.8-19.32-4.62a457.19,457.19,0,0,1-58.6-19.27c-24.52-10.08-44.76-21.6-59.31-34.53-16.95-15.06-25.51-31.49-24.55-49.45,1.16-21.9,8.14-32.58,20.52-35.41,10.12-2.31,22.59.08,43.91,7.18l5.66,1.88c18.67,6.34,25.23,8.34,33.65,9.6,11.8,1.78,20.45,0,26.18-6.51a96.7,96.7,0,0,0,16.6-25.94c1.62-3.72,3-7.49,4.41-11.8.55-1.67,1.07-3.34,1.73-5.48.09-.28,1.25-4.12,1.58-5.19,3.64-11.93,6.46-17.52,12-22.13,6.86-5.75,17.89-9,35.64-9.7,27.09-1.13,40.91,17.29,44.79,49.61a186.44,186.44,0,0,1-.25,42c-.29,2.57-.62,4.88-.91,6.93-.11.71-.36,2.38-.38,2.48a3,3,0,0,0,2.41,3.53,3.06,3.06,0,0,0,3.54-2.46c0-.13.29-1.9.4-2.64.33-2.12.65-4.53.94-7.18a191,191,0,0,0,.22-43.34c-1.87-15.61-6.11-28.65-13.28-38.18C2397,67.82,2384.42,61.9,2367.86,62.59Z"/><path class="cls-2" d="M2376.87,66.74c-19,.8-31.2,4.37-39.26,11.12-6.64,5.57-9.87,12-13.84,25-.35,1.09-1.49,4.92-1.58,5.19-.64,2.11-1.14,3.73-1.67,5.35a116.42,116.42,0,0,1-4.25,11.27A91.08,91.08,0,0,1,2300.73,149c-4.11,4.64-10.82,6-20.78,4.53-7.93-1.19-14.33-3.12-32.62-9.32-2.38-.81-4-1.37-5.7-1.92-22.37-7.45-35.54-10-47.14-7.36-15.36,3.5-23.91,16.63-25.22,41-1.07,20,8.35,38.14,26.57,54.33,15.13,13.45,36,25.25,61,35.57a464.57,464.57,0,0,0,59.37,19.55c7.07,1.84,13.68,3.38,19.57,4.66,2.07.44,6.52,1.36,6.94,1.44l.52.1a3,3,0,1,0,1.11-5.95l-1.89-.38c-1.56-.31-3.37-.66-5.41-1.1-5.84-1.26-12.33-2.81-19.34-4.63a458.63,458.63,0,0,1-58.56-19.26c-24.52-10.08-44.76-21.6-59.32-34.53-16.94-15.07-25.54-31.5-24.58-49.45,1.18-21.91,8.15-32.59,20.52-35.42,10.12-2.31,22.59.08,43.93,7.18,1.63.55,3.28,1.08,5.66,1.89,18.67,6.33,25.25,8.33,33.67,9.6,11.79,1.77,20.47,0,26.2-6.52a96.7,96.7,0,0,0,16.55-25.93c1.63-3.72,3-7.5,4.44-11.81.55-1.67,1.07-3.33,1.73-5.47l1.58-5.2c3.66-11.92,6.45-17.52,12-22.13,6.86-5.75,17.87-9,35.6-9.69,27.11-1.14,40.91,17.25,44.8,49.57a186.2,186.2,0,0,1-.22,42c-.29,2.57-.6,4.88-.91,6.92-.11.71-.36,2.39-.38,2.49a3,3,0,1,0,5.92,1.07c0-.13.32-1.93.43-2.68q.49-3.16.93-7.14a192.85,192.85,0,0,0,.25-43.35c-1.89-15.61-6.13-28.64-13.3-38.18C2406,72,2393.42,66.05,2376.87,66.74Z"/><path class="cls-8" d="M2383.79,66.74c-18.95.8-31.17,4.37-39.21,11.12-6.66,5.57-9.91,12-13.9,25-.33,1.09-1.49,4.92-1.56,5.19-.65,2.11-1.14,3.73-1.67,5.35-1.36,4.14-2.68,7.75-4.23,11.27A91.16,91.16,0,0,1,2307.66,149c-4.12,4.64-10.78,6-20.76,4.53-7.91-1.19-14.37-3.12-32.64-9.32-2.4-.81-4-1.37-5.7-1.92-22.39-7.45-35.56-10-47.15-7.36-15.35,3.5-23.92,16.63-25.2,41-1.08,20,8.34,38.14,26.56,54.33,15.13,13.45,36,25.25,61,35.57a464.57,464.57,0,0,0,59.37,19.55c7.07,1.84,13.66,3.38,19.58,4.66,2.06.44,6.55,1.36,6.94,1.44l.51.1a3,3,0,0,0,1.11-5.95l-1.89-.38c-1.56-.31-3.35-.66-5.39-1.1-5.82-1.26-12.32-2.81-19.32-4.63a458.47,458.47,0,0,1-58.62-19.26c-24.5-10.08-44.74-21.6-59.29-34.53-17-15.07-25.51-31.5-24.55-49.45,1.16-21.91,8.13-32.59,20.52-35.42,10.12-2.31,22.59.08,43.91,7.18,1.65.55,3.28,1.08,5.66,1.89,18.67,6.33,25.22,8.33,33.65,9.6,11.78,1.77,20.45,0,26.18-6.52a97.15,97.15,0,0,0,16.6-25.93c1.62-3.72,3-7.5,4.41-11.81.55-1.67,1.07-3.33,1.73-5.47.09-.29,1.23-4.12,1.58-5.2,3.64-11.92,6.46-17.52,12-22.13,6.86-5.75,17.89-9,35.64-9.69,27.09-1.14,40.91,17.25,44.79,49.57a188,188,0,0,1-.25,42c-.29,2.57-.62,4.88-.93,6.92-.09.71-.34,2.39-.36,2.49a3,3,0,0,0,2.41,3.52,3.06,3.06,0,0,0,3.54-2.45c0-.13.29-1.93.4-2.68.31-2.11.65-4.49.94-7.14a192.26,192.26,0,0,0,.22-43.35c-1.87-15.61-6.11-28.64-13.28-38.18C2412.91,72,2400.35,66.05,2383.79,66.74Z"/><path class="cls-8" d="M2393.55,223.61h31.35a16.1,16.1,0,0,1,16.11,16.1V252a16.11,16.11,0,0,1-16.11,16.1h-31.35a16.1,16.1,0,0,1-16.1-16.1V239.71A16.1,16.1,0,0,1,2393.55,223.61Z"/><path class="cls-8" d="M2289.31,325h213a16.11,16.11,0,0,1,16.11,16.1v27.52a16.11,16.11,0,0,1-16.11,16.1h-213a16.09,16.09,0,0,1-16.09-16.1V341.07A16.09,16.09,0,0,1,2289.31,325Z"/><path class="cls-8" d="M2195.89,224.23s41.39,61.78,57.79,89.27,51.31,88.84,82.77,65.87,2.74-91.62-34.64-148.7S2201.64,155.4,2195.89,224.23Z"/><path class="cls-8" d="M2231.05,179.92c-9.05,1.18-18.09,6-26.27,14.17-4.64,7.13-7.8,17.07-8.89,30.15,0,0,18.36,27.47,35.49,53.92,19.58-21.19,34.26-34,34.26-34,10.83-10.08,10.17-42-6.54-55.61-9.72-5.57-19.3-8.61-28-8.61Z"/><path class="cls-8" d="M2090.22,398.64c-2.39,8.37-3.59,20.05,3.79,25.88s20.76,2.2,29-10,28.61-52.38,62.5-96.83a547.84,547.84,0,0,1,68-74c14.26-15.14,10.16-42.49-7-56s-38.08-10.72-55,7c-5.37,5.61-34.13,34.65-58.71,85.25S2090.22,398.64,2090.22,398.64Z"/><path class="cls-8" d="M2217.43,212.87a12.84,12.84,0,1,1,13.26,12.41A12.84,12.84,0,0,1,2217.43,212.87Z"/><path class="cls-8" d="M2215,208.35a12.84,12.84,0,1,1,13.26,12.41A12.84,12.84,0,0,1,2215,208.35Z"/><path class="cls-8" d="M2302.39,353.69a21.11,21.11,0,1,1,21.81,20.38A21.1,21.1,0,0,1,2302.39,353.69Z"/><path class="cls-8" d="M2219.21,209.76a36.06,36.06,0,0,1,10.63-10.17Z"/><path class="cls-8" d="M2222.47,212.7a36.12,36.12,0,0,1,10.63-10.16Z"/><path class="cls-8" d="M2299.45,350.87a19.36,19.36,0,1,1,20,18.7A19.38,19.38,0,0,1,2299.45,350.87Z"/><path class="cls-8" d="M2307.09,353.48A53.88,53.88,0,0,1,2323,338.31Z"/><path class="cls-8" d="M2312,357.87a53.88,53.88,0,0,1,15.88-15.17Z"/><path class="cls-8" d="M2626,195.58s-50.44,54.66-70.87,79.29-64.41,79.86-92,52.31,11.45-90.94,57.17-141.58S2631,126.68,2626,195.58Z"/><path class="cls-8" d="M2598.1,146.37c8.78,2.57,17,8.75,23.78,18.06,3.49,7.76,5.09,18.07,4.14,31.16,0,0-22.39,24.3-43.38,47.8-16.07-24-28.59-38.89-28.59-38.9-9.17-11.64-3.6-43.07,15-53.94,10.47-4,20.39-5.53,29-4.18Z"/><path class="cls-8" d="M2703.51,384.2c1.07,8.64.46,20.36-7.74,25s-20.83-1-27.11-14.33-20.18-56.17-46.81-105.32a548.73,548.73,0,0,0-55.76-83.64c-11.75-17.15-3.48-43.54,15.53-54.26s39.29-4.71,53.29,15.44c4.45,6.37,28.38,39.49,44.87,93.29S2703.51,384.2,2703.51,384.2Z"/><path class="cls-8" d="M2606.5,181a12.86,12.86,0,1,0-15,10.22A12.86,12.86,0,0,0,2606.5,181Z"/><path class="cls-8" d="M2609.62,177a12.85,12.85,0,1,0-15,10.21A12.83,12.83,0,0,0,2609.62,177Z"/><path class="cls-8" d="M2500.81,307.06a21.1,21.1,0,1,0-24.67,16.78A21.1,21.1,0,0,0,2500.81,307.06Z"/><path class="cls-8" d="M2605.23,177.68a36.3,36.3,0,0,0-8.95-11.68Z"/><path class="cls-8" d="M2601.53,180.08a36.23,36.23,0,0,0-8.93-11.68Z"/><path class="cls-8" d="M2504.15,304.73a19.36,19.36,0,1,0-22.64,15.38A19.36,19.36,0,0,0,2504.15,304.73Z"/><path class="cls-8" d="M2496.2,306.12a53.88,53.88,0,0,0-13.35-17.43Z"/><path class="cls-8" d="M2490.71,309.71a54.1,54.1,0,0,0-13.36-17.44Z"/><path class="cls-8" d="M2233.68,307.34h55a16.09,16.09,0,0,1,16.09,16.1V439.77a16.09,16.09,0,0,1-16.09,16.1h-55a16.09,16.09,0,0,1-16.09-16.1V323.44A16.09,16.09,0,0,1,2233.68,307.34Z"/><path class="cls-4" d="M2288.68,458.8h-55a19,19,0,0,1-19-19V323.44a19,19,0,0,1,19-19h55a19,19,0,0,1,19,19V439.77A19,19,0,0,1,2288.68,458.8Zm-55-148.53a13.19,13.19,0,0,0-13.16,13.17V439.77a13.19,13.19,0,0,0,13.16,13.17h55a13.18,13.18,0,0,0,13.16-13.17V323.44a13.18,13.18,0,0,0-13.16-13.17Z"/><path class="cls-3" d="M2134.46,286.85s39.3,63.14,54.75,91.16,48.32,90.51,80.53,68.61,5.8-91.48-29.63-149.78S2142.51,218.25,2134.46,286.85Z"/><path class="cls-4" d="M2255.79,454.11a27.3,27.3,0,0,1-6.4-.77c-25.46-6.11-47.81-46.77-61.17-71.06l-1.57-2.85c-15.24-27.64-54.29-90.4-54.68-91a2.91,2.91,0,0,1-.42-1.89c3-25.39,13.86-41.39,30.63-45,24.8-5.4,57.87,16.74,80.43,53.86,19.68,32.38,34.07,64.11,40.51,89.33,8.15,31.89,4.2,53.55-11.74,64.39A27.35,27.35,0,0,1,2255.79,454.11Zm-118.3-167.92c4.81,7.74,40,64.43,54.29,90.41l1.58,2.86c12,21.9,34.46,62.68,57.4,68.18,6.1,1.46,11.77.34,17.33-3.45,30.33-20.63,4.14-88.86-30.49-145.83-20.94-34.45-52.13-56-74.17-51.17C2149.3,250.27,2140.34,263.74,2137.49,286.19Z"/><path class="cls-8" d="M2171.09,243.75c-9.11.87-18.29,5.41-26.74,13.28-4.89,7-8.37,16.8-9.91,29.83,0,0,17.45,28.07,33.67,55.08,20.27-20.53,35.37-32.85,35.37-32.85,11.17-9.72,11.59-41.64-4.65-55.8-9.52-5.9-19-9.25-27.72-9.54Z"/><path class="cls-5" d="M2023,457.62c-2.67,8.29-4.26,19.92,2.92,26s20.67,2.89,29.32-9,30.34-51.4,65.7-94.69a548.55,548.55,0,0,1,70.43-71.71c14.77-14.65,11.58-42.13-5.08-56.21s-37.7-12-55.24,5.18c-5.56,5.43-35.26,33.48-61.55,83.24S2023,457.62,2023,457.62Z"/><path class="cls-4" d="M2034.78,489.57a16.45,16.45,0,0,1-10.75-3.71c-9-7.63-6.27-21.5-3.83-29.11.51-1.7,20.81-68.64,46.71-117.69,11.68-22.11,31.83-54.51,61.44-83.34l.65-.63c18.72-18.32,41.4-20.36,59.19-5.32a45.46,45.46,0,0,1,15.53,32.48c.44,11.08-3.22,21-10.28,28.05l-.22.19a551.26,551.26,0,0,0-70,71.3c-25.5,31.21-44.18,61-55.34,78.75-4.37,6.95-7.81,12.44-10.26,15.8-5.38,7.4-12.8,12.17-20.36,13.08A20.84,20.84,0,0,1,2034.78,489.57Zm127.49-244c-9.8,0-19.89,4.6-29.18,13.69l-.65.64c-29.07,28.29-48.86,60.14-60.35,81.88-25.83,48.92-46.08,116-46.28,116.66l0,.06c-1.61,5-4.63,17.23,2,22.86a11.1,11.1,0,0,0,8.74,2.23c5.86-.71,12-4.72,16.32-10.72,2.33-3.19,5.73-8.61,10-15.47,11.23-17.89,30-47.85,55.76-79.34a559.43,559.43,0,0,1,70.74-72c5.82-5.83,8.82-14.2,8.45-23.56a39.46,39.46,0,0,0-13.46-28.24C2177.56,248.46,2170,245.59,2162.27,245.59ZM2023,457.62h0Z"/><path class="cls-8" d="M2156.36,276.22a12.85,12.85,0,1,1,12.84,12.84A12.84,12.84,0,0,1,2156.36,276.22Z"/><path class="cls-5" d="M2154,271.62a12.86,12.86,0,1,1,12.85,12.85A12.85,12.85,0,0,1,2154,271.62Z"/><path class="cls-4" d="M2166.88,287.4a15.78,15.78,0,1,1,15.79-15.78A15.8,15.8,0,0,1,2166.88,287.4Zm0-25.7a9.92,9.92,0,1,0,9.93,9.92A9.93,9.93,0,0,0,2166.88,261.7Z"/><path class="cls-8" d="M2236.55,419.81a21.11,21.11,0,1,1,21.12,21.1A21.11,21.11,0,0,1,2236.55,419.81Z"/><path class="cls-4" d="M2158.22,275.12a2,2,0,0,1-1.61-3.06,38.08,38.08,0,0,1,11.64-10.4,2,2,0,1,1,1.91,3.41,34.49,34.49,0,0,0-10.33,9.2A2,2,0,0,1,2158.22,275.12Z"/><path class="cls-4" d="M2161.4,278.17a1.95,1.95,0,0,1-1.61-3.06,37.83,37.83,0,0,1,11.63-10.4,2,2,0,1,1,1.91,3.41,34.21,34.21,0,0,0-10.32,9.2A2,2,0,0,1,2161.4,278.17Z"/><path class="cls-3" d="M2233.72,416.89a19.35,19.35,0,1,1,19.36,19.36A19.35,19.35,0,0,1,2233.72,416.89Z"/><path class="cls-4" d="M2253.08,439.18a22.29,22.29,0,1,1,22.27-22.29A22.32,22.32,0,0,1,2253.08,439.18Zm0-38.71a16.43,16.43,0,1,0,16.41,16.42A16.45,16.45,0,0,0,2253.08,400.47Z"/><path class="cls-4" d="M2241.27,422.68a2.94,2.94,0,0,1-2.42-4.59,56.4,56.4,0,0,1,17.35-15.52,2.93,2.93,0,1,1,2.87,5.11,51.38,51.38,0,0,0-15.39,13.73A2.91,2.91,0,0,1,2241.27,422.68Z"/><path class="cls-4" d="M2246,427.23a3,3,0,0,1-1.66-.51,2.93,2.93,0,0,1-.75-4.07,56.23,56.23,0,0,1,17.35-15.53,2.93,2.93,0,0,1,2.86,5.11A51.42,51.42,0,0,0,2248.42,426,2.93,2.93,0,0,1,2246,427.23Z"/><path class="cls-8" d="M2529.23,307.34h-55a16.09,16.09,0,0,0-16.09,16.1V439.77a16.09,16.09,0,0,0,16.09,16.1h55a16.09,16.09,0,0,0,16.09-16.1V323.44A16.09,16.09,0,0,0,2529.23,307.34Z"/><path class="cls-4" d="M2529.23,458.8h-55a19,19,0,0,1-19-19V323.44a19,19,0,0,1,19-19h55a19.05,19.05,0,0,1,19,19V439.77A19.05,19.05,0,0,1,2529.23,458.8Zm-55-148.53a13.18,13.18,0,0,0-13.16,13.17V439.77a13.18,13.18,0,0,0,13.16,13.17h55a13.19,13.19,0,0,0,13.16-13.17V323.44a13.19,13.19,0,0,0-13.16-13.17Z"/><path class="cls-9" d="M2280.53,261.18h244.65a16.09,16.09,0,0,1,16.09,16.1v51.87a16.09,16.09,0,0,1-16.09,16.1H2280.53a16.09,16.09,0,0,1-16.09-16.1V277.28A16.09,16.09,0,0,1,2280.53,261.18Z"/><path class="cls-4" d="M2525.18,348.18H2280.53a19,19,0,0,1-19-19V277.28a19,19,0,0,1,19-19h244.65a19,19,0,0,1,19,19v51.87A19,19,0,0,1,2525.18,348.18Zm-244.65-84.07a13.18,13.18,0,0,0-13.16,13.17v51.87a13.18,13.18,0,0,0,13.16,13.17h244.65a13.18,13.18,0,0,0,13.16-13.17V277.28a13.18,13.18,0,0,0-13.16-13.17Z"/><path class="cls-3" d="M2711,258.69s-58.06,53.4-98.67,113.1c-39,57.28-86.94,96.73-119.15,74.83s9.26-84.12,52.87-136.57C2597.63,248,2702.93,190.08,2711,258.69Z"/><path class="cls-4" d="M2513.19,455.65a37.72,37.72,0,0,1-21.66-6.61,28,28,0,0,1-12.38-20c-3.49-24.8,17.65-64.32,64.64-120.82,19.41-23.33,47.07-46.71,74-62.53,29.75-17.49,55.59-24.32,72.77-19.22,9.26,2.75,20.83,10.52,23.35,31.92a3,3,0,0,1-.93,2.5c-.58.53-58.28,53.86-98.22,112.59-20.7,30.43-42.44,53.9-62.88,67.87C2537.92,450.85,2524.87,455.65,2513.19,455.65Zm164.88-225c-15,0-34.88,6.91-57.33,20.1-26.36,15.5-53.45,38.39-72.44,61.22-45.24,54.4-66.55,93.51-63.35,116.26a22.12,22.12,0,0,0,9.87,16c14.13,9.61,32.21,7,53.74-7.71,19.84-13.57,41.05-36.5,61.34-66.34,37.24-54.75,89.7-104.79,98-112.57-2-13.78-8.36-22.37-19-25.53A38.06,38.06,0,0,0,2678.07,230.6Z"/><path class="cls-8" d="M2674.34,228.82c9.11.87,18.31,5.41,26.74,13.28,4.88,7,8.38,16.8,9.91,29.83,0,0-17.44,28.07-33.68,55.08-20.26-20.52-35.36-32.85-35.36-32.85-11.17-9.72-11.59-41.64,4.65-55.8,9.54-5.9,19-9.25,27.72-9.54Z"/><path class="cls-5" d="M2776.69,485.5c.94,9.44.3,22.25-7.39,27.24s-19.45-1.26-25.24-15.83-18.5-61.5-43.11-115.37-51.58-91.75-51.58-91.75c-10.87-18.82-3-47.59,14.81-59.17s36.72-4.89,49.69,17.22c4.1,7,26.26,43.34,41.35,102.22S2776.69,485.5,2776.69,485.5Z"/><path class="cls-4" d="M2763.47,517.38a16.06,16.06,0,0,1-4.82-.77c-7.11-2.26-13.58-9.23-17.31-18.62-1.62-4.09-3.77-10.65-6.49-19-7-21.45-18.78-57.34-36.56-96.27-24.17-53-51-90.89-51.3-91.27a1.14,1.14,0,0,1-.15-.23c-11.41-19.75-3.76-50.41,15.74-63.1,8.42-5.47,17.44-7.29,26.07-5.26,10.62,2.51,20.22,10.62,27.75,23.45l.49.84c21.9,37.13,34.48,76,41.17,102.14,14.89,58.08,21.4,134.2,21.54,135.9.85,8.54.85,23.77-8.7,30A13.47,13.47,0,0,1,2763.47,517.38ZM2651.84,288.21a624.33,624.33,0,0,1,51.78,92.11c17.92,39.23,29.74,75.32,36.8,96.88,2.69,8.22,4.82,14.71,6.37,18.63,3.09,7.78,8.19,13.46,13.64,15.19a8.41,8.41,0,0,0,7.27-.73c7.22-4.69,6.65-18.7,6.07-24.5v-.05c-.07-.76-6.53-77-21.39-134.95-6.59-25.74-19-64.08-40.53-100.62l-.5-.85c-6.7-11.42-15-18.58-24-20.71-7.14-1.69-14.38-.18-21.53,4.46C2649,244,2642.15,271.25,2651.84,288.21Z"/><path class="cls-8" d="M2697.45,265.05a12.85,12.85,0,1,0-12.84,12.85A12.84,12.84,0,0,0,2697.45,265.05Z"/><path class="cls-5" d="M2699.78,260.45a12.85,12.85,0,1,0-12.85,12.85A12.85,12.85,0,0,0,2699.78,260.45Z"/><path class="cls-4" d="M2686.93,276.23a15.78,15.78,0,1,1,15.77-15.78A15.8,15.8,0,0,1,2686.93,276.23Zm0-25.7a9.92,9.92,0,1,0,9.92,9.92A9.93,9.93,0,0,0,2686.93,250.53Z"/><path class="cls-5" d="M2617.49,177a12.86,12.86,0,1,0-12.86,12.85A12.85,12.85,0,0,0,2617.49,177Z"/><path class="cls-4" d="M2604.63,192.76A15.78,15.78,0,1,1,2620.42,177,15.79,15.79,0,0,1,2604.63,192.76Zm0-25.7a9.92,9.92,0,1,0,9.93,9.92A9.93,9.93,0,0,0,2604.63,167.06Z"/><path class="cls-5" d="M2238.53,208.58a12.85,12.85,0,1,0-12.85,12.85A12.85,12.85,0,0,0,2238.53,208.58Z"/><path class="cls-4" d="M2225.68,224.36a15.78,15.78,0,1,1,15.78-15.78A15.8,15.8,0,0,1,2225.68,224.36Zm0-25.7a9.92,9.92,0,1,0,9.92,9.92A9.93,9.93,0,0,0,2225.68,198.66Z"/><path class="cls-8" d="M2526.36,419.81a21.11,21.11,0,1,0-21.12,21.1A21.11,21.11,0,0,0,2526.36,419.81Z"/><path class="cls-4" d="M2695.59,264a1.91,1.91,0,0,1-1.61-.85,34.69,34.69,0,0,0-10.33-9.2,1.95,1.95,0,1,1,1.91-3.4,37.73,37.73,0,0,1,11.63,10.39,1.95,1.95,0,0,1-1.6,3.06Z"/><path class="cls-4" d="M2613.3,180.48a1.92,1.92,0,0,1-1.6-.84h0a34.76,34.76,0,0,0-10.33-9.21,1.95,1.95,0,1,1,1.91-3.4,38,38,0,0,1,11.63,10.39,1.95,1.95,0,0,1-1.61,3.06Z"/><path class="cls-4" d="M2234.34,212.08a2,2,0,0,1-1.61-.84,34.7,34.7,0,0,0-10.31-9.21,2,2,0,0,1,1.92-3.4A37.92,37.92,0,0,1,2236,209a2,2,0,0,1-1.61,3.05Z"/><path class="cls-4" d="M2692.41,267a2,2,0,0,1-1.61-.85,34.4,34.4,0,0,0-10.32-9.2,2,2,0,1,1,1.91-3.41,38,38,0,0,1,11.63,10.4,2,2,0,0,1-.51,2.72A1.93,1.93,0,0,1,2692.41,267Z"/><path class="cls-4" d="M2610.13,183.53a2,2,0,0,1-1.61-.84,34.5,34.5,0,0,0-10.32-9.21,1.95,1.95,0,1,1,1.91-3.4,38,38,0,0,1,11.63,10.39,2,2,0,0,1-.51,2.72A1.93,1.93,0,0,1,2610.13,183.53Z"/><path class="cls-4" d="M2231.18,215.13a2,2,0,0,1-1.61-.84h0a34.79,34.79,0,0,0-10.32-9.21,1.95,1.95,0,1,1,1.91-3.4,38,38,0,0,1,11.63,10.39,2,2,0,0,1-.5,2.72A2,2,0,0,1,2231.18,215.13Z"/><path class="cls-3" d="M2529.19,416.89a19.35,19.35,0,1,0-19.36,19.36A19.35,19.35,0,0,0,2529.19,416.89Z"/><path class="cls-4" d="M2509.83,439.18a22.29,22.29,0,1,1,22.29-22.29A22.31,22.31,0,0,1,2509.83,439.18Zm0-38.71a16.43,16.43,0,1,0,16.43,16.42A16.44,16.44,0,0,0,2509.83,400.47Z"/><path class="cls-4" d="M2521.64,422.68a2.9,2.9,0,0,1-2.41-1.27,51.27,51.27,0,0,0-15.39-13.73,2.93,2.93,0,0,1,2.87-5.11,56.55,56.55,0,0,1,17.35,15.52,2.93,2.93,0,0,1-2.42,4.59Z"/><path class="cls-4" d="M2516.91,427.23a2.93,2.93,0,0,1-2.42-1.27,51.31,51.31,0,0,0-15.38-13.73,2.93,2.93,0,0,1,2.87-5.11,56.27,56.27,0,0,1,17.34,15.53,2.92,2.92,0,0,1-.76,4.07A2.87,2.87,0,0,1,2516.91,427.23Z"/><path class="cls-5" d="M2307.75,254.17h185.79a7,7,0,0,1,7,7h0a7,7,0,0,1-7,7H2307.75a7,7,0,0,1-7-7h0A7,7,0,0,1,2307.75,254.17Z"/><path class="cls-4" d="M2493.54,271.1H2307.75a9.93,9.93,0,1,1,0-19.86h185.79a9.93,9.93,0,0,1,0,19.86Zm-185.79-14a4.07,4.07,0,1,0,0,8.14h185.79a4.07,4.07,0,0,0,0-8.14Z"/><path class="cls-3" d="M2340,158.62h137.38a16.11,16.11,0,0,1,16.12,16.1v54c0,8.89-169.59,8.89-169.59,0v-54A16.09,16.09,0,0,1,2340,158.62Z"/><path class="cls-4" d="M2408.65,238.3c-22.28,0-43.05-.59-58.5-1.67a193.9,193.9,0,0,1-19.52-2.13c-4.91-.88-9.7-2.05-9.7-5.8v-54a19,19,0,0,1,19-19h137.38a19.07,19.07,0,0,1,19.05,19v54c0,3.75-4.8,4.92-9.7,5.8a193.82,193.82,0,0,1-19.53,2.13C2451.71,237.71,2430.93,238.3,2408.65,238.3Zm-81.86-10.74c5.51,2.43,35.06,4.88,81.86,4.88s76.35-2.45,81.87-4.88V174.72a13.2,13.2,0,0,0-13.19-13.17H2340a13.18,13.18,0,0,0-13.16,13.17Z"/><path class="cls-8" d="M2437.53,186.22A18.8,18.8,0,1,1,2456.32,205,18.8,18.8,0,0,1,2437.53,186.22Z"/><path class="cls-5" d="M2432.94,181.83a18.81,18.81,0,1,1,18.79,18.81A18.8,18.8,0,0,1,2432.94,181.83Z"/><path class="cls-4" d="M2451.73,203.57a21.74,21.74,0,1,1,21.75-21.74A21.75,21.75,0,0,1,2451.73,203.57Zm0-37.61a15.88,15.88,0,1,0,15.89,15.87A15.89,15.89,0,0,0,2451.73,166Z"/><path class="cls-8" d="M2455.24,162.72a1,1,0,0,0-1,1v6h-4.93v-5.92a1,1,0,0,0-2.09,0v5.92h-5v-3.09a1,1,0,0,0-2.07,0v3.09h-3.3a1,1,0,1,0,0,2.08h3.3v5.28h-5.26a1,1,0,1,0,0,2.08h5.26v5.29h-5.26a1,1,0,1,0,0,2.08h5.26v5.28h-3.28a1,1,0,1,0,0,2.08h3.28v3.31a1,1,0,1,0,2.07,0v-3.31h5v4.79a1,1,0,0,0,2.09,0v-4.79h4.93v4.79a1,1,0,0,0,2.09,0v-4.79h5v4.79a1,1,0,1,0,2.07,0v-4.79h5.26a1,1,0,0,0,0-2.08h-5.26v-5.28h5.26a1,1,0,0,0,0-2.08h-5.26v-5.29h5.26a1,1,0,0,0,0-2.08h-5.26v-5.28h3.34a1,1,0,1,0,0-2.08h-3.34v-3.15a1,1,0,1,0-2.07,0v3.15h-5v-6A1,1,0,0,0,2455.24,162.72Zm-13,9.1h5v5.28h-5Zm7.06,0h4.93v5.28h-4.93Zm7,0h5v5.28h-5Zm-14.08,7.36h5v5.29h-5Zm7.06,0h4.93v5.29h-4.93Zm7,0h5v5.29h-5Zm-14.08,7.37h5v5.28h-5Zm7.06,0h4.93v5.28h-4.93Zm7,0h5v5.28h-5Z"/><path class="cls-8" d="M2349.64,186.22a18.81,18.81,0,1,1,18.8,18.81A18.8,18.8,0,0,1,2349.64,186.22Z"/><path class="cls-5" d="M2345.05,181.83a18.81,18.81,0,1,1,18.81,18.81A18.81,18.81,0,0,1,2345.05,181.83Z"/><path class="cls-4" d="M2363.86,203.57a21.74,21.74,0,1,1,21.73-21.74A21.76,21.76,0,0,1,2363.86,203.57Zm0-37.61a15.88,15.88,0,1,0,15.87,15.87A15.9,15.9,0,0,0,2363.86,166Z"/><path class="cls-8" d="M2367.37,162.72a1,1,0,0,0-1,1v6h-4.95v-5.92a1,1,0,1,0-2.07,0v5.92h-5v-3.09a1,1,0,0,0-2.09,0v3.09H2349a1,1,0,0,0,0,2.08h3.3v5.28H2347a1,1,0,0,0,0,2.08h5.26v5.29H2347a1,1,0,0,0,0,2.08h5.26v5.28H2349a1,1,0,1,0,0,2.08h3.26v3.31a1,1,0,0,0,2.09,0v-3.31h5v4.79a1,1,0,1,0,2.07,0v-4.79h4.95v4.79a1,1,0,1,0,2.07,0v-4.79h5v4.79a1,1,0,0,0,2.09,0v-4.79h5.24a1,1,0,1,0,0-2.08h-5.24v-5.28h5.24a1,1,0,1,0,0-2.08h-5.24v-5.29h5.24a1,1,0,1,0,0-2.08h-5.24v-5.28h3.34a1,1,0,0,0,0-2.08h-3.34v-3.15a1,1,0,0,0-2.09,0v3.15h-5v-6A1,1,0,0,0,2367.37,162.72Zm-13,9.1h5v5.28h-5Zm7,0h4.95v5.28h-4.95Zm7,0h5v5.28h-5Zm-14.06,7.36h5v5.29h-5Zm7,0h4.95v5.29h-4.95Zm7,0h5v5.29h-5Zm-14.06,7.37h5v5.28h-5Zm7,0h4.95v5.28h-4.95Zm7,0h5v5.28h-5Z"/><path class="cls-8" d="M2436.73,287.4h18.81a10.74,10.74,0,0,1,10.73,10.73h0a10.74,10.74,0,0,1-10.73,10.73h-18.81A10.72,10.72,0,0,1,2426,298.13h0A10.72,10.72,0,0,1,2436.73,287.4Z"/><path class="cls-11" d="M2455.54,311.79h-18.81a13.66,13.66,0,0,1,0-27.32h18.81a13.66,13.66,0,0,1,0,27.32Zm-18.81-21.46a7.8,7.8,0,0,0,0,15.6h18.81a7.8,7.8,0,1,0,0-15.6Z"/><path class="cls-8" d="M2436.73,306h18.81a10.73,10.73,0,0,1,10.73,10.73h0a10.74,10.74,0,0,1-10.73,10.73h-18.81A10.72,10.72,0,0,1,2426,316.72h0A10.72,10.72,0,0,1,2436.73,306Z"/><path class="cls-11" d="M2455.54,330.38h-18.81a13.66,13.66,0,0,1,0-27.32h18.81a13.66,13.66,0,0,1,0,27.32Zm-18.81-21.46a7.8,7.8,0,0,0,0,15.6h18.81a7.8,7.8,0,1,0,0-15.6Z"/><path class="cls-5" d="M2255.78,297.49h287.49a8.51,8.51,0,0,1,8.51,8.5h0a8.51,8.51,0,0,1-8.51,8.5H2255.78a8.49,8.49,0,0,1-8.49-8.5h0A8.49,8.49,0,0,1,2255.78,297.49Z"/><path class="cls-4" d="M2543.27,317.42H2255.78a11.43,11.43,0,0,1,0-22.86h287.49a11.43,11.43,0,1,1,0,22.86Zm-287.49-17a5.57,5.57,0,0,0,0,11.14h287.49a5.57,5.57,0,1,0,0-11.14Z"/><path class="cls-8" d="M2609.49,511.43a3,3,0,1,0,0,6H2777a3,3,0,0,0,0-6Z"/><path class="cls-8" d="M2373.28,511.43a3,3,0,1,0,0,6h119.37a3,3,0,0,0,0-6Z"/><path class="cls-11" d="M2195.35,492.5H2076a5.86,5.86,0,1,1,0-11.71h119.37a5.86,5.86,0,1,1,0,11.71Z"/><path class="cls-8" d="M1738.44,483.63a3,3,0,1,0,0,6h128.31a3,3,0,0,0,0-6Z"/><path class="cls-5" d="M2509.92,58.79a57,57,0,1,1,57,57A57,57,0,0,1,2509.92,58.79Z"/><path class="cls-6" d="M2900.77,592.64A54.33,54.33,0,1,1,2955.11,647,54.34,54.34,0,0,1,2900.77,592.64Z"/><path class="cls-4" d="M424.48,2022a2.92,2.92,0,0,1-2.05-.84,689.77,689.77,0,0,1-180.21-299,2.93,2.93,0,1,1,5.62-1.65A683.91,683.91,0,0,0,426.54,2017a2.93,2.93,0,0,1-2.06,5Z"/><path class="cls-4" d="M2937,802.05a2.94,2.94,0,0,1-2.91-2.61,713.66,713.66,0,0,0-15.32-87.86,2.93,2.93,0,1,1,5.7-1.37,719.84,719.84,0,0,1,15.44,88.59,2.92,2.92,0,0,1-2.59,3.23Z"/><path class="cls-4" d="M2906.28,659.85a2.93,2.93,0,0,1-2.78-2,681.43,681.43,0,0,0-73.24-154.28,2.93,2.93,0,0,1,4.94-3.16A686.76,686.76,0,0,1,2909.07,656a2.94,2.94,0,0,1-2.79,3.84Z"/><path class="cls-4" d="M2135.73,126.5l-.32,0c-84.91-9.19-173.93-10.86-264.61-4.94a2.93,2.93,0,0,1-.38-5.85c91-5.94,180.38-4.27,265.62,5a2.93,2.93,0,0,1-.31,5.84Z"/><path class="cls-4" d="M1458.53,197.41a2.93,2.93,0,0,1-.84-5.74c53.47-16.09,107.79-30,161.45-41.22a2.93,2.93,0,1,1,1.2,5.73c-53.49,11.23-107.65,25.06-161,41.1A2.79,2.79,0,0,1,1458.53,197.41Z"/><path class="cls-4" d="M524.8,790.69a2.93,2.93,0,0,1-2.22-4.84c70.2-81.7,150.74-159.1,239.37-230.06a2.93,2.93,0,0,1,3.66,4.58C677.26,631.1,597,708.25,527,789.67A2.94,2.94,0,0,1,524.8,790.69Z"/><path class="cls-4" d="M444.1,892.74a2.92,2.92,0,0,1-2.37-4.65c13.58-18.74,27.92-37.6,42.61-56a2.93,2.93,0,1,1,4.58,3.65c-14.63,18.37-28.91,37.15-42.45,55.82A2.91,2.91,0,0,1,444.1,892.74Z"/><path class="cls-6" d="M761.45,2111.68c-33.87-272.17,102.44-617.73,380.27-895.56C1537.88,820,2071.77,711.54,2334.18,974,2582.2,1222,2499,1712.5,2154.61,2100,2134.62,2122.53,979,2102.5,761.45,2111.68Z"/><path class="cls-3" d="M2412.69,2075.74v0Z"/><path class="cls-3" d="M2412.69,2075.74v0Z"/><path class="cls-6" d="M761.45,2111.68c-33.87-272.17,102.44-617.73,380.27-895.56C1537.88,820,2071.77,711.54,2334.18,974,2582.2,1222,2499,1712.5,2154.61,2100,2134.62,2122.53,979,2102.5,761.45,2111.68Z"/><path class="cls-3" d="M645.47,1840.83s6.27-303.47,92.72-423.17,268.28-162.56,437.6-153.56,432.36,24.16,473.62,175.89c18.79,69.15,68.47,213.38,61,319.78-12.34,175.16-96,305.88-96,305.88s-313.41,18.07-435.5,19.23c-95.4.93-277.11-197.92-421.37-246.8C706.18,1820.7,645.47,1840.83,645.47,1840.83Z"/><path class="cls-11" d="M1711.65,1690.32a2.94,2.94,0,0,1-2.89-2.47c-.33-2.09-33.65-210.11-86.16-294.86-32.73-52.84-116.47-81.41-181-96.08a888.19,888.19,0,0,0-134-19.35,2.93,2.93,0,0,1,.3-5.85,893.62,893.62,0,0,1,135,19.49c41.6,9.46,77.49,21.4,106.68,35.5,36.75,17.74,63,39,78,63.2,53.13,85.76,86.64,294.93,87,297a2.93,2.93,0,0,1-2.44,3.35A3.55,3.55,0,0,1,1711.65,1690.32Z"/><path class="cls-3" d="M1334.3,854.2c2.09-9.43-93.33-168.85-233.38-92.6s-72.55,179.78-56.44,201.9c2.89,4,11.52-32.69,27-37C1142.41,906.86,1332.58,861.93,1334.3,854.2Z"/><path class="cls-8" d="M1044.48,963.5s-.69-22.46,16.23-35.06c36.43-27.13,118.78-59.28,214.14-80.5,139.69-31.09,253.83-59.68,263.15-15.82s-151.44,99.69-170.68,109.52c-13.55,6.92-164.23,45.1-254.48,49.24C1075,992.61,1044.48,963.5,1044.48,963.5Z"/><path class="cls-6" d="M1088.91,992.59s-25.66-60-83.86-25.19-43.65,92.14-6.47,113.16,83.26,0,83.26,0v211.78s52.54,56.58,119.63,51.73,110.74-39.61,110.74-39.61l4.85-84.06s104.27,6.47,114.78-60.62-15.3-150.72-15.3-150.72,66-35.1,34.82-79.25c-43.64-61.84-74,21.07-74,21.07s-24.48-63.75-84.29-82.34-229.86,61.67-229.86,61.67Z"/><path class="cls-4" d="M1193.39,1347.29c-32,0-60-13.19-78.46-24.79-21.59-13.58-34.69-27.58-35.24-28.17a2.93,2.93,0,0,1-.78-2V1084.92c-12.39,4.71-49.86,16.23-81.77-1.81-20.44-11.55-33.81-33.51-34.08-56-.29-24.39,14.09-46.5,40.49-62.27,18.31-10.93,35.45-13.92,51-8.89a55.69,55.69,0,0,1,21.76,13.61l-15.74-38.27a2.93,2.93,0,0,1,1.46-3.77c7-3.29,171.76-80.53,232-61.82,31.65,9.84,53.39,32.18,66.06,49.19a174.51,174.51,0,0,1,17.29,28.53c5.44-12,18.9-36.68,38.42-39.27,12.81-1.69,25.6,6.35,38,23.93,8,11.36,10.63,23.18,7.79,35.14-5.93,24.87-33.59,42.57-41.54,47.21,4,13.92,24.26,88.94,14.73,149.76-4.49,28.69-26.46,48.7-63.52,57.86a201.55,201.55,0,0,1-51.39,5.35l-4.69,81.19a3,3,0,0,1-1.1,2.13c-1.81,1.44-45.13,35.37-112.35,40.23C1198.89,1347.2,1196.13,1347.29,1193.39,1347.29Zm-108.62-56.14c6.74,6.84,56,54.36,116.49,50,59.88-4.33,101.19-33.09,108.1-38.2l4.77-82.72a3,3,0,0,1,1-2,2.9,2.9,0,0,1,2.13-.73c.26,0,26,1.5,52.69-5.11,35-8.68,54.86-26.53,59-53,10.28-65.63-15-148.57-15.2-149.4a2.92,2.92,0,0,1,1.42-3.45c.34-.18,34.52-18.66,40.68-44.58,2.43-10.25.12-20.48-6.87-30.39-11-15.66-22-22.89-32.44-21.5-21.84,2.89-36.23,41.5-36.38,41.89a2.91,2.91,0,0,1-2.72,1.92h0a2.92,2.92,0,0,1-2.73-1.88c-.24-.62-24.71-62.65-82.43-80.59-54.13-16.83-203.89,50.54-225.22,60.35l24.6,59.79a2.93,2.93,0,0,1-5.4,2.26c-.17-.38-11-24.89-33.55-32.19-13.82-4.47-29.34-1.66-46.12,8.36-24.53,14.65-37.9,35-37.63,57.17.24,20.4,12.45,40.39,31.1,50.93,35.42,20,80.15.09,80.6-.11a2.93,2.93,0,0,1,4.15,2.66Z"/><path class="cls-2" d="M1102,971.43c-12-23.42,81.67-70.69,96.6-48.74S1119.1,1004.8,1102,971.43Z"/><path class="cls-4" d="M1092.9,1046.58a2.93,2.93,0,0,1-2.71-1.79c-.1-.24-10.21-23.64-32-31.51-22.23-8-49.25-2.75-49.53-2.69a2.93,2.93,0,1,1-1.15-5.75c1.16-.23,28.87-5.68,52.67,2.93,24.23,8.76,35,33.69,35.39,34.75a2.92,2.92,0,0,1-1.56,3.83A2.86,2.86,0,0,1,1092.9,1046.58Z"/><path class="cls-6" d="M701.31,1809.65s-28.53,232.32,5.2,252.25,539.53,5,562.22-1.26,115.5-50.09,115.5-50.09,7.1-46.67-38.63-101.82c-33.15-40-104.17-86.37-177.14-113.6-164.54-61.4-199.26-24.82-199.26-24.82l2.9-68.29s-79.94-1.53-157.44,36.68S701.31,1809.65,701.31,1809.65Z"/><path class="cls-8" d="M1099,1036.74l-10,33.94s46.2,146.35,128.16,178.19,96.08-29.82,96.08-29.82Z"/><path class="cls-2" d="M1223.93,916.27c-5-13.66,75.53-51.8,86.59-30.5s-24,27.59-39.27,33.06S1232.06,938.68,1223.93,916.27Z"/><path class="cls-2" d="M1088.92,991s56.55,282,186.56,273.14,212.82-77.47,196.79-146.93-131.79-212.82-131.79-212.82l22.26,87.27s-21.37,8.9-86.37,29.38-92.61,49.87-92.61,49.87l-61.43-36.06Z"/><path class="cls-11" d="M1374.89,1244.76a2.93,2.93,0,0,1-2.84-2.2,336,336,0,0,0-16.44-46.79c-10.42-23.38-56.34-95.67-56.81-96.4a2.93,2.93,0,0,1,5-3.14c1.9,3,46.62,73.38,57.21,97.15a342.14,342.14,0,0,1,16.77,47.73,2.93,2.93,0,0,1-2.12,3.56A3,3,0,0,1,1374.89,1244.76Z"/><path class="cls-11" d="M1217.94,1164.53a2.93,2.93,0,0,1-1.87-5.2c65.53-53.84,140.21-98.72,222-133.39,72.66-30.81,147.57-52.07,222.66-63.21,72.59-10.76,143.6-11.83,211.06-3.17a2.93,2.93,0,0,1-.75,5.81c-136.2-17.48-289.15,6-430.68,66-81.23,34.45-155.43,79-220.53,132.52A2.89,2.89,0,0,1,1217.94,1164.53Z"/><path class="cls-11" d="M1442.2,1202.43a2.93,2.93,0,0,1-2.92-2.73c0-.32-2.21-32.29-8.5-51.16s-30.41-49.39-30.65-49.7a2.93,2.93,0,1,1,4.59-3.64c1,1.29,25,31.76,31.62,51.49s8.7,51.28,8.79,52.62a2.94,2.94,0,0,1-2.73,3.12Z"/><path class="cls-4" d="M756.37,1894.33a2.93,2.93,0,0,1-1.88-5.18,851.41,851.41,0,0,1,94.08-66.07c49.92-30.22,122.58-66.24,185.28-66.24s136,31.73,186.52,58.35a886.76,886.76,0,0,1,95.48,58.23,2.93,2.93,0,0,1-3.44,4.75,880.27,880.27,0,0,0-94.84-57.83c-49.93-26.3-122.33-57.64-183.72-57.64s-132.91,35.54-182.17,65.35a843.18,843.18,0,0,0-93.43,65.6A2.92,2.92,0,0,1,756.37,1894.33Z"/><path class="cls-8" d="M1317.64,926.17s4,30.12-8.76,36.64S1268,947.3,1268,947.3s21.35,9.67,34.16,5S1317.64,926.17,1317.64,926.17Z"/><path class="cls-8" d="M1214.77,964s4,30.12-8.76,36.64-40.91-15.51-40.91-15.51,21.35,9.66,34.16,4.94S1214.77,964,1214.77,964Z"/><path class="cls-6" d="M1259.16,975.61s33,21.85,30.91,39.17S1252,1030,1252,1030Z"/><path class="cls-4" d="M1255.72,1033c-2.19,0-3.64-.08-3.92-.1a2.93,2.93,0,1,1,.34-5.85c9.24.55,33.55-.67,35-12.62,1.57-12.71-20.85-30.56-29.61-36.36a2.93,2.93,0,0,1,3.23-4.89c3.53,2.34,34.48,23.39,32.2,42C1291,1031.38,1265.67,1033,1255.72,1033Z"/><path class="cls-6" d="M1393.52,969.82s12.39-38,37.37-40Z"/><path class="cls-4" d="M1393.52,972.75a2.94,2.94,0,0,1-2.78-3.84c.53-1.63,13.29-39.83,39.92-42a2.93,2.93,0,0,1,.47,5.84c-22.74,1.83-34.71,37.59-34.82,38A3,3,0,0,1,1393.52,972.75Z"/><path class="cls-11" d="M1278.77,847.71a2.93,2.93,0,0,1-2.4-1.24c-.17-.24-18-24.88-63.7-51.59s-94.92-30.32-95.41-30.35a2.93,2.93,0,1,1,.39-5.85c.5,0,51,3.69,98,31.14s64.79,52.22,65.53,53.26a2.93,2.93,0,0,1-.69,4.09A3,3,0,0,1,1278.77,847.71Z"/><path class="cls-4" d="M1286.91,1265.77c-19.57,0-37.52-3.45-54.06-10.33-36.58-15.23-61.16-45.47-80.37-73-40.65-58.33-65.41-185.5-66.44-190.89a2.93,2.93,0,1,1,5.75-1.1c.26,1.31,25.56,131.33,65.49,188.64,39.23,56.28,91.87,112,220.84,60.49a2.93,2.93,0,0,1,2.18,5.44C1345.57,1258.85,1314.62,1265.77,1286.91,1265.77Z"/><path class="cls-11" d="M1410.84,1225.18a2.93,2.93,0,0,1-2.91-2.59c0-.26-3.07-25.92-7.25-39.83-4.12-13.72-23.13-41.52-23.33-41.8a2.93,2.93,0,0,1,4.84-3.31c.8,1.17,19.72,28.83,24.11,43.42,4.32,14.4,7.32,39.76,7.45,40.84a2.93,2.93,0,0,1-2.57,3.25Z"/><path class="cls-9" d="M1380.49,2066.2l7.12-27,209.56-3.78,10.89,32.88Z"/><path class="cls-6" d="M1335,1962.31s111.8-173,150.89-151c10.9,6.14,36.47,12.09,51.06,43,36.07,76.39,62.79,211,42,208.2-29.19-3.92-70.87-109.68-70.87-109.68s38.54,145.6,7,119-69.32-83.75-69.32-83.75-14.06,29.19-39.56,49.15c-12.91,10.11-28.75,17.86-47.19,18.25-54.87,1.18-149.82-9-149.82-9Z"/><path class="cls-4" d="M1024.72,1827.33a3,3,0,0,1-1.58-.47,2.93,2.93,0,0,1-.87-4c1.25-1.94,31.19-47.67,77.19-65.77a2.93,2.93,0,0,1,2.15,5.46c-44.22,17.39-74.13,63-74.42,63.49A2.94,2.94,0,0,1,1024.72,1827.33Z"/><path class="cls-4" d="M1078.14,1827.33a2.94,2.94,0,0,1-2.46-4.52c1.26-1.94,31.2-47.67,77.2-65.77a2.93,2.93,0,0,1,2.15,5.46c-44.22,17.39-74.13,63-74.42,63.49A3,3,0,0,1,1078.14,1827.33Z"/><path class="cls-4" d="M1122.25,1843a2.93,2.93,0,0,1-2.46-4.52c1.26-1.94,31.2-47.67,77.2-65.76a2.93,2.93,0,0,1,2.15,5.45c-44.22,17.39-74.13,63-74.43,63.49A2.92,2.92,0,0,1,1122.25,1843Z"/><path class="cls-4" d="M1308,1077.8a2.93,2.93,0,0,1-.34-5.84c.36,0,37-4.68,42.93-28.39a2.93,2.93,0,1,1,5.68,1.42c-6.91,27.64-46.25,32.59-47.93,32.79Z"/><path class="cls-5" d="M1096.36,1673.8v-16.87l95.79-40.45v19.6l-71.47,29.29,71.47,29.52v19.85Z"/><path class="cls-5" d="M1212,1733.1l44.17-156.82H1275l-44.17,156.82Z"/><path class="cls-5" d="M1390.66,1673.8l-95.78,40.94v-19.85l71.47-29.52-71.47-29.29v-19.6l95.78,40.45Z"/><path class="cls-6" d="M1529.82,1733.1s120.24-30.23,149.61-16-133.64,361.15-133.64,361.15l6.33-182.27Z"/><path class="cls-4" d="M1520.18,2075.86l-.73,0c-4.34-.32-17.55-1.28-61.63-74-21.45-35.42-40-71.06-40.18-71.42a2.93,2.93,0,0,1,5.2-2.7c.18.36,18.65,35.85,40,71.1,38.36,63.33,52.66,70.91,57,71.23a2.81,2.81,0,0,0,2.74-1.39c6.38-8.85,11.12-41-28.91-156.92l-.36-1a2.93,2.93,0,0,1,5.54-1.92l.36,1.06c31.18,90.31,40.65,144.9,28.12,162.26A8.62,8.62,0,0,1,1520.18,2075.86Z"/><path class="cls-4" d="M1565.22,2066.08H1565c-5-.26-13.8-4.84-31.26-41.29-9.31-19.44-16.75-39-16.82-39.23a2.93,2.93,0,1,1,5.48-2.07c.07.19,7.43,19.58,16.64,38.8,16.67,34.8,24.33,37.84,26.28,37.94,1.63,0,8.68-3.23,13.14-8,1.57-1.67,3.41-4.18,3.3-6.7-2.25-49.3-30.71-159.76-31-160.87a2.93,2.93,0,0,1,5.67-1.47c.29,1.12,28.9,112.17,31.17,162.08.17,3.86-1.75,7.9-5.57,11.68C1577.17,2061.75,1569.15,2066.08,1565.22,2066.08Z"/><path class="cls-9" d="M2442.43,2064.78H1534.72l180.22-528.63c14.41-42.25,62.25-76.49,106.88-76.49h746.09c44.63,0,69.12,34.24,54.74,76.49Z"/><path class="cls-4" d="M2442.43,2067.71a2.83,2.83,0,0,1-.95-.16,2.92,2.92,0,0,1-1.83-3.71l44.73-131.2a2.93,2.93,0,1,1,5.54,1.89l-44.72,131.2A2.94,2.94,0,0,1,2442.43,2067.71Z"/><path class="cls-4" d="M2509.9,1869.8a2.81,2.81,0,0,1-.94-.16,2.93,2.93,0,0,1-1.83-3.72l60.73-178.15a2.93,2.93,0,0,1,5.54,1.89l-60.72,178.16A3,3,0,0,1,2509.9,1869.8Z"/><path class="cls-6" d="M2060.14,1782.52c15.68-32.06,49.15-44.23,74.75-27.21s33.68,56.8,18,88.86-49.15,44.22-74.77,27.2S2044.46,1814.56,2060.14,1782.52Z"/><path class="cls-6" d="M2184.53,1720.72c6.92-14.13,21.68-19.5,33-12s14.84,25.06,7.93,39.19-21.68,19.51-33,12S2177.62,1734.86,2184.53,1720.72Z"/><path class="cls-5" d="M2013.24,1459.66l-452,527.25-26.53,77.89h89.11l518.81-605.14Zm184.36,0L1678.85,2064.8h77.88l518.74-605.14Z"/><path class="cls-4" d="M1602.05,1870.24a2.81,2.81,0,0,1-.94-.16,2.93,2.93,0,0,1-1.83-3.72l112.89-331.16c14.75-43.27,63.95-78.47,109.65-78.47h641.71a2.93,2.93,0,1,1,0,5.85H1821.82c-43.39,0-90.1,33.43-104.11,74.51l-112.89,331.16A2.92,2.92,0,0,1,1602.05,1870.24Z"/><path class="cls-4" d="M2165.05,2072.52H1464.31a2.93,2.93,0,1,1,0-5.86h700.74a2.93,2.93,0,0,1,0,5.86Z"/><path class="cls-4" d="M2466,2072.52H2259a2.93,2.93,0,0,1,0-5.86h207a2.93,2.93,0,0,1,0,5.86Z"/><path class="cls-4" d="M2485.84,2154.64h-2077a2.93,2.93,0,0,1,0-5.86h2077a2.93,2.93,0,0,1,0,5.86Z"/><path class="cls-3" d="M451.56,2069.59H2608.1l-50.46,82-2148.82.11Z"/><path class="cls-5" d="M1871.37,845.57c0-104.22,88.8-188.7,198.33-188.7S2268,741.35,2268,845.57s-88.79,188.71-198.33,188.71S1871.37,949.79,1871.37,845.57Z"/><path class="cls-9" d="M1821.68,805.25c0-104.22,88.79-188.71,198.33-188.71S2218.33,701,2218.33,805.25,2129.54,994,2020,994,1821.68,909.47,1821.68,805.25Z"/><path class="cls-3" d="M645.47,1840.83s6.27-303.47,92.72-423.17,268.28-162.56,437.6-153.56,432.36,24.16,473.62,175.89c18.79,69.15,68.47,213.38,61,319.78-12.34,175.16-96,305.88-96,305.88s-313.41,18.07-435.5,19.23c-95.4.93-277.11-197.92-421.37-246.8C706.18,1820.7,645.47,1840.83,645.47,1840.83Z"/><path class="cls-11" d="M1711.65,1690.32a2.94,2.94,0,0,1-2.89-2.47c-.33-2.09-33.65-210.11-86.16-294.86-32.73-52.84-116.47-81.41-181-96.08a888.19,888.19,0,0,0-134-19.35,2.93,2.93,0,0,1,.3-5.85,893.62,893.62,0,0,1,135,19.49c41.6,9.46,77.49,21.4,106.68,35.5,36.75,17.74,63,39,78,63.2,53.13,85.76,86.64,294.93,87,297a2.93,2.93,0,0,1-2.44,3.35A3.55,3.55,0,0,1,1711.65,1690.32Z"/><path class="cls-3" d="M1334.3,854.2c2.09-9.43-93.33-168.85-233.38-92.6s-72.55,179.78-56.44,201.9c2.89,4,11.52-32.69,27-37C1142.41,906.86,1332.58,861.93,1334.3,854.2Z"/><path class="cls-8" d="M1044.48,963.5s-.69-22.46,16.23-35.06c36.43-27.13,118.78-59.28,214.14-80.5,139.69-31.09,253.83-59.68,263.15-15.82s-151.44,99.69-170.68,109.52c-13.55,6.92-164.23,45.1-254.48,49.24C1075,992.61,1044.48,963.5,1044.48,963.5Z"/><path class="cls-6" d="M1088.91,992.59s-25.66-60-83.86-25.19-43.65,92.14-6.47,113.16,83.26,0,83.26,0v211.78s52.54,56.58,119.63,51.73,110.74-39.61,110.74-39.61l4.85-84.06s104.27,6.47,114.78-60.62-15.3-150.72-15.3-150.72,66-35.1,34.82-79.25c-43.64-61.84-74,21.07-74,21.07s-24.48-63.75-84.29-82.34-229.86,61.67-229.86,61.67Z"/><path class="cls-4" d="M1193.39,1347.29c-32,0-60-13.19-78.46-24.79-21.59-13.58-34.69-27.58-35.24-28.17a2.93,2.93,0,0,1-.78-2V1084.92c-12.39,4.71-49.86,16.23-81.77-1.81-20.44-11.55-33.81-33.51-34.08-56-.29-24.39,14.09-46.5,40.49-62.27,18.31-10.93,35.45-13.92,51-8.89a55.69,55.69,0,0,1,21.76,13.61l-15.74-38.27a2.93,2.93,0,0,1,1.46-3.77c7-3.29,171.76-80.53,232-61.82,31.65,9.84,53.39,32.18,66.06,49.19a174.51,174.51,0,0,1,17.29,28.53c5.44-12,18.9-36.68,38.42-39.27,12.81-1.69,25.6,6.35,38,23.93,8,11.36,10.63,23.18,7.79,35.14-5.93,24.87-33.59,42.57-41.54,47.21,4,13.92,24.26,88.94,14.73,149.76-4.49,28.69-26.46,48.7-63.52,57.86a201.55,201.55,0,0,1-51.39,5.35l-4.69,81.19a3,3,0,0,1-1.1,2.13c-1.81,1.44-45.13,35.37-112.35,40.23C1198.89,1347.2,1196.13,1347.29,1193.39,1347.29Zm-108.62-56.14c6.74,6.84,56,54.36,116.49,50,59.88-4.33,101.19-33.09,108.1-38.2l4.77-82.72a3,3,0,0,1,1-2,2.9,2.9,0,0,1,2.13-.73c.26,0,26,1.5,52.69-5.11,35-8.68,54.86-26.53,59-53,10.28-65.63-15-148.57-15.2-149.4a2.92,2.92,0,0,1,1.42-3.45c.34-.18,34.52-18.66,40.68-44.58,2.43-10.25.12-20.48-6.87-30.39-11-15.66-22-22.89-32.44-21.5-21.84,2.89-36.23,41.5-36.38,41.89a2.91,2.91,0,0,1-2.72,1.92h0a2.92,2.92,0,0,1-2.73-1.88c-.24-.62-24.71-62.65-82.43-80.59-54.13-16.83-203.89,50.54-225.22,60.35l24.6,59.79a2.93,2.93,0,0,1-5.4,2.26c-.17-.38-11-24.89-33.55-32.19-13.82-4.47-29.34-1.66-46.12,8.36-24.53,14.65-37.9,35-37.63,57.17.24,20.4,12.45,40.39,31.1,50.93,35.42,20,80.15.09,80.6-.11a2.93,2.93,0,0,1,4.15,2.66Z"/><path class="cls-2" d="M1102,971.43c-12-23.42,81.67-70.69,96.6-48.74S1119.1,1004.8,1102,971.43Z"/><path class="cls-4" d="M1092.9,1046.58a2.93,2.93,0,0,1-2.71-1.79c-.1-.24-10.21-23.64-32-31.51-22.23-8-49.25-2.75-49.53-2.69a2.93,2.93,0,1,1-1.15-5.75c1.16-.23,28.87-5.68,52.67,2.93,24.23,8.76,35,33.69,35.39,34.75a2.92,2.92,0,0,1-1.56,3.83A2.86,2.86,0,0,1,1092.9,1046.58Z"/><path class="cls-6" d="M701.31,1809.65s-28.53,232.32,5.2,252.25,539.53,5,562.22-1.26,115.5-50.09,115.5-50.09,7.1-46.67-38.63-101.82c-33.15-40-104.17-86.37-177.14-113.6-164.54-61.4-199.26-24.82-199.26-24.82l2.9-68.29s-79.94-1.53-157.44,36.68S701.31,1809.65,701.31,1809.65Z"/><path class="cls-8" d="M1099,1036.74l-10,33.94s46.2,146.35,128.16,178.19,96.08-29.82,96.08-29.82Z"/><path class="cls-2" d="M1223.93,916.27c-5-13.66,75.53-51.8,86.59-30.5s-24,27.59-39.27,33.06S1232.06,938.68,1223.93,916.27Z"/><path class="cls-2" d="M1088.92,991s56.55,282,186.56,273.14,212.82-77.47,196.79-146.93-131.79-212.82-131.79-212.82l22.26,87.27s-21.37,8.9-86.37,29.38-92.61,49.87-92.61,49.87l-61.43-36.06Z"/><path class="cls-11" d="M1374.89,1244.76a2.93,2.93,0,0,1-2.84-2.2,336,336,0,0,0-16.44-46.79c-10.42-23.38-56.34-95.67-56.81-96.4a2.93,2.93,0,0,1,5-3.14c1.9,3,46.62,73.38,57.21,97.15a342.14,342.14,0,0,1,16.77,47.73,2.93,2.93,0,0,1-2.12,3.56A3,3,0,0,1,1374.89,1244.76Z"/><path class="cls-11" d="M1442.2,1202.43a2.93,2.93,0,0,1-2.92-2.73c0-.32-2.21-32.29-8.5-51.16s-30.41-49.39-30.65-49.7a2.93,2.93,0,1,1,4.59-3.64c1,1.29,25,31.76,31.62,51.49s8.7,51.28,8.79,52.62a2.94,2.94,0,0,1-2.73,3.12Z"/><path class="cls-4" d="M756.37,1894.33a2.93,2.93,0,0,1-1.88-5.18,851.41,851.41,0,0,1,94.08-66.07c49.92-30.22,122.58-66.24,185.28-66.24s136,31.73,186.52,58.35a886.76,886.76,0,0,1,95.48,58.23,2.93,2.93,0,0,1-3.44,4.75,880.27,880.27,0,0,0-94.84-57.83c-49.93-26.3-122.33-57.64-183.72-57.64s-132.91,35.54-182.17,65.35a843.18,843.18,0,0,0-93.43,65.6A2.92,2.92,0,0,1,756.37,1894.33Z"/><path class="cls-8" d="M1317.64,926.17s4,30.12-8.76,36.64S1268,947.3,1268,947.3s21.35,9.67,34.16,5S1317.64,926.17,1317.64,926.17Z"/><path class="cls-8" d="M1214.77,964s4,30.12-8.76,36.64-40.91-15.51-40.91-15.51,21.35,9.66,34.16,4.94S1214.77,964,1214.77,964Z"/><path class="cls-6" d="M1259.16,975.61s33,21.85,30.91,39.17S1252,1030,1252,1030Z"/><path class="cls-4" d="M1255.72,1033c-2.19,0-3.64-.08-3.92-.1a2.93,2.93,0,1,1,.34-5.85c9.24.55,33.55-.67,35-12.62,1.57-12.71-20.85-30.56-29.61-36.36a2.93,2.93,0,0,1,3.23-4.89c3.53,2.34,34.48,23.39,32.2,42C1291,1031.38,1265.67,1033,1255.72,1033Z"/><path class="cls-6" d="M1393.52,969.82s12.39-38,37.37-40Z"/><path class="cls-4" d="M1393.52,972.75a2.94,2.94,0,0,1-2.78-3.84c.53-1.63,13.29-39.83,39.92-42a2.93,2.93,0,0,1,.47,5.84c-22.74,1.83-34.71,37.59-34.82,38A3,3,0,0,1,1393.52,972.75Z"/><path class="cls-11" d="M1278.77,847.71a2.93,2.93,0,0,1-2.4-1.24c-.17-.24-18-24.88-63.7-51.59s-94.92-30.32-95.41-30.35a2.93,2.93,0,1,1,.39-5.85c.5,0,51,3.69,98,31.14s64.79,52.22,65.53,53.26a2.93,2.93,0,0,1-.69,4.09A3,3,0,0,1,1278.77,847.71Z"/><path class="cls-4" d="M1286.91,1265.77c-19.57,0-37.52-3.45-54.06-10.33-36.58-15.23-61.16-45.47-80.37-73-40.65-58.33-65.41-185.5-66.44-190.89a2.93,2.93,0,1,1,5.75-1.1c.26,1.31,25.56,131.33,65.49,188.64,39.23,56.28,91.87,112,220.84,60.49a2.93,2.93,0,0,1,2.18,5.44C1345.57,1258.85,1314.62,1265.77,1286.91,1265.77Z"/><path class="cls-11" d="M1410.84,1225.18a2.93,2.93,0,0,1-2.91-2.59c0-.26-3.07-25.92-7.25-39.83-4.12-13.72-23.13-41.52-23.33-41.8a2.93,2.93,0,0,1,4.84-3.31c.8,1.17,19.72,28.83,24.11,43.42,4.32,14.4,7.32,39.76,7.45,40.84a2.93,2.93,0,0,1-2.57,3.25Z"/><path class="cls-9" d="M1380.49,2066.2l7.12-27,209.56-3.78,10.89,32.88Z"/><path class="cls-6" d="M1335,1962.31s111.8-173,150.89-151c10.9,6.14,36.47,12.09,51.06,43,36.07,76.39,62.79,211,42,208.2-29.19-3.92-70.87-109.68-70.87-109.68s38.54,145.6,7,119-69.32-83.75-69.32-83.75-14.06,29.19-39.56,49.15c-12.91,10.11-28.75,17.86-47.19,18.25-54.87,1.18-149.82-9-149.82-9Z"/><path class="cls-4" d="M1024.72,1827.33a3,3,0,0,1-1.58-.47,2.93,2.93,0,0,1-.87-4c1.25-1.94,31.19-47.67,77.19-65.77a2.93,2.93,0,0,1,2.15,5.46c-44.22,17.39-74.13,63-74.42,63.49A2.94,2.94,0,0,1,1024.72,1827.33Z"/><path class="cls-4" d="M1078.14,1827.33a2.94,2.94,0,0,1-2.46-4.52c1.26-1.94,31.2-47.67,77.2-65.77a2.93,2.93,0,0,1,2.15,5.46c-44.22,17.39-74.13,63-74.42,63.49A3,3,0,0,1,1078.14,1827.33Z"/><path class="cls-4" d="M1122.25,1843a2.93,2.93,0,0,1-2.46-4.52c1.26-1.94,31.2-47.67,77.2-65.76a2.93,2.93,0,0,1,2.15,5.45c-44.22,17.39-74.13,63-74.43,63.49A2.92,2.92,0,0,1,1122.25,1843Z"/><path class="cls-4" d="M1308,1077.8a2.93,2.93,0,0,1-.34-5.84c.36,0,37-4.68,42.93-28.39a2.93,2.93,0,1,1,5.68,1.42c-6.91,27.64-46.25,32.59-47.93,32.79Z"/><path class="cls-5" d="M1096.36,1673.8v-16.87l95.79-40.45v19.6l-71.47,29.29,71.47,29.52v19.85Z"/><path class="cls-5" d="M1212,1733.1l44.17-156.82H1275l-44.17,156.82Z"/><path class="cls-5" d="M1390.66,1673.8l-95.78,40.94v-19.85l71.47-29.52-71.47-29.29v-19.6l95.78,40.45Z"/><path class="cls-6" d="M1529.82,1733.1s120.24-30.23,149.61-16-133.64,361.15-133.64,361.15l6.33-182.27Z"/><path class="cls-4" d="M1520.18,2075.86l-.73,0c-4.34-.32-17.55-1.28-61.63-74-21.45-35.42-40-71.06-40.18-71.42a2.93,2.93,0,0,1,5.2-2.7c.18.36,18.65,35.85,40,71.1,38.36,63.33,52.66,70.91,57,71.23a2.81,2.81,0,0,0,2.74-1.39c6.38-8.85,11.12-41-28.91-156.92l-.36-1a2.93,2.93,0,0,1,5.54-1.92l.36,1.06c31.18,90.31,40.65,144.9,28.12,162.26A8.62,8.62,0,0,1,1520.18,2075.86Z"/><path class="cls-4" d="M1565.22,2066.08H1565c-5-.26-13.8-4.84-31.26-41.29-9.31-19.44-16.75-39-16.82-39.23a2.93,2.93,0,1,1,5.48-2.07c.07.19,7.43,19.58,16.64,38.8,16.67,34.8,24.33,37.84,26.28,37.94,1.63,0,8.68-3.23,13.14-8,1.57-1.67,3.41-4.18,3.3-6.7-2.25-49.3-30.71-159.76-31-160.87a2.93,2.93,0,0,1,5.67-1.47c.29,1.12,28.9,112.17,31.17,162.08.17,3.86-1.75,7.9-5.57,11.68C1577.17,2061.75,1569.15,2066.08,1565.22,2066.08Z"/><path class="cls-9" d="M2442.43,2071.89l-907.71-7.11,180.22-528.63c14.41-42.25,62.25-76.49,106.88-76.49h746.09c44.63,0,69.12,34.24,54.74,76.49Z"/><path class="cls-4" d="M2442.43,2067.71a2.83,2.83,0,0,1-.95-.16,2.92,2.92,0,0,1-1.83-3.71l44.73-131.2a2.93,2.93,0,1,1,5.54,1.89l-44.72,131.2A2.94,2.94,0,0,1,2442.43,2067.71Z"/><path class="cls-4" d="M2509.9,1869.8a2.81,2.81,0,0,1-.94-.16,2.93,2.93,0,0,1-1.83-3.72l60.73-178.15a2.93,2.93,0,0,1,5.54,1.89l-60.72,178.16A3,3,0,0,1,2509.9,1869.8Z"/><path class="cls-6" d="M2060.14,1782.52c15.68-32.06,49.15-44.23,74.75-27.21s33.68,56.8,18,88.86-49.15,44.22-74.77,27.2S2044.46,1814.56,2060.14,1782.52Z"/><path class="cls-6" d="M2184.53,1720.72c6.92-14.13,21.68-19.5,33-12s14.84,25.06,7.93,39.19-21.68,19.51-33,12S2177.62,1734.86,2184.53,1720.72Z"/><path class="cls-5" d="M2013.24,1459.66l-452,527.25-26.53,77.89h89.11l518.81-605.14Zm184.36,0L1678.85,2064.8h77.88l518.74-605.14Z"/><path class="cls-4" d="M1602.05,1870.24a2.81,2.81,0,0,1-.94-.16,2.93,2.93,0,0,1-1.83-3.72l112.89-331.16c14.75-43.27,63.95-78.47,109.65-78.47h641.71a2.93,2.93,0,1,1,0,5.85H1821.82c-43.39,0-90.1,33.43-104.11,74.51l-112.89,331.16A2.92,2.92,0,0,1,1602.05,1870.24Z"/><path class="cls-4" d="M2165.05,2072.52H1464.31a2.93,2.93,0,1,1,0-5.86h700.74a2.93,2.93,0,0,1,0,5.86Z"/><path class="cls-4" d="M2466,2072.52H2259a2.93,2.93,0,0,1,0-5.86h207a2.93,2.93,0,0,1,0,5.86Z"/><path class="cls-3" d="M146.24,2069.59H2793l-195.61,82L0,2151.71Z"/><path class="cls-4" d="M2608.1,2072.52H451.56a2.93,2.93,0,1,1,0-5.86H2608.1a2.93,2.93,0,1,1,0,5.86Z"/><path class="cls-4" d="M2485.84,2154.64H3.94a2.93,2.93,0,0,1,0-5.86h2481.9a2.93,2.93,0,0,1,0,5.86Z"/><path class="cls-4" d="M1492.65,2123.83a2.93,2.93,0,0,1,0-5.86l950.56-.36a2.93,2.93,0,0,1,0,5.86Z"/><path class="cls-11" d="M1190.88,1376.93a351.31,351.31,0,0,1-35.11-1.58,2.93,2.93,0,0,1,.66-5.83c.43,0,44.16,4.84,90.41-2.66,45.84-7.44,93.1-48,93.57-48.44a2.93,2.93,0,0,1,3.84,4.42c-2,1.72-49,42.1-96.47,49.8A361.62,361.62,0,0,1,1190.88,1376.93Z"/><path class="cls-4" d="M648.53,1839.84h0a2.93,2.93,0,0,1-2.88-3,1650.54,1650.54,0,0,1,14.33-176c7.58-55.11,17.59-103.65,29.76-144.27,15.27-51,34-89.63,55.74-114.87,62.66-72.83,148.21-106.44,208.94-121.82,65.38-16.55,120.55-16.58,125.38-14a2.93,2.93,0,0,1-2.61,5.24c-4.39-1.34-56-2.35-123.31,15-59.29,15.26-142.8,48.37-204,119.45-38.07,44.25-67.16,132.79-84.13,256.06A1642.64,1642.64,0,0,0,651.46,1837,2.93,2.93,0,0,1,648.53,1839.84ZM1077,1271.05l.09,0Z"/><path class="cls-4" d="M1529.82,1736a2.93,2.93,0,0,1-.81-5.75c.7-.2,70.18-20,125.64-17.56a2.93,2.93,0,1,1-.26,5.85c-54.5-2.4-123.07,17.15-123.76,17.34A2.84,2.84,0,0,1,1529.82,1736Z"/><path class="cls-4" d="M1036.53,954.87a2.94,2.94,0,0,1-.72-.08c-5.2-1.15-18.93-25.11-23.32-53.57-3.65-23.63-.66-46.16,8.88-67,12.2-26.62,35-49.71,67.75-68.64a2.93,2.93,0,0,1,2.93,5.08c-47.88,27.66-73.14,63.43-75.07,106.29-1.7,37.68,16.09,67.78,20.26,72a3,3,0,0,1,1.15.46,2.93,2.93,0,0,1,.82,4.06A3.2,3.2,0,0,1,1036.53,954.87Z"/><path class="cls-5" d="M2337.76,1142.05a101.77,101.77,0,1,1,101.76,101.77A101.75,101.75,0,0,1,2337.76,1142.05Z"/><path class="cls-8" d="M693.31,2001.35s34.45,45.12,95.08,53.54,364.22,12.38,364.22,12.38-429.92,4.37-443,.09S692.13,2018.24,693.31,2001.35Z"/><path class="cls-4" d="M2793.07,2072.52H223.71a2.93,2.93,0,1,1,0-5.86H2793.07a2.93,2.93,0,0,1,0,5.86Z"/><path class="cls-4" d="M1492.65,2123.83a2.93,2.93,0,0,1,0-5.86l950.56-.36a2.93,2.93,0,0,1,0,5.86Z"/><path class="cls-11" d="M1190.88,1376.93a351.31,351.31,0,0,1-35.11-1.58,2.93,2.93,0,0,1,.66-5.83c.43,0,44.16,4.84,90.41-2.66,45.84-7.44,93.1-48,93.57-48.44a2.93,2.93,0,0,1,3.84,4.42c-2,1.72-49,42.1-96.47,49.8A361.62,361.62,0,0,1,1190.88,1376.93Z"/><path class="cls-4" d="M648.53,1839.84h0a2.93,2.93,0,0,1-2.88-3,1650.54,1650.54,0,0,1,14.33-176c7.58-55.11,17.59-103.65,29.76-144.27,15.27-51,34-89.63,55.74-114.87,62.66-72.83,148.21-106.44,208.94-121.82,65.38-16.55,120.55-16.58,125.38-14a2.93,2.93,0,0,1-2.61,5.24c-4.39-1.34-56-2.35-123.31,15-59.29,15.26-142.8,48.37-204,119.45-38.07,44.25-67.16,132.79-84.13,256.06A1642.64,1642.64,0,0,0,651.46,1837,2.93,2.93,0,0,1,648.53,1839.84ZM1077,1271.05l.09,0Z"/><path class="cls-4" d="M1988.67,992.13h-86c-8.32,0-15.09-6.5-15.09-14.5v-9.34c0-8,6.77-14.5,15.09-14.5h86c8.32,0,15.09,6.51,15.09,14.5v9.34C2003.76,985.63,1997,992.13,1988.67,992.13Zm-86-32.48c-5.09,0-9.23,3.88-9.23,8.64v9.34c0,4.76,4.14,8.64,9.23,8.64h86c5.09,0,9.23-3.88,9.23-8.64v-9.34c0-4.76-4.14-8.64-9.23-8.64Z"/><path class="cls-4" d="M1988.67,1037.21h-86c-8.32,0-15.09-6.51-15.09-14.5v-9.34c0-8,6.77-14.5,15.09-14.5h86c8.32,0,15.09,6.5,15.09,14.5v9.34C2003.76,1030.7,1997,1037.21,1988.67,1037.21Zm-86-32.48c-5.09,0-9.23,3.87-9.23,8.64v9.34c0,4.76,4.14,8.64,9.23,8.64h86c5.09,0,9.23-3.88,9.23-8.64v-9.34c0-4.77-4.14-8.64-9.23-8.64Z"/><path class="cls-4" d="M1971.18,934.64h-51.09c-16.69,0-30.27-13-30.27-28.95v-63a126.05,126.05,0,0,1-50.74-42.83,115.42,115.42,0,0,1-20.33-65.37c0-66.66,56.92-120.89,126.89-120.89s127,54.23,127,120.89a115.27,115.27,0,0,1-20.38,65.38,126.36,126.36,0,0,1-50.8,42.82v63C2001.45,921.65,1987.87,934.64,1971.18,934.64Zm-25.54-315.17c-66.74,0-121,51.6-121,115,0,44.62,26.57,84.34,69.34,103.65a2.94,2.94,0,0,1,1.73,2.67v64.87c0,12.73,11,23.09,24.41,23.09h51.09c13.46,0,24.42-10.36,24.42-23.09V840.82a2.93,2.93,0,0,1,1.72-2.67c42.19-19,69.45-59.72,69.45-103.65C2066.77,671.07,2012.43,619.47,1945.64,619.47Z"/><path class="cls-4" d="M1529.82,1736a2.93,2.93,0,0,1-.81-5.75c.7-.2,70.18-20,125.64-17.56a2.93,2.93,0,1,1-.26,5.85c-54.5-2.4-123.07,17.15-123.76,17.34A2.84,2.84,0,0,1,1529.82,1736Z"/><path class="cls-4" d="M1036.53,954.87a2.94,2.94,0,0,1-.72-.08c-5.2-1.15-18.93-25.11-23.32-53.57-3.65-23.63-.66-46.16,8.88-67,12.2-26.62,35-49.71,67.75-68.64a2.93,2.93,0,0,1,2.93,5.08c-47.88,27.66-73.14,63.43-75.07,106.29-1.7,37.68,16.09,67.78,20.26,72a3,3,0,0,1,1.15.46,2.93,2.93,0,0,1,.82,4.06A3.2,3.2,0,0,1,1036.53,954.87Z"/><path class="cls-5" d="M2337.76,1142.05a101.77,101.77,0,1,1,101.76,101.77A101.75,101.75,0,0,1,2337.76,1142.05Z"/><path class="cls-8" d="M693.31,2001.35s34.45,45.12,95.08,53.54,364.22,12.38,364.22,12.38-429.92,4.37-443,.09S692.13,2018.24,693.31,2001.35Z"/><path class="cls-11" d="M2345.67,1424.44l-.39,0a2.94,2.94,0,0,1-2.52-3.29c8.81-66.53.75-129.8-23.94-188a347.49,347.49,0,0,0-77.51-113,2.93,2.93,0,1,1,4.1-4.19,353.4,353.4,0,0,1,78.8,114.92c25.11,59.2,33.31,123.49,24.36,191.08A2.92,2.92,0,0,1,2345.67,1424.44Z"/><path class="cls-4" d="M715.17,2046.32a16.46,16.46,0,0,1-8.27-2.23c-8.37-4.84-13.64-16.84-15.65-35.66-4.65-43.5,7.42-197.56,7.94-204.1a2.93,2.93,0,1,1,5.84.47c-.13,1.59-12.54,160-7.95,203,2.23,20.88,8.11,28.46,12.65,31.14a10.38,10.38,0,0,0,8.9.93,2.93,2.93,0,0,1,2.35,5.37A15.57,15.57,0,0,1,715.17,2046.32Z"/></g></g></g></svg>