<svg width="2379" height="2379" viewBox="0 0 2379 2379" fill="none" xmlns="http://www.w3.org/2000/svg">
<path fill-rule="evenodd" clip-rule="evenodd" d="M299.657 402.869C114.43 612.254 2 887.533 2 1189.07C2 1844.67 533.47 2376.14 1189.07 2376.14C1844.67 2376.14 2376.14 1844.67 2376.14 1189.07C2376.14 762.16 2150.78 387.884 1812.54 178.717C1810.33 180.46 1807.54 181.5 1804.5 181.5C1797.32 181.5 1791.5 175.68 1791.5 168.5C1791.5 167.691 1791.57 166.9 1791.72 166.132C1615.07 61.8407 1409.06 2 1189.07 2C844.322 2 533.897 148.962 317.028 383.656C319.183 385.976 320.5 389.084 320.5 392.5C320.5 399.68 314.68 405.5 307.5 405.5C304.554 405.5 301.837 404.52 299.657 402.869ZM2378.14 1189.07C2378.14 761.64 2152.61 386.883 1814.06 177.307C1816.2 174.991 1817.5 171.898 1817.5 168.5C1817.5 161.32 1811.68 155.5 1804.5 155.5C1798.85 155.5 1794.05 159.099 1792.25 164.127C1615.42 59.8339 1409.23 0 1189.07 0C843.741 0 532.794 147.21 315.559 382.299C313.344 380.546 310.544 379.5 307.5 379.5C300.32 379.5 294.5 385.32 294.5 392.5C294.5 396.014 295.894 399.203 298.16 401.543C112.62 611.281 0 887.024 0 1189.07C0 1845.78 532.365 2378.14 1189.07 2378.14C1845.78 2378.14 2378.14 1845.78 2378.14 1189.07ZM280.236 626.07C468.775 322.361 805.306 120.128 1189.07 120.128C1779.43 120.128 2258.01 598.71 2258.01 1189.07C2258.01 1779.43 1779.43 2258.01 1189.07 2258.01C598.71 2258.01 120.128 1779.43 120.128 1189.07C120.128 987.067 176.161 798.15 273.532 637.015C274.293 637.328 275.126 637.5 276 637.5C279.59 637.5 282.5 634.59 282.5 631C282.5 629.028 281.622 627.262 280.236 626.07ZM278.537 625.014C467.43 320.738 804.589 118.128 1189.07 118.128C1780.54 118.128 2260.01 597.606 2260.01 1189.07C2260.01 1780.54 1780.54 2260.01 1189.07 2260.01C597.606 2260.01 118.128 1780.54 118.128 1189.07C118.128 986.688 174.267 797.416 271.821 635.979C270.402 634.786 269.5 632.998 269.5 631C269.5 627.41 272.41 624.5 276 624.5C276.9 624.5 277.757 624.683 278.537 625.014ZM1189.07 239.614C1121.93 239.614 1056.42 246.582 993.227 259.835C993.406 260.695 993.5 261.587 993.5 262.5C993.5 269.68 987.68 275.5 980.5 275.5C974.361 275.5 969.215 271.244 967.853 265.522C550.178 365.2 239.614 740.867 239.614 1189.07C239.614 1713.44 664.701 2138.53 1189.07 2138.53C1713.44 2138.53 2138.53 1713.44 2138.53 1189.07C2138.53 829.151 1938.26 516.006 1643.08 354.992C1642.17 355.922 1640.9 356.5 1639.5 356.5C1636.74 356.5 1634.5 354.261 1634.5 351.5C1634.5 351.133 1634.54 350.775 1634.61 350.431C1501.75 279.698 1350.09 239.614 1189.07 239.614ZM1635.43 348.598C1502.31 277.757 1350.38 237.614 1189.07 237.614C1121.74 237.614 1056.04 244.608 992.666 257.909C990.811 252.995 986.063 249.5 980.5 249.5C973.32 249.5 967.5 255.32 967.5 262.5C967.5 262.85 967.514 263.197 967.541 263.54C548.909 363.372 237.614 739.868 237.614 1189.07C237.614 1714.55 663.596 2140.53 1189.07 2140.53C1714.55 2140.53 2140.53 1714.55 2140.53 1189.07C2140.53 828.446 1939.9 514.68 1644.16 353.306C1644.38 352.746 1644.5 352.137 1644.5 351.5C1644.5 348.739 1642.26 346.5 1639.5 346.5C1637.82 346.5 1636.33 347.328 1635.43 348.598ZM357.742 1189.07C357.742 925.909 480.021 691.306 670.861 538.98C672.05 540.513 673.91 541.5 676 541.5C679.59 541.5 682.5 538.59 682.5 535C682.5 533.469 681.97 532.061 681.084 530.95C821.566 422.356 997.773 357.742 1189.07 357.742C1421.23 357.742 1631.16 452.905 1781.98 606.351C1781.67 607.002 1781.5 607.731 1781.5 608.5C1781.5 611.261 1783.74 613.5 1786.5 613.5C1787.22 613.5 1787.9 613.348 1788.52 613.076C1918.65 748.469 2003.35 927.85 2018.1 1126.7C2016.02 1127.31 2014.5 1129.23 2014.5 1131.5C2014.5 1134.01 2016.35 1136.09 2018.76 1136.45C2019.85 1153.85 2020.4 1171.4 2020.4 1189.07C2020.4 1648.2 1648.2 2020.4 1189.07 2020.4C729.941 2020.4 357.742 1648.2 357.742 1189.07ZM1790.16 611.901C1920.49 747.592 2005.31 927.316 2020.09 1126.53C2022.57 1126.83 2024.5 1128.94 2024.5 1131.5C2024.5 1133.83 2022.91 1135.78 2020.76 1136.34C2021.85 1153.78 2022.4 1171.36 2022.4 1189.07C2022.4 1649.31 1649.31 2022.4 1189.07 2022.4C728.836 2022.4 355.742 1649.31 355.742 1189.07C355.742 925.152 478.43 689.889 669.883 537.202C669.635 536.515 669.5 535.773 669.5 535C669.5 531.41 672.41 528.5 676 528.5C677.326 528.5 678.559 528.897 679.588 529.579C820.452 420.596 997.188 355.742 1189.07 355.742C1421.68 355.742 1632.03 451.048 1783.2 604.74C1784.08 603.968 1785.24 603.5 1786.5 603.5C1789.26 603.5 1791.5 605.739 1791.5 608.5C1791.5 609.814 1790.99 611.009 1790.16 611.901ZM578.156 820.847C513.231 928.333 475.871 1054.34 475.871 1189.07C475.871 1582.96 795.181 1902.27 1189.07 1902.27C1582.96 1902.27 1902.27 1582.96 1902.27 1189.07C1902.27 795.181 1582.96 475.871 1189.07 475.871C934.543 475.871 711.156 609.203 584.945 809.834C586.498 811.022 587.5 812.894 587.5 815C587.5 818.59 584.59 821.5 581 821.5C579.98 821.5 579.015 821.265 578.156 820.847ZM576.511 819.701C511.362 927.513 473.871 1053.91 473.871 1189.07C473.871 1584.07 794.077 1904.27 1189.07 1904.27C1584.07 1904.27 1904.27 1584.07 1904.27 1189.07C1904.27 794.077 1584.07 473.871 1189.07 473.871C933.784 473.871 709.737 607.624 583.185 808.876C582.502 808.633 581.766 808.5 581 808.5C577.41 808.5 574.5 811.41 574.5 815C574.5 816.849 575.272 818.518 576.511 819.701ZM595.357 1189.07C595.357 861.172 861.172 595.357 1189.07 595.357C1516.97 595.357 1782.79 861.172 1782.79 1189.07C1782.79 1516.97 1516.97 1782.79 1189.07 1782.79C861.172 1782.79 595.357 1516.97 595.357 1189.07ZM1189.07 593.357C860.067 593.357 593.357 860.067 593.357 1189.07C593.357 1518.08 860.067 1784.79 1189.07 1784.79C1518.08 1784.79 1784.79 1518.08 1784.79 1189.07C1784.79 860.067 1518.08 593.357 1189.07 593.357ZM1189.07 713.485C926.412 713.485 713.485 926.412 713.485 1189.07C713.485 1451.73 926.412 1664.66 1189.07 1664.66C1451.61 1664.66 1664.46 1451.93 1664.66 1189.43C1657.83 1188.76 1652.5 1183 1652.5 1176C1652.5 1169.25 1657.46 1163.65 1663.94 1162.66C1650.98 925.991 1464.99 735.407 1230.31 715.248C1229.24 721.634 1223.69 726.5 1217 726.5C1209.78 726.5 1203.88 720.831 1203.52 713.7C1198.72 713.557 1193.9 713.485 1189.07 713.485ZM1665.93 1162.5C1652.9 924.864 1466.14 733.504 1230.5 713.257C1230.5 713.171 1230.5 713.086 1230.5 713C1230.5 705.544 1224.46 699.5 1217 699.5C1209.98 699.5 1204.22 704.854 1203.56 711.701C1198.75 711.557 1193.92 711.485 1189.07 711.485C925.307 711.485 711.485 925.307 711.485 1189.07C711.485 1452.83 925.307 1666.66 1189.07 1666.66C1452.7 1666.66 1666.43 1453.06 1666.66 1189.48C1673.81 1189.14 1679.5 1183.24 1679.5 1176C1679.5 1168.54 1673.46 1162.5 1666 1162.5L1665.93 1162.5ZM899.005 980.129C963.921 890.167 1069.66 831.613 1189.07 831.613C1386.49 831.613 1546.53 991.653 1546.53 1189.07C1546.53 1386.49 1386.49 1546.53 1189.07 1546.53C991.653 1546.53 831.613 1386.49 831.613 1189.07C831.613 1117.16 852.848 1050.21 889.39 994.142C890.718 995.001 892.301 995.5 894 995.5C898.694 995.5 902.5 991.694 902.5 987C902.5 984.177 901.123 981.675 899.005 980.129ZM897.25 979.143C962.518 888.574 1068.91 829.613 1189.07 829.613C1387.59 829.613 1548.53 990.548 1548.53 1189.07C1548.53 1387.59 1387.59 1548.53 1189.07 1548.53C990.548 1548.53 829.613 1387.59 829.613 1189.07C829.613 1116.67 851.016 1049.27 887.84 992.857C886.39 991.333 885.5 989.27 885.5 987C885.5 982.306 889.306 978.5 894 978.5C895.151 978.5 896.249 978.729 897.25 979.143ZM951.099 1189.07C951.099 1057.64 1057.64 951.099 1189.07 951.099C1201.46 951.099 1213.63 952.046 1225.51 953.872C1225.7 956.46 1227.86 958.5 1230.5 958.5C1232.53 958.5 1234.29 957.285 1235.07 955.54C1344.48 976.967 1427.04 1073.38 1427.04 1189.07C1427.04 1320.5 1320.5 1427.04 1189.07 1427.04C1057.64 1427.04 951.099 1320.5 951.099 1189.07ZM1189.07 949.099C1201.55 949.099 1213.8 950.051 1225.77 951.887C1226.44 949.917 1228.3 948.5 1230.5 948.5C1233.26 948.5 1235.5 950.739 1235.5 953.5C1235.5 953.529 1235.5 953.558 1235.5 953.587C1345.81 975.212 1429.04 1072.42 1429.04 1189.07C1429.04 1321.6 1321.6 1429.04 1189.07 1429.04C1056.54 1429.04 949.099 1321.6 949.099 1189.07C949.099 1056.54 1056.54 949.099 1189.07 949.099Z" fill="#494949"/>
</svg>
