<svg xmlns="http://www.w3.org/2000/svg" viewBox="0 0 500 500"><g id="freepik--background-complete--inject-2"><path d="M456.61,394.94c-.55-5.15-2.93-9.75-5.25-14.18Q441,361,430.58,341.19c-10-19.11-20.31-38.54-34.91-53.16-11.78-11.79-25.93-20-38.23-31s-23.17-26.43-24.1-44.46c-.42-8.3,1.29-16.58,1-24.89-.59-19.62-11.82-36.35-22.52-51.55l-13.52-19.19c-6.42-9.12-13.6-18.79-23.51-21.35-9-2.33-18.23,1.79-26.77,5.83-12.58,5.95-25.47,12.13-35.29,23A102.61,102.61,0,0,0,201.15,141a330.78,330.78,0,0,0-32.21,73.9c-2.16,7.23-4.11,14.83-3.24,22.4.44,3.84,1.56,8,.08,11.42a14.34,14.34,0,0,1-4.08,4.85c-16,14.22-29.31,32.11-42.47,49.86l-14.94,20.17c-10.56,14.24-21.15,28.54-30,44.27-6,10.63-11.18,22.1-13.24,34.55s-1,32.63,5.33,43H424.45c6.46-2.71,14.22-8.24,19.75-13.21,6.08-5.46,8.61-14.58,10.7-23.16C456,404.43,457.12,399.68,456.61,394.94Z" style="fill:#ebebeb"></path><path d="M88.41,294.29a30.43,30.43,0,0,0,5.48-8.1c2.47-6.56,2.42-12.81-2.24-18.7A21.08,21.08,0,0,0,87,263.16h0l-.22-.14c-.44-.29-.88-.58-1.34-.85v0a20.33,20.33,0,0,0-5.84-2.28c-7.16-1.52-12.44,1.38-16.79,6.76a30.75,30.75,0,0,0-4.23,8.88c-.31,1.28-.34,2.82-.6,3s-1.55,0-3.11,3.25c-1.21,2.47,2.4,5.68,4.11,7a1.21,1.21,0,0,1,.32,1.54l-2.57,4.54a1.23,1.23,0,0,0,.43,1.62l.55.33a1.09,1.09,0,0,0,1.54-.34l.63-1a1.11,1.11,0,0,1,1.55-.34,1.21,1.21,0,0,1,.43,1.62L61,298.19a1.23,1.23,0,0,0,.44,1.62l.53.33a1.1,1.1,0,0,0,1.56-.37l.78-1.38a1.1,1.1,0,0,1,1.56-.37l.16.1h0a1.21,1.21,0,0,1,.42,1.62l-.78,1.36a1.23,1.23,0,0,0,.42,1.63l.53.33a1.09,1.09,0,0,0,1.56-.36l.85-1.46a1.09,1.09,0,0,1,1.56-.36,1.22,1.22,0,0,1,.44,1.59l-.57,1.07a1.21,1.21,0,0,0,.44,1.59l.53.35a1.11,1.11,0,0,0,1.57-.37l2.61-4.51a1.08,1.08,0,0,1,1.44-.43c1.93.95,6.33,2.77,7.84.49,2-3,1.24-3.92,1.27-4.41C86.2,295.93,87.48,295.18,88.41,294.29Z" style="fill:#ebebeb"></path><path d="M72.69,280.83a5.15,5.15,0,0,1-7.21,2.09,5.71,5.71,0,0,1-2.38-7.46,5.18,5.18,0,0,1,7.22-2.09A5.71,5.71,0,0,1,72.69,280.83Z" style="fill:#fafafa"></path><path d="M87.86,289.33a5.16,5.16,0,0,1-7.21,2.09A5.7,5.7,0,0,1,78.28,284a5.15,5.15,0,0,1,7.21-2.09A5.7,5.7,0,0,1,87.86,289.33Z" style="fill:#fafafa"></path><path d="M73.49,285.76c-.16,0-4.51,1.3-5.8,4A2.45,2.45,0,0,0,68.82,293a.84.84,0,0,0,1.11-.2,1.47,1.47,0,0,0,2,1.33C75,293.49,73.49,285.76,73.49,285.76Z" style="fill:#fafafa"></path><path d="M449.09,76.09c.17-5.54-2.21-12-2.21-12-3.53-8-9-13.49-18.31-14.65a26.33,26.33,0,0,0-7.93.23h0l-.31.07c-.65.12-1.3.25-1.93.42h0a25.39,25.39,0,0,0-7.17,3.09c-7.68,4.9-9.84,12.08-9,20.66,0,0,1.1,6.72,4,11.58.84,1.41,2.16,2.79,2.07,3.18-.13.57-1.33,1.39.08,5.6,1.09,3.24,7.1,2.94,9.78,2.63A1.52,1.52,0,0,1,419.79,98l1.68,6.27a1.52,1.52,0,0,0,1.8,1.06l.77-.17a1.38,1.38,0,0,0,1.07-1.66l-.34-1.47a1.38,1.38,0,0,1,1.07-1.66,1.52,1.52,0,0,1,1.8,1.06l.54,2a1.52,1.52,0,0,0,1.8,1.06l.76-.17a1.37,1.37,0,0,0,1.06-1.7l-.51-1.89a1.38,1.38,0,0,1,1.07-1.7l.22,0h0a1.52,1.52,0,0,1,1.79,1.07l.49,1.9a1.53,1.53,0,0,0,1.8,1.07l.76-.16a1.38,1.38,0,0,0,1.07-1.7l-.52-2a1.37,1.37,0,0,1,1.07-1.69,1.52,1.52,0,0,1,1.78,1l.43,1.46a1.52,1.52,0,0,0,1.78,1l.77-.17a1.37,1.37,0,0,0,1.08-1.69l-1.63-6.28a1.36,1.36,0,0,1,.91-1.65c2.54-.84,8-3.07,7.38-6.41-.84-4.33-2.31-4.56-2.72-5S449.05,77.7,449.09,76.09Z" style="fill:#ebebeb"></path><path d="M423.39,77.87A6.43,6.43,0,0,1,418.81,86a7.09,7.09,0,0,1-8.62-4.55,6.42,6.42,0,0,1,4.57-8.15A7.11,7.11,0,0,1,423.39,77.87Z" style="fill:#fafafa"></path><ellipse cx="437.68" cy="73.97" rx="6.59" ry="6.92" transform="matrix(0.21, -0.98, 0.98, 0.21, 272.46, 485.96)" style="fill:#fafafa"></ellipse><path d="M428.4,81.56c-.18.1-2.87,5.08-1.66,8.59A3,3,0,0,0,430.56,92a1,1,0,0,0,.81-1.15,1.84,1.84,0,0,0,2.92-.55C436.51,87.08,428.4,81.56,428.4,81.56Z" style="fill:#fafafa"></path></g><g id="freepik--Screens--inject-2"><rect x="40.86" y="57.55" width="232.53" height="155.11" style="fill:#fafafa"></rect><path d="M273.39,212.65c0-1.7-.08-60.61-.2-155.1l.2.2-232.51.06h0l.26-.26c0,55.24,0,107.77,0,155.1l-.24-.24,232.53.24-232.53.24h-.24v-.24c0-47.33,0-99.86,0-155.1v-.26h.28l232.51.05h.21v.21C273.47,152,273.4,211,273.39,212.65Z" style="fill:#263238"></path><path d="M83.31,76.14c0,.13-4.65.24-10.39.24s-10.38-.11-10.38-.24,4.65-.23,10.38-.23S83.31,76,83.31,76.14Z" style="fill:#7E57C2"></path><path d="M72.92,76.52c-2.77,0-5.38,0-7.35-.07-3.18-.07-3.18-.12-3.18-.31s0-.23,3.18-.3c2,0,4.58-.07,7.35-.07s5.39,0,7.35.07c3.19.07,3.19.12,3.19.3s0,.24-3.19.31C78.31,76.5,75.7,76.52,72.92,76.52Zm-8.11-.38c1.81.06,4.63.09,8.11.09s6.31,0,8.11-.09c-1.8,0-4.62-.08-8.11-.08S66.62,76.09,64.81,76.14Z" style="fill:#7E57C2"></path><path d="M83.31,195.33c0,.13-4.65.23-10.39.23s-10.38-.1-10.38-.23,4.65-.23,10.38-.23S83.31,195.2,83.31,195.33Z" style="fill:#7E57C2"></path><path d="M72.92,195.71c-2.77,0-5.38,0-7.35-.07-3.18-.07-3.18-.13-3.18-.31s0-.24,3.18-.31c2,0,4.58-.07,7.35-.07s5.39,0,7.35.07c3.19.07,3.19.13,3.19.31s0,.24-3.19.31C78.31,195.68,75.7,195.71,72.92,195.71Zm-8.11-.38c1.81,0,4.63.09,8.11.09s6.31,0,8.12-.09c-1.81-.05-4.63-.09-8.12-.09S66.62,195.28,64.81,195.33Z" style="fill:#7E57C2"></path><path d="M112.25,93.6c0,.13-8.71.23-19.44.23s-19.44-.1-19.44-.23,8.7-.23,19.44-.23S112.25,93.47,112.25,93.6Z" style="fill:#7E57C2"></path><path d="M92.81,94c-5.19,0-10.08,0-13.75-.07-5.83-.07-5.83-.11-5.83-.31s0-.24,5.83-.31c3.68,0,8.56-.07,13.75-.07s10.07,0,13.75.07c5.83.07,5.83.11,5.83.31s0,.24-5.83.31C102.88,94,98,94,92.81,94ZM77.66,93.6c3.39.05,8.63.09,15.15.09s11.76,0,15.15-.09c-3.39,0-8.63-.09-15.15-.09S81.05,93.55,77.66,93.6Z" style="fill:#7E57C2"></path><path d="M157.2,93.6c0,.13-8.71.23-19.44.23s-19.44-.1-19.44-.23,8.7-.23,19.44-.23S157.2,93.47,157.2,93.6Z" style="fill:#263238"></path><path d="M137.76,94c-5.19,0-10.08,0-13.75-.07-5.83-.07-5.83-.11-5.83-.31s0-.24,5.83-.31c3.68,0,8.56-.07,13.75-.07s10.07,0,13.75.07c5.83.07,5.83.11,5.83.31s0,.24-5.83.31C147.83,94,143,94,137.76,94Zm-15.15-.38c3.39.05,8.63.09,15.15.09s11.76,0,15.15-.09c-3.39,0-8.63-.09-15.15-.09S126,93.55,122.61,93.6Z" style="fill:#263238"></path><path d="M140,102.08c0,.13-12.83.23-28.65.23s-28.64-.1-28.64-.23,12.82-.23,28.64-.23S140,102,140,102.08Z" style="fill:#263238"></path><path d="M111.37,102.45c-7.65,0-14.84,0-20.25-.06-8.54-.07-8.54-.11-8.54-.31s0-.24,8.54-.31c5.41,0,12.61-.07,20.25-.07s14.84,0,20.26.07c8.53.07,8.53.1,8.53.31s0,.24-8.53.31C126.22,102.43,119,102.45,111.37,102.45Zm-22.32-.37c5,0,12.69.08,22.32.08s17.35,0,22.33-.08c-5,0-12.69-.09-22.33-.09S94,102,89.05,102.08Z" style="fill:#263238"></path><path d="M140,110.56c0,.12-12.83.23-28.65.23s-28.64-.11-28.64-.23,12.82-.24,28.64-.24S140,110.43,140,110.56Z" style="fill:#263238"></path><path d="M111.37,110.93c-7.65,0-14.84,0-20.25-.07-8.54-.07-8.54-.1-8.54-.3s0-.24,8.54-.31c5.41,0,12.6-.07,20.25-.07s14.85,0,20.26.07c8.53.07,8.53.1,8.53.31s0,.23-8.53.3C126.22,110.91,119,110.93,111.37,110.93Zm-22.3-.37c5,0,12.68.08,22.3.08s17.33,0,22.31-.08c-5-.06-12.69-.09-22.31-.09S94.05,110.5,89.07,110.56Z" style="fill:#263238"></path><path d="M179.45,136c0,.13-12.82.23-28.64.23s-28.65-.1-28.65-.23,12.83-.23,28.65-.23S179.45,135.86,179.45,136Z" style="fill:#263238"></path><path d="M150.81,136.36c-7.65,0-14.85,0-20.26-.06-8.53-.07-8.53-.11-8.53-.31s0-.24,8.53-.31c5.41,0,12.61-.07,20.26-.07s14.84,0,20.25.07c8.54.07,8.54.1,8.54.31s0,.24-8.54.31C165.65,136.34,158.46,136.36,150.81,136.36ZM128.5,136c5,0,12.69.08,22.31.08s17.33,0,22.31-.08c-5-.05-12.69-.09-22.31-.09S133.48,135.94,128.5,136Z" style="fill:#263238"></path><path d="M162.44,119c0,.13-12.83.23-28.65.23s-28.64-.1-28.64-.23,12.82-.23,28.64-.23S162.44,118.9,162.44,119Z" style="fill:#263238"></path><path d="M133.79,119.41c-7.65,0-14.85,0-20.26-.07-8.53-.07-8.53-.1-8.53-.31s0-.24,8.53-.31c5.42,0,12.61-.06,20.26-.06s14.84,0,20.26.06c8.53.07,8.53.11,8.53.31s0,.24-8.53.31C148.64,119.38,141.44,119.41,133.79,119.41ZM111.48,119c5,0,12.69.09,22.31.09s17.33,0,22.31-.09c-5,0-12.69-.08-22.31-.08S116.46,119,111.48,119Z" style="fill:#263238"></path><path d="M232.44,119c0,.13-12.82.23-28.64.23s-28.65-.1-28.65-.23,12.83-.23,28.65-.23S232.44,118.9,232.44,119Z" style="fill:#263238"></path><path d="M203.8,119.41c-7.65,0-14.85,0-20.26-.07-8.53-.07-8.53-.1-8.53-.31s0-.24,8.53-.31c5.42,0,12.61-.06,20.26-.06s14.84,0,20.26.06c8.53.07,8.53.11,8.53.31s0,.24-8.53.31C218.65,119.38,211.45,119.41,203.8,119.41ZM181.49,119c5,0,12.69.09,22.31.09s17.33,0,22.31-.09c-5,0-12.69-.08-22.31-.08S186.47,119,181.49,119Z" style="fill:#263238"></path><path d="M208.1,102.08c0,.13-12.83.23-28.65.23s-28.64-.1-28.64-.23,12.82-.23,28.64-.23S208.1,102,208.1,102.08Z" style="fill:#263238"></path><path d="M179.45,102.45c-7.65,0-14.84,0-20.25-.06-8.54-.07-8.54-.11-8.54-.31s0-.24,8.54-.31c5.41,0,12.61-.07,20.25-.07s14.84,0,20.26.07c8.53.07,8.53.1,8.53.31s0,.24-8.53.31C194.3,102.43,187.11,102.45,179.45,102.45Zm-22.32-.37c5,0,12.69.08,22.32.08s17.35,0,22.33-.08c-5,0-12.69-.09-22.33-.09S162.11,102,157.13,102.08Z" style="fill:#263238"></path><path d="M247.67,136c0,.13-12.83.23-28.64.23s-28.65-.1-28.65-.23,12.82-.23,28.65-.23S247.67,135.86,247.67,136Z" style="fill:#263238"></path><path d="M219,136.36c-7.65,0-14.85,0-20.26-.06-8.53-.07-8.53-.11-8.53-.31s0-.24,8.53-.31c5.41,0,12.6-.07,20.26-.07s14.84,0,20.25.07c8.54.07,8.54.1,8.54.31s0,.24-8.54.31C233.87,136.34,226.67,136.36,219,136.36ZM196.72,136c5,0,12.69.08,22.31.08s17.33,0,22.3-.08c-5-.05-12.68-.09-22.3-.09S201.7,135.94,196.72,136Z" style="fill:#263238"></path><path d="M239.77,110.56c0,.12-19.92.23-44.48.23s-44.48-.11-44.48-.23,19.91-.24,44.48-.24S239.77,110.43,239.77,110.56Z" style="fill:#263238"></path><path d="M195.29,110.93c-11.88,0-23,0-31.46-.07-9.74,0-12.28-.08-12.94-.17h0c-.19,0-.19-.07-.19-.12s0-.09.19-.13h0c.66-.09,3.19-.12,12.94-.17,8.4,0,19.57-.07,31.46-.07s23.05,0,31.45.07c9.75,0,12.29.08,12.94.17h0c.18,0,.18.07.18.13s0,.09-.18.12h0c-.66.09-3.19.12-12.94.17C218.33,110.91,207.17,110.93,195.29,110.93Zm-34.7-.37c8.19,0,20.77.08,34.7.08s26.51,0,34.7-.08c-8.19-.06-20.77-.09-34.7-.09S168.78,110.5,160.59,110.56Z" style="fill:#263238"></path><path d="M83.31,85.12c0,.13-4.65.23-10.39.23s-10.38-.1-10.38-.23,4.65-.23,10.38-.23S83.31,85,83.31,85.12Z" style="fill:#263238"></path><path d="M72.92,85.5c-2.77,0-5.38,0-7.35-.07-3.18-.07-3.18-.13-3.18-.31s0-.24,3.18-.31c2,0,4.58-.06,7.35-.06s5.39,0,7.35.06c3.19.07,3.19.13,3.19.31s0,.24-3.19.31C78.31,85.47,75.7,85.5,72.92,85.5Zm-8.11-.38c1.81,0,4.63.09,8.11.09s6.31,0,8.12-.09c-1.81-.05-4.63-.08-8.12-.08S66.62,85.07,64.81,85.12Z" style="fill:#263238"></path><path d="M83.31,186.85c0,.13-4.65.24-10.39.24s-10.38-.11-10.38-.24,4.65-.23,10.38-.23S83.31,186.73,83.31,186.85Z" style="fill:#263238"></path><path d="M72.92,187.23c-2.77,0-5.38,0-7.35-.07-3.18-.07-3.18-.12-3.18-.31s0-.23,3.18-.3c2-.05,4.58-.07,7.35-.07s5.39,0,7.35.07c3.19.07,3.19.12,3.19.3s0,.24-3.19.31C78.31,187.21,75.7,187.23,72.92,187.23Zm-8.1-.38c1.81.05,4.62.09,8.1.09s6.3,0,8.11-.09c-1.81,0-4.63-.08-8.11-.08S66.63,186.8,64.82,186.85Z" style="fill:#263238"></path><path d="M93.61,119c0,.13-4.66.23-10.39.23s-10.39-.1-10.39-.23,4.65-.23,10.39-.23S93.61,118.9,93.61,119Z" style="fill:#263238"></path><path d="M83.22,119.41c-2.78,0-5.39,0-7.35-.07-3.19-.07-3.19-.12-3.19-.31s0-.23,3.19-.31c2,0,4.57-.06,7.35-.06s5.38,0,7.35.06c3.18.08,3.18.13,3.18.31s0,.24-3.18.31C88.6,119.38,86,119.41,83.22,119.41ZM75.11,119c1.81,0,4.63.09,8.11.09s6.29,0,8.1-.09c-1.81,0-4.62-.08-8.1-.08S76.92,119,75.11,119Z" style="fill:#263238"></path><path d="M260.12,119c0,.13-4.65.23-10.38.23s-10.39-.1-10.39-.23,4.65-.23,10.39-.23S260.12,118.9,260.12,119Z" style="fill:#263238"></path><path d="M249.74,119.41c-2.78,0-5.39,0-7.35-.07-3.19-.07-3.19-.13-3.19-.31s0-.23,3.19-.31c2,0,4.57-.06,7.35-.06s5.38,0,7.34.06c3.19.08,3.19.13,3.19.31s0,.24-3.19.31C255.12,119.38,252.51,119.41,249.74,119.41Zm-8.11-.38c1.81,0,4.63.09,8.11.09s6.29,0,8.1-.09c-1.81,0-4.62-.08-8.1-.08S243.44,119,241.63,119Z" style="fill:#263238"></path><path d="M112.25,152.89c0,.13-8.71.23-19.44.23s-19.44-.1-19.44-.23,8.7-.23,19.44-.23S112.25,152.77,112.25,152.89Z" style="fill:#7E57C2"></path><path d="M92.81,153.27c-5.19,0-10.07,0-13.75-.07-5.83-.07-5.83-.11-5.83-.31s0-.24,5.83-.31c3.67,0,8.56-.06,13.75-.06s10.07,0,13.75.06c5.83.07,5.83.12,5.83.31s0,.24-5.83.31C102.88,153.25,98,153.27,92.81,153.27Zm-15.16-.38c3.38.05,8.63.09,15.16.09s11.78,0,15.16-.09c-3.38,0-8.63-.08-15.16-.08S81,152.84,77.65,152.89Z" style="fill:#7E57C2"></path><path d="M157.2,152.89c0,.13-8.71.23-19.44.23s-19.44-.1-19.44-.23,8.7-.23,19.44-.23S157.2,152.77,157.2,152.89Z" style="fill:#263238"></path><path d="M137.76,153.27c-5.19,0-10.07,0-13.75-.07-5.83-.07-5.83-.11-5.83-.31s0-.24,5.83-.31c3.67,0,8.56-.06,13.75-.06s10.07,0,13.75.06c5.83.07,5.83.12,5.83.31s0,.24-5.83.31C147.83,153.25,143,153.27,137.76,153.27Zm-15.16-.38c3.38.05,8.63.09,15.16.09s11.78,0,15.16-.09c-3.38,0-8.63-.08-15.16-.08S126,152.84,122.6,152.89Z" style="fill:#263238"></path><path d="M140,161.37c0,.13-12.83.23-28.65.23s-28.64-.1-28.64-.23,12.82-.23,28.64-.23S140,161.24,140,161.37Z" style="fill:#263238"></path><path d="M111.37,161.75c-7.65,0-14.84,0-20.25-.07-8.54-.07-8.54-.11-8.54-.31s0-.24,8.54-.31c5.41,0,12.6-.07,20.25-.07s14.85,0,20.26.07c8.53.07,8.53.11,8.53.31s0,.24-8.53.31C126.22,161.72,119,161.75,111.37,161.75Zm-22.3-.38c5,0,12.68.09,22.3.09s17.33,0,22.31-.09c-5-.05-12.69-.09-22.31-.09S94.05,161.32,89.07,161.37Z" style="fill:#263238"></path><path d="M140,169.85c0,.13-12.83.23-28.65.23s-28.64-.1-28.64-.23,12.82-.23,28.64-.23S140,169.72,140,169.85Z" style="fill:#263238"></path><path d="M111.37,170.23c-7.65,0-14.84,0-20.25-.07-8.54-.07-8.54-.11-8.54-.31s0-.24,8.54-.31c5.41,0,12.61-.07,20.25-.07s14.84,0,20.26.07c8.53.07,8.53.11,8.53.31s0,.24-8.53.31C126.22,170.2,119,170.23,111.37,170.23Zm-22.32-.38c5,.05,12.69.09,22.32.09s17.35,0,22.33-.09c-5,0-12.69-.09-22.33-.09S94,169.8,89.05,169.85Z" style="fill:#263238"></path><path d="M162.44,178.33c0,.12-12.83.23-28.65.23s-28.64-.11-28.64-.23,12.82-.24,28.64-.24S162.44,178.2,162.44,178.33Z" style="fill:#263238"></path><path d="M133.79,178.7c-7.64,0-14.84,0-20.26-.06-8.53-.07-8.53-.11-8.53-.31s0-.24,8.53-.31c5.41-.05,12.61-.07,20.26-.07s14.85,0,20.26.07c8.53.07,8.53.1,8.53.31s0,.24-8.53.31C148.63,178.68,141.44,178.7,133.79,178.7Zm-22.32-.37c5,0,12.69.08,22.32.08s17.35,0,22.33-.08c-5-.05-12.7-.09-22.33-.09S116.45,178.28,111.47,178.33Z" style="fill:#263238"></path><path d="M232.44,178.33c0,.12-12.82.23-28.64.23s-28.65-.11-28.65-.23,12.83-.24,28.65-.24S232.44,178.2,232.44,178.33Z" style="fill:#263238"></path><path d="M203.8,178.7c-7.65,0-14.84,0-20.26-.06-8.53-.07-8.53-.11-8.53-.31s0-.24,8.53-.31C189,178,196.15,178,203.8,178s14.85,0,20.26.07c8.53.07,8.53.1,8.53.31s0,.24-8.53.31C218.64,178.68,211.44,178.7,203.8,178.7Zm-22.32-.37c5,0,12.69.08,22.32.08s17.34,0,22.32-.08c-5-.05-12.69-.09-22.32-.09S186.45,178.28,181.48,178.33Z" style="fill:#263238"></path><path d="M208.1,161.37c0,.13-12.83.23-28.65.23s-28.64-.1-28.64-.23,12.82-.23,28.64-.23S208.1,161.24,208.1,161.37Z" style="fill:#263238"></path><path d="M179.45,161.75c-7.65,0-14.84,0-20.25-.07-8.54-.07-8.54-.11-8.54-.31s0-.24,8.54-.31c5.41,0,12.6-.07,20.25-.07s14.85,0,20.26.07c8.53.07,8.53.11,8.53.31s0,.24-8.53.31C194.3,161.72,187.1,161.75,179.45,161.75Zm-22.31-.38c5,0,12.69.09,22.31.09s17.33,0,22.31-.09c-5-.05-12.69-.09-22.31-.09S162.12,161.32,157.14,161.37Z" style="fill:#263238"></path><path d="M239.77,169.85c0,.13-19.92.23-44.48.23s-44.48-.1-44.48-.23,19.91-.23,44.48-.23S239.77,169.72,239.77,169.85Z" style="fill:#263238"></path><path d="M195.29,170.23c-11.89,0-23.06,0-31.46-.07-9.75,0-12.28-.08-12.94-.18h0c-.19,0-.19-.07-.19-.12s0-.09.19-.12v0h0c.66-.1,3.2-.13,12.94-.18,8.42,0,19.59-.07,31.46-.07s23,0,31.45.07c9.75.05,12.28.08,12.94.18h0v0c.18,0,.18.07.18.12s0,.09-.18.12h0c-.65.1-3.19.13-12.94.18C218.34,170.2,207.17,170.23,195.29,170.23Zm-34.73-.38c8.19.05,20.78.09,34.73.09s26.53,0,34.73-.09c-8.2,0-20.79-.09-34.73-.09S168.75,169.8,160.56,169.85Z" style="fill:#263238"></path><path d="M93.61,178.33c0,.12-4.66.23-10.39.23s-10.39-.11-10.39-.23,4.65-.24,10.39-.24S93.61,178.2,93.61,178.33Z" style="fill:#263238"></path><path d="M83.22,178.7c-2.78,0-5.39,0-7.35-.06-3.19-.08-3.19-.13-3.19-.31s0-.24,3.19-.31c2-.05,4.57-.07,7.35-.07s5.38,0,7.35.07c3.18.07,3.18.12,3.18.31s0,.23-3.18.31C88.6,178.68,86,178.7,83.22,178.7Zm-8.11-.37c1.8,0,4.62.08,8.11.08s6.3,0,8.11-.08c-1.81-.05-4.63-.09-8.11-.09S76.91,178.28,75.11,178.33Z" style="fill:#263238"></path><path d="M260.12,178.33c0,.12-4.65.23-10.38.23s-10.39-.11-10.39-.23,4.65-.24,10.39-.24S260.12,178.2,260.12,178.33Z" style="fill:#263238"></path><path d="M249.74,178.7c-2.78,0-5.39,0-7.35-.06-3.19-.08-3.19-.13-3.19-.31s0-.24,3.19-.31c2-.05,4.57-.07,7.35-.07s5.38,0,7.34.07c3.19.07,3.19.12,3.19.31s0,.23-3.19.31C255.12,178.68,252.51,178.7,249.74,178.7Zm-8.11-.37c1.8,0,4.62.08,8.11.08s6.3,0,8.11-.08c-1.81-.05-4.63-.09-8.11-.09S243.43,178.28,241.63,178.33Z" style="fill:#263238"></path><rect x="318.62" y="225.57" width="149.38" height="99.64" style="fill:#fafafa"></rect><path d="M468,325.21s0-.62,0-1.81,0-3,0-5.25c0-4.61,0-11.38-.05-20,0-17.31-.06-42.19-.11-72.54l.21.21-149.37.05h0l.26-.26c0,35.49,0,69.24,0,99.64l-.24-.24,107.61.12,30.75.07,8.18,0,2.11,0H468l-.7,0h-2.08l-8.13,0-30.7.06-107.77.12h-.24v-.24c0-30.4,0-64.15,0-99.64v-.26h.27l149.37.06h.21v.2c0,30.4-.09,55.33-.11,72.67,0,8.64,0,15.39-.06,20,0,2.28,0,4,0,5.21S468,325.21,468,325.21Z" style="fill:#263238"></path><path d="M345.89,237.52c0,.08-3,.15-6.67.15s-6.67-.07-6.67-.15,3-.15,6.67-.15S345.89,237.44,345.89,237.52Z" style="fill:#7E57C2"></path><path d="M339.22,237.76c-1.78,0-3.46,0-4.72,0-2.05-.05-2.05-.08-2.05-.2s0-.15,2.05-.2c1.26,0,2.94,0,4.72,0s3.46,0,4.72,0c2.05.05,2.05.09,2.05.2s0,.15-2.05.2C342.68,237.75,341,237.76,339.22,237.76Zm-5.21-.24c1.16,0,3,.06,5.21.06s4,0,5.21-.06c-1.16,0-3-.05-5.21-.05S335.17,237.49,334,237.52Z" style="fill:#7E57C2"></path><path d="M345.89,314.09c0,.08-3,.14-6.67.14s-6.67-.06-6.67-.14,3-.15,6.67-.15S345.89,314,345.89,314.09Z" style="fill:#7E57C2"></path><path d="M339.22,314.33c-1.78,0-3.46,0-4.72-.05-2.05,0-2.05-.08-2.05-.19s0-.16,2.05-.2c1.26,0,2.94-.05,4.72-.05s3.46,0,4.72.05c2.05,0,2.05.08,2.05.2s0,.15-2.05.19C342.68,314.31,341,314.33,339.22,314.33Zm-5.21-.24c1.16,0,3,.05,5.21.05s4,0,5.21-.05c-1.16,0-3-.06-5.21-.06S335.17,314.05,334,314.09Z" style="fill:#7E57C2"></path><path d="M364.48,248.74c0,.08-5.59.14-12.49.14s-12.48-.06-12.48-.14,5.59-.15,12.48-.15S364.48,248.65,364.48,248.74Z" style="fill:#7E57C2"></path><path d="M352,249c-3.33,0-6.47,0-8.83,0-3.74,0-3.74-.07-3.74-.2s0-.15,3.74-.19c2.36,0,5.5,0,8.83,0s6.47,0,8.83,0c3.75,0,3.75.07,3.75.19s0,.16-3.75.2C358.47,249,355.33,249,352,249Zm-9.73-.25c2.18,0,5.54.06,9.73.06s7.56,0,9.73-.06c-2.17,0-5.54,0-9.73,0S344.44,248.7,342.26,248.73Z" style="fill:#7E57C2"></path><path d="M393.36,248.74c0,.08-5.6.14-12.49.14s-12.49-.06-12.49-.14,5.59-.15,12.49-.15S393.36,248.65,393.36,248.74Z" style="fill:#263238"></path><path d="M380.87,249c-3.34,0-6.47,0-8.83,0-3.75,0-3.75-.07-3.75-.2s0-.15,3.75-.19c2.36,0,5.5,0,8.83,0s6.47,0,8.83,0c3.75,0,3.75.07,3.75.19s0,.16-3.75.2C387.34,249,384.21,249,380.87,249Zm-9.73-.25c2.17,0,5.54.06,9.73.06s7.56,0,9.73-.06c-2.17,0-5.54,0-9.73,0S373.31,248.7,371.14,248.73Z" style="fill:#263238"></path><path d="M382.32,254.18c0,.08-8.24.15-18.4.15s-18.4-.07-18.4-.15,8.24-.15,18.4-.15S382.32,254.1,382.32,254.18Z" style="fill:#263238"></path><path d="M363.92,254.42c-4.92,0-9.54,0-13,0-5.49,0-5.49-.07-5.49-.2s0-.15,5.49-.2c3.48,0,8.1,0,13,0s9.53,0,13,0c5.48.05,5.48.07,5.48.2s0,.15-5.48.2C373.46,254.41,368.83,254.42,363.92,254.42Zm-14.34-.24c3.2,0,8.15.06,14.34.06s11.14,0,14.34-.06c-3.2,0-8.15-.05-14.34-.05S352.78,254.15,349.58,254.18Z" style="fill:#263238"></path><path d="M382.32,259.63c0,.08-8.24.15-18.4.15s-18.4-.07-18.4-.15,8.24-.15,18.4-.15S382.32,259.54,382.32,259.63Z" style="fill:#263238"></path><path d="M363.92,259.87c-4.91,0-9.54,0-13-.05-5.49,0-5.49-.06-5.49-.19s0-.16,5.49-.2c3.47,0,8.09-.05,13-.05s9.54,0,13,.05c5.48,0,5.48.07,5.48.2s0,.15-5.48.19C373.45,259.85,368.83,259.87,363.92,259.87Zm-14.33-.24c3.2,0,8.15.05,14.33.05s11.13,0,14.33-.05c-3.2,0-8.15-.06-14.33-.06S352.79,259.59,349.59,259.63Z" style="fill:#263238"></path><path d="M407.65,276c0,.09-8.24.15-18.4.15s-18.4-.06-18.4-.15,8.24-.14,18.4-.14S407.65,275.88,407.65,276Z" style="fill:#263238"></path><path d="M389.25,276.21c-4.91,0-9.53,0-13,0-5.48,0-5.48-.07-5.48-.2s0-.15,5.48-.19c3.47,0,8.1,0,13,0s9.54,0,13,0c5.49,0,5.49.06,5.49.19s0,.16-5.49.2C398.79,276.19,394.16,276.21,389.25,276.21ZM374.92,276c3.2,0,8.15.06,14.33.06s11.13,0,14.33-.06c-3.2,0-8.15,0-14.33,0S378.12,275.93,374.92,276Z" style="fill:#263238"></path><path d="M396.72,265.07c0,.08-8.24.15-18.4.15s-18.4-.07-18.4-.15,8.24-.15,18.4-.15S396.72,265,396.72,265.07Z" style="fill:#263238"></path><path d="M378.32,265.31c-4.92,0-9.54,0-13,0-5.48,0-5.48-.07-5.48-.2s0-.15,5.48-.2c3.47,0,8.1,0,13,0s9.53,0,13,0c5.48.05,5.48.07,5.48.2s0,.16-5.48.2C387.86,265.3,383.24,265.31,378.32,265.31ZM364,265.07c3.2,0,8.15.06,14.33.06s11.13,0,14.33-.06c-3.2,0-8.15-.05-14.33-.05S367.19,265,364,265.07Z" style="fill:#263238"></path><path d="M441.69,265.07c0,.08-8.24.15-18.4.15s-18.4-.07-18.4-.15,8.24-.15,18.4-.15S441.69,265,441.69,265.07Z" style="fill:#263238"></path><path d="M423.29,265.31c-4.91,0-9.54,0-13,0-5.48,0-5.48-.07-5.48-.2s0-.15,5.48-.2c3.48,0,8.1,0,13,0s9.54,0,13,0c5.49.05,5.49.07,5.49.2s0,.16-5.49.2C432.83,265.3,428.21,265.31,423.29,265.31ZM409,265.07c3.2,0,8.15.06,14.33.06s11.13,0,14.33-.06c-3.2,0-8.15-.05-14.33-.05S412.16,265,409,265.07Z" style="fill:#263238"></path><path d="M426.05,254.18c0,.08-8.24.15-18.4.15s-18.4-.07-18.4-.15,8.24-.15,18.4-.15S426.05,254.1,426.05,254.18Z" style="fill:#263238"></path><path d="M407.65,254.42c-4.91,0-9.54,0-13,0-5.48,0-5.48-.07-5.48-.2s0-.15,5.48-.2c3.48,0,8.1,0,13,0s9.53,0,13,0c5.49.05,5.49.07,5.49.2s0,.15-5.49.2C417.19,254.41,412.57,254.42,407.65,254.42Zm-14.34-.24c3.2,0,8.16.06,14.34.06s11.14,0,14.34-.06c-3.2,0-8.15-.05-14.34-.05S396.51,254.15,393.31,254.18Z" style="fill:#263238"></path><path d="M451.47,276c0,.09-8.23.15-18.4.15s-18.4-.06-18.4-.15,8.24-.14,18.4-.14S451.47,275.88,451.47,276Z" style="fill:#263238"></path><path d="M433.07,276.21c-4.91,0-9.53,0-13,0-5.48,0-5.48-.07-5.48-.2s0-.15,5.48-.19c3.48,0,8.1,0,13,0s9.54,0,13,0c5.48,0,5.48.06,5.48.19s0,.16-5.48.2C442.61,276.19,438,276.21,433.07,276.21ZM418.74,276c3.2,0,8.15.06,14.33.06s11.14,0,14.33-.06c-3.19,0-8.15,0-14.33,0S421.94,275.93,418.74,276Z" style="fill:#263238"></path><path d="M446.4,259.63c0,.08-12.8.15-28.57.15s-28.58-.07-28.58-.15,12.79-.15,28.58-.15S446.4,259.54,446.4,259.63Z" style="fill:#263238"></path><path d="M417.83,259.87c-7.64,0-14.81,0-20.21-.05-6.26,0-7.89-.05-8.31-.11h0c-.12,0-.12,0-.12-.08s0-.06.12-.08h0c.42-.06,2.05-.08,8.31-.11,5.39,0,12.57-.05,20.21-.05s14.8,0,20.2.05c6.26,0,7.89.05,8.31.11h0c.12,0,.12,0,.12.08s0,.05-.12.08h0c-.42.06-2,.08-8.31.11C432.63,259.85,425.45,259.87,417.83,259.87Zm-22.3-.24c5.27,0,13.35.05,22.3.05s17,0,22.29-.05c-5.27,0-13.35-.06-22.29-.06S400.8,259.59,395.53,259.63Z" style="fill:#263238"></path><path d="M345.89,243.29c0,.08-3,.15-6.67.15s-6.67-.07-6.67-.15,3-.15,6.67-.15S345.89,243.21,345.89,243.29Z" style="fill:#263238"></path><path d="M339.22,243.53c-1.78,0-3.46,0-4.72,0-2.05-.05-2.05-.08-2.05-.2s0-.15,2.05-.2c1.26,0,2.94,0,4.72,0s3.46,0,4.72,0c2.05,0,2.05.08,2.05.2s0,.15-2.05.2C342.68,243.52,341,243.53,339.22,243.53Zm-5.21-.24c1.16,0,3,.06,5.21.06s4,0,5.21-.06c-1.16,0-3-.06-5.21-.06S335.17,243.26,334,243.29Z" style="fill:#263238"></path><path d="M345.89,308.64c0,.08-3,.15-6.67.15s-6.67-.07-6.67-.15,3-.15,6.67-.15S345.89,308.56,345.89,308.64Z" style="fill:#263238"></path><path d="M339.22,308.88c-1.78,0-3.46,0-4.72,0-2.05,0-2.05-.08-2.05-.2s0-.15,2.05-.2c1.26,0,2.94,0,4.72,0s3.46,0,4.72,0c2.05.05,2.05.08,2.05.2s0,.15-2.05.2C342.68,308.87,341,308.88,339.22,308.88Zm-5.21-.24c1.17,0,3,.06,5.21.06s4,0,5.21-.06c-1.17,0-3-.06-5.21-.06S335.18,308.61,334,308.64Z" style="fill:#263238"></path><path d="M352.51,265.07c0,.08-3,.15-6.68.15s-6.67-.07-6.67-.15,3-.15,6.67-.15S352.51,265,352.51,265.07Z" style="fill:#263238"></path><path d="M345.83,265.31c-1.78,0-3.46,0-4.72,0-2,0-2-.08-2-.2s0-.15,2-.2c1.26,0,2.94,0,4.72,0s3.46,0,4.72,0c2.05.05,2.05.09,2.05.2s0,.16-2.05.2C349.29,265.3,347.62,265.31,345.83,265.31Zm-5.2-.24c1.16,0,3,.06,5.2.06s4.05,0,5.21-.06c-1.16,0-3-.05-5.21-.05S341.79,265,340.63,265.07Z" style="fill:#263238"></path><path d="M459.47,265.07c0,.08-3,.15-6.67.15s-6.67-.07-6.67-.15,3-.15,6.67-.15S459.47,265,459.47,265.07Z" style="fill:#263238"></path><path d="M452.8,265.31c-1.78,0-3.46,0-4.72,0-2.05,0-2.05-.08-2.05-.2s0-.15,2.05-.2c1.26,0,2.94,0,4.72,0s3.46,0,4.72,0c2.05.05,2.05.09,2.05.2s0,.16-2.05.2C456.26,265.3,454.58,265.31,452.8,265.31Zm-5.21-.24c1.17,0,3,.06,5.21.06s4.05,0,5.21-.06c-1.16,0-3-.05-5.21-.05S448.76,265,447.59,265.07Z" style="fill:#263238"></path><path d="M364.48,286.82c0,.09-5.59.15-12.49.15s-12.48-.06-12.48-.15,5.59-.14,12.48-.14S364.48,286.74,364.48,286.82Z" style="fill:#7E57C2"></path><path d="M352,287.07c-3.33,0-6.46,0-8.83-.05-3.74,0-3.74-.07-3.74-.2s0-.15,3.74-.19c2.36,0,5.5-.05,8.83-.05s6.48,0,8.83.05c3.75,0,3.75.07,3.75.19s0,.16-3.75.2C358.46,287.05,355.33,287.07,352,287.07Zm-9.73-.25c2.17,0,5.54.06,9.73.06s7.57,0,9.74-.06c-2.17,0-5.54-.05-9.74-.05S344.43,286.79,342.26,286.82Z" style="fill:#7E57C2"></path><path d="M393.36,286.82c0,.09-5.6.15-12.49.15s-12.49-.06-12.49-.15,5.59-.14,12.49-.14S393.36,286.74,393.36,286.82Z" style="fill:#263238"></path><path d="M380.87,287.07c-3.33,0-6.47,0-8.83-.05-3.75,0-3.75-.07-3.75-.2s0-.15,3.75-.19c2.36,0,5.49-.05,8.83-.05s6.47,0,8.83.05c3.75,0,3.75.07,3.75.19s0,.16-3.75.2C387.34,287.05,384.2,287.07,380.87,287.07Zm-9.74-.25c2.18,0,5.55.06,9.74.06s7.56,0,9.74-.06c-2.18,0-5.55-.05-9.74-.05S373.31,286.79,371.13,286.82Z" style="fill:#263238"></path><path d="M382.32,292.27c0,.08-8.24.15-18.4.15s-18.4-.07-18.4-.15,8.24-.15,18.4-.15S382.32,292.19,382.32,292.27Z" style="fill:#263238"></path><path d="M363.92,292.51c-4.91,0-9.54,0-13,0-5.49-.05-5.49-.07-5.49-.2s0-.15,5.49-.2c3.47,0,8.09,0,13,0s9.54,0,13,0c5.48.05,5.48.07,5.48.2s0,.15-5.48.2C373.45,292.5,368.83,292.51,363.92,292.51Zm-14.33-.24c3.2,0,8.15.06,14.33.06s11.13,0,14.33-.06c-3.2,0-8.15-.06-14.33-.06S352.79,292.24,349.59,292.27Z" style="fill:#263238"></path><path d="M382.32,297.72c0,.08-8.24.14-18.4.14s-18.4-.06-18.4-.14,8.24-.15,18.4-.15S382.32,297.63,382.32,297.72Z" style="fill:#263238"></path><path d="M363.92,298c-4.92,0-9.54,0-13,0-5.49,0-5.49-.06-5.49-.19s0-.16,5.49-.2c3.48,0,8.1,0,13,0s9.53,0,13,0c5.48,0,5.48.07,5.48.2s0,.15-5.48.19C373.46,297.94,368.83,298,363.92,298Zm-14.34-.24c3.2,0,8.15,0,14.34,0s11.14,0,14.34,0c-3.2,0-8.15-.06-14.34-.06S352.78,297.68,349.58,297.72Z" style="fill:#263238"></path><path d="M396.72,303.16c0,.08-8.24.15-18.4.15s-18.4-.07-18.4-.15,8.24-.15,18.4-.15S396.72,303.08,396.72,303.16Z" style="fill:#263238"></path><path d="M378.32,303.4c-4.91,0-9.53,0-13,0-5.48,0-5.48-.07-5.48-.2s0-.15,5.48-.2c3.47,0,8.09,0,13,0s9.54,0,13,0c5.48.05,5.48.07,5.48.2s0,.16-5.48.2C387.85,303.39,383.23,303.4,378.32,303.4ZM364,303.16c3.2,0,8.15.06,14.34.06s11.14,0,14.34-.06c-3.2,0-8.15-.05-14.34-.05S367.18,303.13,364,303.16Z" style="fill:#263238"></path><path d="M441.69,303.16c0,.08-8.24.15-18.4.15s-18.4-.07-18.4-.15,8.24-.15,18.4-.15S441.69,303.08,441.69,303.16Z" style="fill:#263238"></path><path d="M423.29,303.4c-4.91,0-9.53,0-13,0-5.48,0-5.48-.07-5.48-.2s0-.15,5.48-.2c3.47,0,8.1,0,13,0s9.54,0,13,0c5.49.05,5.49.07,5.49.2s0,.16-5.49.2C432.82,303.39,428.2,303.4,423.29,303.4ZM409,303.16c3.2,0,8.16.06,14.34.06s11.14,0,14.34-.06c-3.2,0-8.15-.05-14.34-.05S412.15,303.13,409,303.16Z" style="fill:#263238"></path><path d="M426.05,292.27c0,.08-8.24.15-18.4.15s-18.4-.07-18.4-.15,8.24-.15,18.4-.15S426.05,292.19,426.05,292.27Z" style="fill:#263238"></path><path d="M407.65,292.51c-4.91,0-9.53,0-13,0-5.48-.05-5.48-.07-5.48-.2s0-.15,5.48-.2c3.47,0,8.1,0,13,0s9.54,0,13,0c5.49.05,5.49.07,5.49.2s0,.15-5.49.2C417.19,292.5,412.57,292.51,407.65,292.51Zm-14.33-.24c3.2,0,8.15.06,14.33.06s11.13,0,14.33-.06c-3.2,0-8.15-.06-14.33-.06S396.52,292.24,393.32,292.27Z" style="fill:#263238"></path><path d="M446.4,297.72c0,.08-12.8.14-28.57.14s-28.58-.06-28.58-.14,12.79-.15,28.58-.15S446.4,297.63,446.4,297.72Z" style="fill:#263238"></path><path d="M417.83,298c-7.64,0-14.82,0-20.21,0-6.26,0-7.89-.05-8.31-.11h0c-.12,0-.12-.05-.12-.08s0-.06.12-.08h0c.42-.06,2.05-.08,8.31-.11,5.4,0,12.58,0,20.21,0s14.8,0,20.2,0c6.26,0,7.89.05,8.31.11h0c.12,0,.12,0,.12.08s0,0-.12.08h0c-.42.06-2,.08-8.31.11C432.63,297.94,425.46,298,417.83,298Zm-22.31-.24c5.26,0,13.35,0,22.31,0s17,0,22.3,0c-5.26,0-13.35-.06-22.3-.06S400.78,297.68,395.52,297.72Z" style="fill:#263238"></path><path d="M352.51,303.16c0,.08-3,.15-6.68.15s-6.67-.07-6.67-.15,3-.15,6.67-.15S352.51,303.08,352.51,303.16Z" style="fill:#263238"></path><path d="M345.83,303.4c-1.78,0-3.46,0-4.72,0-2-.05-2-.08-2-.2s0-.15,2-.2c1.26,0,2.94,0,4.72,0s3.46,0,4.72,0c2.05.05,2.05.08,2.05.2s0,.15-2.05.2C349.29,303.39,347.61,303.4,345.83,303.4Zm-5.21-.24c1.16,0,3,.06,5.21.06s4.05,0,5.21-.06c-1.16,0-3-.05-5.21-.05S341.78,303.13,340.62,303.16Z" style="fill:#263238"></path><path d="M459.47,303.16c0,.08-3,.15-6.67.15s-6.67-.07-6.67-.15,3-.15,6.67-.15S459.47,303.08,459.47,303.16Z" style="fill:#263238"></path><path d="M452.8,303.4c-1.78,0-3.46,0-4.72,0-2.05-.05-2.05-.08-2.05-.2s0-.15,2.05-.2c1.26,0,2.94,0,4.72,0s3.46,0,4.72,0c2.05.05,2.05.08,2.05.2s0,.15-2.05.2C456.26,303.39,454.58,303.4,452.8,303.4Zm-5.21-.24c1.16,0,3,.06,5.21.06s4.05,0,5.21-.06c-1.16,0-3-.05-5.21-.05S448.75,303.13,447.59,303.16Z" style="fill:#263238"></path></g><g id="freepik--Table--inject-2"><path d="M483.48,445.39c0,.14-104.54.26-233.47.26s-233.5-.12-233.5-.26,104.53-.26,233.5-.26S483.48,445.25,483.48,445.39Z" style="fill:#263238"></path></g><g id="freepik--Character--inject-2"><path d="M334.92,274,311,263.67H198.34a179.35,179.35,0,0,1-15.92,8.66c-4.36,2-26.34,15.77-26.34,15.77l15.23,156.8,177.91.47,12-160.64Z" style="fill:#7E57C2"></path><path d="M156.08,288.1s-34.63,39.35-35.83,42.57-10.45,19.69-10.45,19.69-14.47,6.83-16.48,10.45-6,11.25-6,11.25-28.52,34.29-31.2,45.66c-3,12.58,4,27.67,4,27.67h89.77l6.91-29.28h0c.86-1.51-.14-3.08-1.82-3.54-4.95-1.36-8.67-2-12.06-5.65l.63-4.71,16.67-12.78,15.09-11.6Z" style="fill:#7E57C2"></path><path d="M349.22,368.24c-.07.42,13.32,9.85,13.32,9.85l12.29,18.69a58.92,58.92,0,0,1-9.16,7h0l-8.32,2.86-.43,1.95,1.32,6.8c2.53,13.09,13.16,27,26.2,29.77l1.8-.06,61.72.27c5.28-8.54,10.36-15.29,9.5-24.34L456,405.86l-23.85-32-35.25-50.91s-24.3-33.53-35.72-38.18l-12,28.57Z" style="fill:#7E57C2"></path><path d="M166.48,334.6a9.49,9.49,0,0,1-.14-1.71c-.05-1.1-.16-2.69-.33-4.65a102,102,0,0,0-7.15-29.8c-.74-1.82-1.37-3.29-1.82-4.29a9.6,9.6,0,0,1-.65-1.59,12.72,12.72,0,0,1,.83,1.5c.51,1,1.19,2.43,2,4.24a91.2,91.2,0,0,1,7.18,29.91c.12,2,.17,3.57.16,4.68A12.82,12.82,0,0,1,166.48,334.6Z" style="fill:#263238"></path><path d="M344.3,335.08a1.72,1.72,0,0,1,0-.49c0-.38,0-.84,0-1.4s0-1.36.06-2.22.07-1.85.19-2.94a73.6,73.6,0,0,1,1.05-7.59,83.63,83.63,0,0,1,2.35-9.08,81.5,81.5,0,0,1,3.45-8.73,73.54,73.54,0,0,1,3.61-6.76c.54-.95,1.1-1.76,1.57-2.49s.9-1.33,1.26-1.82l.84-1.13a2.3,2.3,0,0,1,.32-.37,2.26,2.26,0,0,1-.23.43l-.76,1.18c-.34.51-.74,1.13-1.18,1.87s-1,1.56-1.51,2.52c-1.09,1.87-2.28,4.17-3.49,6.77A81.15,81.15,0,0,0,346,320.54c-.55,2.81-.94,5.37-1.16,7.53-.14,1.07-.19,2.06-.26,2.92s-.12,1.6-.14,2.2-.07,1-.09,1.4A1.61,1.61,0,0,1,344.3,335.08Z" style="fill:#263238"></path><path d="M112.05,370.72a1.57,1.57,0,0,1,.48,0c.3.06.76.13,1.33.28a33.32,33.32,0,0,1,4.78,1.52A37.1,37.1,0,0,1,132.16,382a45.93,45.93,0,0,1,5.48,7.28,57.43,57.43,0,0,1,3.39,6.62c.86,1.93,1.48,3.52,1.91,4.62l.47,1.28a1.21,1.21,0,0,1,.13.46,2.45,2.45,0,0,1-.22-.42c-.16-.34-.34-.75-.57-1.24-.48-1.08-1.16-2.64-2.05-4.55a63.77,63.77,0,0,0-3.46-6.52,49.42,49.42,0,0,0-5.46-7.18,38.64,38.64,0,0,0-13.28-9.39,42.69,42.69,0,0,0-4.69-1.67A15.89,15.89,0,0,1,112.05,370.72Z" style="fill:#263238"></path><g style="opacity:0.30000000000000004"><path d="M142.94,406.73c-3.65-10.94-16.38-18.71-24.23-25.17-4.67-3.83-10.52-7.06-16.48-6-2.19.37-4.46,1.5-5.26,3.57s.75,4.93,3,4.68c-4.92,2.61-9,4.65-14,7.26a3.6,3.6,0,0,0-2.33,2.54c-.21.85-.51,1.59.32,1.33,10.63-3.33,18.7-1.83,18.7-1.83s2.28-.66,10.59-.35c8.91.33,14.58.43,29.69,14"></path></g><g style="opacity:0.30000000000000004"><path d="M374.52,396.63c4.17-9.31,11.24-15.59,20.64-19.42,5.46-2.23,12.09-2.94,17,.34,2.48,1.67,4.74,4.66,3.11,8.49-2.06,4.82-8.88,3.89-10.67,4.11,0,0-7.39-1.52-13.95-.21s-8.33,2.74-15.81,6.84"></path></g><path d="M156.79,416.11s.13-.33.23-1a1.59,1.59,0,0,0,0-.54c0-.09,0-.19,0-.3l-.13-.31a2.55,2.55,0,0,0-1.19-1,33.4,33.4,0,0,0-4.36-1.28,24.11,24.11,0,0,1-2.72-.91,20.55,20.55,0,0,1-2.84-1.5,42.46,42.46,0,0,1-5.72-4.62,53.92,53.92,0,0,0-6.45-5.32A40.23,40.23,0,0,0,115.74,393a48.34,48.34,0,0,0-19,1.71,62.63,62.63,0,0,0-14.33,6.25,82,82,0,0,0-8.75,5.94c-1,.76-1.75,1.37-2.26,1.79l-.59.47c-.13.1-.2.15-.21.14l.18-.19.56-.5c.48-.44,1.22-1.08,2.19-1.87a74.66,74.66,0,0,1,8.69-6.1,61.87,61.87,0,0,1,14.39-6.39,48.29,48.29,0,0,1,19.15-1.77,40.46,40.46,0,0,1,18.06,6.49,52.53,52.53,0,0,1,6.47,5.4A43.21,43.21,0,0,0,146,409c3.71,2.55,7.52,2.69,9.81,3.82a2.62,2.62,0,0,1,1.24,1.14l.13.34,0,.32a1.72,1.72,0,0,1,0,.57,3.21,3.21,0,0,1-.23.72Z" style="fill:#263238"></path><g style="opacity:0.30000000000000004"><path d="M139.88,414.05c-7.07,2.87-13,9.26-16.44,16.08a19.8,19.8,0,0,0-1.79,8.05c.08,2.05.53,3.58,2.32,4.78a30,30,0,0,0,4.9,2.46c3.89-.12,16.39.07,20.28-.05,5.07-.15,7.36-2.83,7.4-3.18.25-2.51,3.82-8.93,4.37-13.69,0-.24.06-.49.1-.76a13.43,13.43,0,0,0-14.73-15.26A23.77,23.77,0,0,0,139.88,414.05Z"></path></g><path d="M139.88,414.05l16.91,2.06s29.78-7.49,35.59-5.91c5.23,1.43,23.41,16.34,27,19.28a2.43,2.43,0,0,1,.81,1.27h0a4.21,4.21,0,0,1-2.86,5.08l-.42.12.11.6a6.9,6.9,0,0,1,.06,2.36,2.82,2.82,0,0,1-5.34.69l.6,1.37a3.16,3.16,0,0,1,.23,1.79l-.18,1.18a3.21,3.21,0,0,1-2.49,2.64h0a3.19,3.19,0,0,1-3.26-1.22c-2.19-3-7-8.94-10.53-9.91a84.9,84.9,0,0,0-11.74-1.78,4,4,0,0,0-4,2.18h0c2.12.37,16.27,9.66,21.27,13a5.69,5.69,0,0,1,2.65,4.56c0,1.68-1,3.32-4.18,2.23-6.85-2.35-18.9-9.43-18.9-9.43s-6.33-2.51-10.86,0c-6.36,3.59-9.23,4.86-14.16,2.65a43.22,43.22,0,0,1-8.45-5l-21.59-1.12a4.77,4.77,0,0,1-4.52-5.14C122.13,431.53,125.27,421.13,139.88,414.05Z" style="fill:#ffbe9d"></path><path d="M182,424.29c0,.11,2.09-.33,5.47-.21a28,28,0,0,1,22.23,12.25c1.91,2.79,2.65,4.79,2.75,4.74a6.36,6.36,0,0,0-.51-1.39,23.59,23.59,0,0,0-1.92-3.56,27.17,27.17,0,0,0-22.54-12.42,24.37,24.37,0,0,0-4,.27A6.27,6.27,0,0,0,182,424.29Z" style="fill:#eb996e"></path><path d="M185.74,417.61a24,24,0,0,1,5.72-.41,24.63,24.63,0,0,1,12.7,5,52.84,52.84,0,0,1,9.63,10c1.05,1.35,1.91,2.48,2.58,3.36a9.15,9.15,0,0,0,1,1.2,7.67,7.67,0,0,0-.82-1.33c-.55-.83-1.38-2-2.44-3.47a48.47,48.47,0,0,0-9.62-10.17,24,24,0,0,0-13-5,15.94,15.94,0,0,0-4.25.34,9.94,9.94,0,0,0-1.11.3Z" style="fill:#eb996e"></path><path d="M156.45,416a15.51,15.51,0,0,0-1.77-1.55,11.76,11.76,0,0,0-6-2,18.54,18.54,0,0,0-9.14,2.1,35.24,35.24,0,0,0-16.21,16.15,14.31,14.31,0,0,0-1.55,4.77,8.61,8.61,0,0,0,0,2.27,10.9,10.9,0,0,0,.4,2.06,6.33,6.33,0,0,0,2,3,12.53,12.53,0,0,0,2.3,1.5l1.55.83a2.18,2.18,0,0,1,.52.32,2.31,2.31,0,0,1-.57-.23c-.37-.16-.91-.4-1.6-.74A12.19,12.19,0,0,1,124,443a6.59,6.59,0,0,1-2.11-3.07,10.76,10.76,0,0,1-.45-2.12,8.91,8.91,0,0,1,0-2.37,14.68,14.68,0,0,1,1.55-4.93,34.91,34.91,0,0,1,16.44-16.37,18.55,18.55,0,0,1,9.36-2,11.54,11.54,0,0,1,6.07,2.23,8.81,8.81,0,0,1,1.29,1.21A2.38,2.38,0,0,1,156.45,416Z" style="fill:#263238"></path><path d="M104.94,393a6.8,6.8,0,0,1-1.43,0c-.91-.06-2.24-.09-3.87-.08s-3.59.11-5.74.33a56.47,56.47,0,0,0-13.64,3.23c-2,.77-3.81,1.54-5.27,2.27s-2.64,1.35-3.43,1.81a7,7,0,0,1-1.27.66,7.5,7.5,0,0,1,1.16-.83,38,38,0,0,1,3.37-2,50.11,50.11,0,0,1,5.27-2.4,57.07,57.07,0,0,1,6.77-2.1,56,56,0,0,1,7-1.16,52.88,52.88,0,0,1,5.78-.22c1.64,0,3,.13,3.89.25A7.18,7.18,0,0,1,104.94,393Z" style="fill:#263238"></path><path d="M108.84,442.85a2.32,2.32,0,0,1-.19-.49,15,15,0,0,1-.42-1.46,21,21,0,0,1-.55-5.55,26,26,0,0,1,1.57-8.12,29.93,29.93,0,0,1,5-8.79A41,41,0,0,1,129,407.63a52.43,52.43,0,0,1,5.19-2c.62-.21,1.11-.35,1.44-.45a1.84,1.84,0,0,1,.52-.11,2.56,2.56,0,0,1-.48.21l-1.42.54c-1.22.46-3,1.17-5.1,2.17a42.45,42.45,0,0,0-14.5,10.81,30.23,30.23,0,0,0-5,8.62,26.19,26.19,0,0,0-1.65,8A27.72,27.72,0,0,0,108.84,442.85Z" style="fill:#263238"></path><path d="M357.06,409a2.65,2.65,0,0,1-.28-.84,1.31,1.31,0,0,1,0-.49l0-.29.12-.3a2.33,2.33,0,0,1,1.13-1c2-.93,5.36-1,8.67-3.1a38.33,38.33,0,0,0,5-3.9,46.43,46.43,0,0,1,5.8-4.56,35.17,35.17,0,0,1,16-5.22,42.08,42.08,0,0,1,16.71,2,53.87,53.87,0,0,1,12.42,6,62.75,62.75,0,0,1,7.44,5.57c.83.72,1.46,1.29,1.88,1.69a5.15,5.15,0,0,1,.61.63,7.73,7.73,0,0,1-.68-.55c-.44-.38-1.09-.92-1.94-1.62a72.1,72.1,0,0,0-7.5-5.41,54.71,54.71,0,0,0-12.37-5.82,42.4,42.4,0,0,0-16.53-2A35.27,35.27,0,0,0,377.79,395a47.74,47.74,0,0,0-5.78,4.49,37.67,37.67,0,0,1-5.12,3.89c-3.41,2.13-6.82,2.11-8.78,3a2.25,2.25,0,0,0-1.07.85l-.12.26,0,.27a1.42,1.42,0,0,0,0,.46C357,408.71,357.09,409,357.06,409Z" style="fill:#263238"></path><g style="opacity:0.30000000000000004"><path d="M371.9,407.64c6.1,2.7,11.15,8.44,14,14.48a17.13,17.13,0,0,1,1.36,7.09,4.64,4.64,0,0,1-2.14,4.12c-1.77,1.12-4.92,2.32-7,2.2-3.4-.21-5.88-1.7-9.27-1.91-4.44-.27-12.18-1.49-12.2-1.79-.15-2.2-3.11-7.91-3.48-12.09,0-.2,0-.43-.06-.67a11.74,11.74,0,0,1,13.27-13A21,21,0,0,1,371.9,407.64Z"></path></g><path d="M371.9,407.64,357.06,409s-25.86-7.31-31-6.07c-4.61,1.11-20.9,13.68-24.09,16.17a2.14,2.14,0,0,0-.73,1.09h0a3.67,3.67,0,0,0,2.37,4.51l.36.12-.12.52a6.4,6.4,0,0,0-.11,2.06,2.47,2.47,0,0,0,4.66.74l-.57,1.19a2.86,2.86,0,0,0-.24,1.56l.13,1a2.79,2.79,0,0,0,2.11,2.37h0a2.79,2.79,0,0,0,2.88-1c2-2.53,6.34-7.64,9.47-8.4a74.41,74.41,0,0,1,10.31-1.25,3.51,3.51,0,0,1,3.41,2h0c-1.87.26-14.48,8-18.94,10.8a5,5,0,0,0-2.43,3.93c-.07,1.46.77,2.93,3.59,2,6.06-1.88,16.78-7.76,16.78-7.76s5.6-2,9.49.31c5.47,3.3,7.95,4.48,12.32,2.68a37.78,37.78,0,0,0,7.52-4.17l18.91-.43a4.16,4.16,0,0,0,4.08-4.38C387,423.39,384.49,414.21,371.9,407.64Z" style="fill:#ffbe9d"></path><path d="M334.8,415.52c0,.1-1.82-.34-4.78-.32a24.51,24.51,0,0,0-19.76,10.15c-1.74,2.39-2.44,4.11-2.53,4.07a6.47,6.47,0,0,1,.48-1.21,22.25,22.25,0,0,1,1.77-3.06,23.79,23.79,0,0,1,20-10.29,22.27,22.27,0,0,1,3.52.34A5.76,5.76,0,0,1,334.8,415.52Z" style="fill:#eb996e"></path><path d="M331.69,409.59a20.41,20.41,0,0,0-5-.51,21.55,21.55,0,0,0-11.23,4.06,46.31,46.31,0,0,0-8.69,8.48l-2.34,2.87a8.66,8.66,0,0,1-.89,1,7.17,7.17,0,0,1,.75-1.14c.51-.71,1.26-1.73,2.22-3a43,43,0,0,1,8.67-8.65,21.06,21.06,0,0,1,11.5-4,13.92,13.92,0,0,1,3.71.41,7.82,7.82,0,0,1,1,.3C331.59,409.52,331.7,409.57,331.69,409.59Z" style="fill:#eb996e"></path><path d="M357.35,408.92a2.34,2.34,0,0,1,.33-.43,8.16,8.16,0,0,1,1.15-1,10,10,0,0,1,5.32-1.8,16.08,16.08,0,0,1,8.11,2,30.22,30.22,0,0,1,8.22,6.11,30.53,30.53,0,0,1,5.75,8.48,14.3,14.3,0,0,1,1.35,4.29,6.41,6.41,0,0,1-.75,3.87,9.41,9.41,0,0,1-2.08,2.49,17.28,17.28,0,0,1-1.95,1.45c-.56.36-1,.62-1.31.79a1.84,1.84,0,0,1-.48.24s.6-.43,1.68-1.2a20,20,0,0,0,1.87-1.5,9.29,9.29,0,0,0,1.94-2.45,6,6,0,0,0,.65-3.64,14.14,14.14,0,0,0-1.36-4.14,30.79,30.79,0,0,0-13.74-14.36,16.1,16.1,0,0,0-7.88-2,10.35,10.35,0,0,0-5.23,1.61A17,17,0,0,0,357.35,408.92Z" style="fill:#263238"></path><path d="M403,390.08a5.13,5.13,0,0,1,1.24-.17,30.64,30.64,0,0,1,3.41-.13,45,45,0,0,1,11.15,1.53,44.51,44.51,0,0,1,10.42,4.25,33,33,0,0,1,2.89,1.81,5.75,5.75,0,0,1,1,.77c0,.08-1.53-.92-4.06-2.26a50.53,50.53,0,0,0-10.37-4.07,51.07,51.07,0,0,0-11-1.66C404.77,390,403,390.17,403,390.08Z" style="fill:#263238"></path><path d="M398.3,433.63a23.27,23.27,0,0,0-4.52-21.2,37.21,37.21,0,0,0-12.39-9.82c-1.82-.93-3.35-1.6-4.4-2a12.94,12.94,0,0,1-1.64-.72,1.81,1.81,0,0,1,.45.11c.29.09.72.22,1.26.42a45.84,45.84,0,0,1,4.49,1.9,35.87,35.87,0,0,1,12.64,9.83,26.31,26.31,0,0,1,4.18,7.83,22.44,22.44,0,0,1,1.17,7.15,18.51,18.51,0,0,1-.64,4.85,12.57,12.57,0,0,1-.41,1.26A1.63,1.63,0,0,1,398.3,433.63Z" style="fill:#263238"></path><path d="M169,338.87a6.63,6.63,0,0,1-.23-1.41c-.12-1-.28-2.3-.48-3.85-.41-3.25-1-7.73-1.94-12.65s-1.91-9.33-2.68-12.52l-.92-3.77a7.94,7.94,0,0,1-.29-1.4,6.5,6.5,0,0,1,.48,1.35c.28.87.66,2.15,1.09,3.73.86,3.17,1.92,7.59,2.83,12.52s1.48,9.43,1.8,12.7c.16,1.63.26,3,.31,3.87A7.42,7.42,0,0,1,169,338.87Z" style="fill:#fff"></path><path d="M411,395.17s-.59-.23-1.63-.66a38.91,38.91,0,0,0-4.49-1.55,35.75,35.75,0,0,0-29.92,4.9,38.42,38.42,0,0,0-3.76,2.9,12.65,12.65,0,0,1-1.34,1.14,1.9,1.9,0,0,1,.29-.35c.21-.22.5-.55.91-.94a32,32,0,0,1,3.69-3.05,34.63,34.63,0,0,1,30.23-4.95,30.68,30.68,0,0,1,4.48,1.72c.51.23.89.45,1.15.59S411,395.15,411,395.17Z" style="fill:#fff"></path><path d="M373.71,394.13s-.11-.12-.29-.38-.43-.68-.72-1.13l-2.6-4.22c-2.2-3.55-5.23-8.47-9.08-13.54-1.92-2.54-3.83-4.91-5.44-7.17a44.74,44.74,0,0,1-3.87-6.27,25,25,0,0,1-1.81-4.62c-.17-.56-.24-1-.31-1.32a1.38,1.38,0,0,1-.06-.47,17,17,0,0,1,.56,1.73,29.29,29.29,0,0,0,2,4.52,49.15,49.15,0,0,0,3.93,6.15c1.62,2.23,3.54,4.59,5.47,7.14a142,142,0,0,1,9,13.66c1.05,1.81,1.89,3.28,2.45,4.3l.65,1.19A1.78,1.78,0,0,1,373.71,394.13Z" style="fill:#fff"></path><path d="M165.7,383.51a17.66,17.66,0,0,1-3,2.67c-1.95,1.54-4.67,3.63-7.7,5.9s-5.79,4.3-7.8,5.76l-2.39,1.71a4.08,4.08,0,0,1-.91.57,4.58,4.58,0,0,1,.79-.73c.53-.45,1.31-1.08,2.29-1.85,1.95-1.53,4.67-3.61,7.71-5.88l7.78-5.77,2.36-1.75A7.39,7.39,0,0,1,165.7,383.51Z" style="fill:#fff"></path><path d="M144.44,411s-.55-.63-1.53-1.78a37.52,37.52,0,0,0-4.55-4.43,41.05,41.05,0,0,0-18.86-8.63,48.38,48.38,0,0,0-20.79,1.1,54.84,54.84,0,0,0-6,2c-.71.26-1.24.5-1.62.64a4.18,4.18,0,0,1-.57.2,2.19,2.19,0,0,1,.53-.3c.36-.17.88-.44,1.58-.73a49.67,49.67,0,0,1,6-2.16,47.36,47.36,0,0,1,21-1.26,40.24,40.24,0,0,1,19,8.86,34,34,0,0,1,4.48,4.59c.49.58.8,1.08,1,1.4A3.38,3.38,0,0,1,144.44,411Z" style="fill:#fff"></path><path d="M141,397.93a2.63,2.63,0,0,1-.31-.46l-.81-1.38-.58-1c-.22-.36-.49-.73-.76-1.14-.55-.81-1.13-1.78-1.91-2.74l-1.18-1.54c-.42-.53-.91-1-1.38-1.59-.93-1.13-2-2.2-3.21-3.36a56.68,56.68,0,0,0-8.38-6.51,58.35,58.35,0,0,0-9.51-4.73c-1.54-.53-3-1.08-4.41-1.43-.7-.18-1.37-.4-2-.54l-1.91-.4c-1.2-.29-2.32-.39-3.29-.54-.49-.06-.94-.14-1.36-.18l-1.15-.09-1.59-.13a2.11,2.11,0,0,1-.56-.09,3.42,3.42,0,0,1,.56,0l1.6,0,1.16,0c.42,0,.88.09,1.37.14a32.7,32.7,0,0,1,3.33.47l1.92.36c.67.14,1.35.35,2.06.53,1.43.33,2.91.87,4.47,1.4a51.39,51.39,0,0,1,18.06,11.34c1.15,1.18,2.28,2.27,3.2,3.41.47.57.95,1.09,1.36,1.63L137,391c.77,1,1.33,2,1.87,2.8.26.42.51.81.72,1.17s.38.72.54,1l.73,1.43A2,2,0,0,1,141,397.93Z" style="fill:#fff"></path><path d="M362.7,290.06a2,2,0,0,1-.26.51l-.82,1.43c-.37.61-.82,1.36-1.3,2.25s-1.06,1.89-1.63,3c-1.19,2.26-2.48,5-3.78,8.11s-2.54,6.61-3.64,10.34-1.89,7.35-2.5,10.67-1,6.33-1.18,8.87c-.15,1.27-.19,2.42-.26,3.43s-.11,1.88-.13,2.6-.05,1.21-.07,1.64a2.09,2.09,0,0,1-.06.57,2.25,2.25,0,0,1,0-.57q0-.65,0-1.65c0-.71,0-1.59,0-2.6s.06-2.18.18-3.45c.17-2.56.52-5.59,1.08-8.93a94.59,94.59,0,0,1,6.17-21.1c1.33-3.11,2.66-5.86,3.9-8.1.58-1.14,1.19-2.13,1.7-3s1-1.62,1.37-2.22l.91-1.37A3.16,3.16,0,0,1,362.7,290.06Z" style="fill:#fff"></path><path d="M179,251.36s-8.2-12.83,0-22.81,58.82-20,62.39-20.68,22.1-3.21,24.24-2.5,29.95,14.26,40.29,21,26.48,17.53,16.34,30.66c-10.47,13.54-43.84,49.78-43.84,49.78L255.24,333s-23.53-29.94-28.88-34.58S179,251.36,179,251.36Z" style="fill:#7E57C2"></path><path d="M179,251.36s-8.2-12.83,0-22.81,58.82-20,62.39-20.68,22.1-3.21,24.24-2.5,29.95,14.26,40.29,21,25.6,18.57,17.22,29.66c-10.33,13.66-43,48.87-43,48.87L255.24,333s-23.53-29.94-28.88-34.58S179,251.36,179,251.36Z" style="opacity:0.30000000000000004"></path><path d="M197.09,218.08s-.91,17.7.31,23.91,22.43,41.43,34.47,49.82,13.11,11.75,23.44,9,15.4-11.51,20.76-17.85S293.73,265.59,297,255.7s6.19-30.9,6.19-30.9l-40.56-20.49C242.51,205,220.13,210.76,197.09,218.08Z" style="fill:#7E57C2"></path><path d="M197.09,218.08s-.91,17.7.31,23.91,22.43,41.43,34.47,49.82,13.11,11.75,23.44,9,15.4-11.51,20.76-17.85S293.73,265.59,297,255.7s6.19-30.9,6.19-30.9l-40.56-20.49C242.51,205,220.13,210.76,197.09,218.08Z" style="opacity:0.5"></path><path d="M249.56,147.14h0c-24.43.39-44.18,19.43-44.61,43.05-.38,21.1-.53,44.38.35,55.63,1.82,23.33,26.22,25.47,26.22,25.47l.22,14.3c0,2.35-.18,6-.18,6,11.24,7.94,13.61,11.9,23.69,9.23,10.33-2.73,15.4-11.51,20.75-17.85,4.38-5.17,13.36-13.48,18.28-21.74l.28-69.83C295.15,167,274.8,147,249.56,147.14Z" style="fill:#ffbe9d"></path><path d="M204.65,222s23.62-7.7,38.29-8.06c9-.22,51.48,12.1,51.48,12.1l0-4s-31.87-16.65-53.17-14.13a151.15,151.15,0,0,0-36.62,8.9Z" style="fill:#eb996e"></path><path d="M231.56,271.35s15.35.26,30.94-10.6c0,0-6.58,17.53-30.83,16.91Z" style="fill:#eb996e"></path><path d="M212.61,203.56c.44.43,3-1.5,6.74-1.57s6.48,1.66,6.88,1.21c.19-.2-.26-1-1.47-1.78a9.69,9.69,0,0,0-5.52-1.52,9.42,9.42,0,0,0-5.35,1.8C212.77,202.58,212.4,203.37,212.61,203.56Z" style="fill:#263238"></path><path d="M249.42,202.3c.45.42,3-1.56,6.71-1.7s6.51,1.55,6.9,1.09c.19-.2-.28-1-1.51-1.76a9.76,9.76,0,0,0-5.54-1.41,9.35,9.35,0,0,0-5.32,1.9C249.56,201.32,249.2,202.12,249.42,202.3Z" style="fill:#263238"></path><path d="M235.79,227.43c0-.21-2.32-.45-6.09-.68-1,0-1.87-.17-2.07-.78a4.54,4.54,0,0,1,.46-2.76c.74-2.27,1.53-4.65,2.35-7.15,3.25-10.17,5.53-18.51,5.11-18.64s-3.41,8-6.65,18.2l-2.23,7.19c-.29,1.06-.83,2.28-.26,3.62a2.38,2.38,0,0,0,1.65,1.25,6.83,6.83,0,0,0,1.62.12C233.46,227.76,235.79,227.63,235.79,227.43Z" style="fill:#263238"></path><path d="M246.9,194.06c.6.87,4.1-.43,8.46-.93s8.08-.19,8.43-1.18c.15-.46-.67-1.22-2.28-1.81a14.52,14.52,0,0,0-6.63-.63,14.35,14.35,0,0,0-6.24,2.23C247.23,192.72,246.64,193.65,246.9,194.06Z" style="fill:#263238"></path><path d="M211.24,194.5c.49,1,3.39.76,6.64,1.48s5.84,1.93,6.68,1.24c.38-.34.15-1.23-.86-2.26a10.07,10.07,0,0,0-5.06-2.56,10.21,10.21,0,0,0-5.68.37C211.62,193.31,211,194,211.24,194.5Z" style="fill:#263238"></path><path d="M250.24,234.91c-.15.2-1-.26-2.48-.62a10.82,10.82,0,0,0-5.65.06,10.57,10.57,0,0,0-4.7,3c-1,1.1-1.44,2-1.68,1.87s-.15-1.1.7-2.54a9.26,9.26,0,0,1,5.18-3.94,9.54,9.54,0,0,1,6.57.42C249.72,233.92,250.37,234.75,250.24,234.91Z" style="fill:#263238"></path><path d="M216.06,206.71a3.36,3.36,0,0,0,3.5,3.12,3.22,3.22,0,0,0,3.32-3.19,3.37,3.37,0,0,0-3.5-3.12A3.22,3.22,0,0,0,216.06,206.71Z" style="fill:#263238"></path><path d="M252.86,205.11a3.35,3.35,0,0,0,3.5,3.12,3.21,3.21,0,0,0,3.32-3.18,3.37,3.37,0,0,0-3.5-3.12A3.2,3.2,0,0,0,252.86,205.11Z" style="fill:#263238"></path><path d="M231.56,271.35s15.35.26,30.94-10.6c0,0-6.58,17.53-30.83,16.91Z" style="fill:#eb996e"></path><path d="M212.61,203.56c.44.43,3-1.5,6.74-1.57s6.48,1.66,6.88,1.21c.19-.2-.26-1-1.47-1.78a9.69,9.69,0,0,0-5.52-1.52,9.42,9.42,0,0,0-5.35,1.8C212.77,202.58,212.4,203.37,212.61,203.56Z" style="fill:#263238"></path><path d="M249.42,202.3c.45.42,3-1.56,6.71-1.7s6.51,1.55,6.9,1.09c.19-.2-.28-1-1.51-1.76a9.76,9.76,0,0,0-5.54-1.41,9.35,9.35,0,0,0-5.32,1.9C249.56,201.32,249.2,202.12,249.42,202.3Z" style="fill:#263238"></path><path d="M235.79,227.43c0-.21-2.32-.45-6.09-.68-1,0-1.87-.17-2.07-.78a4.54,4.54,0,0,1,.46-2.76c.74-2.27,1.53-4.65,2.35-7.15,3.25-10.17,5.53-18.51,5.11-18.64s-3.41,8-6.65,18.2l-2.23,7.19c-.29,1.06-.83,2.28-.26,3.62a2.38,2.38,0,0,0,1.65,1.25,6.83,6.83,0,0,0,1.62.12C233.46,227.76,235.79,227.63,235.79,227.43Z" style="fill:#263238"></path><path d="M246.9,194.06c.6.87,4.1-.43,8.46-.93s8.08-.19,8.43-1.18c.15-.46-.67-1.22-2.28-1.81a14.52,14.52,0,0,0-6.63-.63,14.35,14.35,0,0,0-6.24,2.23C247.23,192.72,246.64,193.65,246.9,194.06Z" style="fill:#263238"></path><path d="M211.24,194.5c.49,1,3.39.76,6.64,1.48s5.84,1.93,6.68,1.24c.38-.34.15-1.23-.86-2.26a10.07,10.07,0,0,0-5.06-2.56,10.21,10.21,0,0,0-5.68.37C211.62,193.31,211,194,211.24,194.5Z" style="fill:#263238"></path><path d="M250.24,234.91c-.15.2-1-.26-2.48-.62a10.82,10.82,0,0,0-5.65.06,10.57,10.57,0,0,0-4.7,3c-1,1.1-1.44,2-1.68,1.87s-.15-1.1.7-2.54a9.26,9.26,0,0,1,5.18-3.94,9.54,9.54,0,0,1,6.57.42C249.72,233.92,250.37,234.75,250.24,234.91Z" style="fill:#263238"></path><path d="M216.06,206.71a3.36,3.36,0,0,0,3.5,3.12,3.22,3.22,0,0,0,3.32-3.19,3.37,3.37,0,0,0-3.5-3.12A3.22,3.22,0,0,0,216.06,206.71Z" style="fill:#263238"></path><path d="M252.86,205.11a3.35,3.35,0,0,0,3.5,3.12,3.21,3.21,0,0,0,3.32-3.18,3.37,3.37,0,0,0-3.5-3.12A3.2,3.2,0,0,0,252.86,205.11Z" style="fill:#263238"></path><path d="M323.85,237.91c-3.41-5-6.62-13.55-6.62-13.55l-4.34-29.54S292,159.34,289.53,154.7s-14.62-17.47-14.62-17.47-7.7-7.7-16.43-11.19a12.48,12.48,0,0,0-11,.89c-8.57,5.13-27.35,16.78-31.72,22.78-5.71,7.84-18.92,33.19-18.92,33.19s-3.65,11.87-7.21,16.15-15.07,27.09-15.06,34.22c0,1.44.68,4.22.76,5.57.35-2.72.75-6.88,2.89-9.49,8.2-10,58.82-20,62.39-20.68s19.54,1.71,21.67,2.42,32.06,9.39,42.76,15.58c8,4.63,17.4,11,20,19.44l-.38-1.13S327.27,242.9,323.85,237.91Z" style="fill:#7E57C2"></path><path d="M322.21,257.07a3.89,3.89,0,0,1,.27-.41c.2-.25.46-.65.8-1.18a13.21,13.21,0,0,0,1.93-5.06,10.12,10.12,0,0,0-.23-3.9,16.8,16.8,0,0,0-2-4.21,28.72,28.72,0,0,0-3.14-4.37,24.31,24.31,0,0,0-2.12-2.05c-.75-.69-1.51-1.38-2.36-2-6.56-5.42-15.66-10.21-26.28-13.93-5.3-1.9-11-3.61-16.86-5.32A163.27,163.27,0,0,0,253.8,210,54.14,54.14,0,0,0,235,210c-6,1-11.75,2.59-17.22,4-10.92,2.81-20.7,5.6-28.6,8.8a27.59,27.59,0,0,0-9.6,6.08,15,15,0,0,0-4,7.53,11.25,11.25,0,0,0,.23,5.4c.39,1.19.75,1.75.71,1.77s-.09-.14-.24-.43a8.53,8.53,0,0,1-.57-1.31,11.15,11.15,0,0,1-.33-5.47,15.05,15.05,0,0,1,3.94-7.69,27.61,27.61,0,0,1,9.67-6.22c7.91-3.26,17.7-6.08,28.62-8.92,5.46-1.41,11.18-3,17.26-4a58.8,58.8,0,0,1,9.36-.83,59.6,59.6,0,0,1,9.64.84,163.61,163.61,0,0,1,18.45,4.62c5.89,1.71,11.57,3.44,16.88,5.35,10.65,3.76,19.78,8.61,26.36,14.11.84.66,1.61,1.37,2.36,2.06a23.29,23.29,0,0,1,2.12,2.09,27.75,27.75,0,0,1,3.15,4.44,16.62,16.62,0,0,1,2,4.3,10.15,10.15,0,0,1,.19,4,13,13,0,0,1-2,5.09A14.92,14.92,0,0,1,322.21,257.07Z" style="fill:#263238"></path><path d="M250.33,164.79a2.31,2.31,0,0,1-.54.16l-1.56.34c-.69.14-1.52.32-2.47.56s-2.06.48-3.25.83c-2.4.64-5.22,1.53-8.3,2.66a94.63,94.63,0,0,0-19,9.58c-2.74,1.8-5.14,3.53-7.08,5.08-1,.75-1.84,1.49-2.6,2.12s-1.4,1.18-1.92,1.65l-1.21,1a2.39,2.39,0,0,1-.45.34,2.12,2.12,0,0,1,.38-.42l1.14-1.12c.5-.49,1.12-1.08,1.87-1.72s1.58-1.42,2.56-2.19a86.87,86.87,0,0,1,7-5.19,95.89,95.89,0,0,1,9.27-5.39,98.78,98.78,0,0,1,9.85-4.24,85.35,85.35,0,0,1,8.38-2.56c1.2-.34,2.31-.55,3.27-.76s1.81-.37,2.5-.48l1.58-.25A2.14,2.14,0,0,1,250.33,164.79Z" style="fill:#263238"></path><path d="M269.59,153.35a4.77,4.77,0,0,1-1,.36c-.68.2-1.67.47-2.9.79-2.46.63-5.88,1.42-9.68,2.18s-7.27,1.33-9.79,1.68c-1.25.18-2.27.31-3,.39a4.44,4.44,0,0,1-1.11.06,4.8,4.8,0,0,1,1.08-.26l3-.55c2.5-.45,5.95-1.08,9.74-1.83s7.23-1.49,9.71-2l2.94-.63A4,4,0,0,1,269.59,153.35Z" style="fill:#263238"></path><path d="M303.81,234.38s0,.07,0,.23,0,.4,0,.67c0,.59,0,1.46-.06,2.58a37.69,37.69,0,0,1-1.89,9.29,54.89,54.89,0,0,1-6.27,12.59,136.56,136.56,0,0,1-10.54,13.62L264.8,297.11l-6.2,7.16-1.71,1.93-.45.49a.79.79,0,0,1-.17.16s0-.07.13-.19l.41-.53,1.63-2,6.08-7.27L284.72,273a142.63,142.63,0,0,0,10.53-13.55A56.16,56.16,0,0,0,301.57,247a39.39,39.39,0,0,0,2-9.19c.1-1.11.14-2,.15-2.56,0-.27,0-.49,0-.67A.6.6,0,0,1,303.81,234.38Z" style="fill:#263238"></path><path d="M259.14,303.16a.64.64,0,0,1-.24,0l-.69,0a26.1,26.1,0,0,1-2.68-.1,36.08,36.08,0,0,1-9.6-2.19,48.86,48.86,0,0,1-12.7-7.21,74.54,74.54,0,0,1-12.51-12.78c-3.93-5-7.26-10-10.29-14.63s-5.62-8.81-7.58-12.48a82.06,82.06,0,0,1-4.2-8.91c-.42-1.09-.73-1.93-.92-2.52l-.21-.66a.7.7,0,0,1-.06-.23.72.72,0,0,1,.11.21l.26.65c.22.57.56,1.4,1,2.47a91.81,91.81,0,0,0,4.33,8.81c2,3.64,4.62,7.82,7.66,12.4s6.39,9.6,10.3,14.57a75.12,75.12,0,0,0,12.4,12.72,49.19,49.19,0,0,0,12.53,7.24,37.87,37.87,0,0,0,9.49,2.34c1.15.12,2.05.18,2.66.19l.69,0A.75.75,0,0,1,259.14,303.16Z" style="fill:#263238"></path><path d="M248.72,323.1a.86.86,0,0,1-.18-.17l-.49-.53-1.84-2.06-6.76-7.57c-5.73-6.38-13.76-15.09-22.91-24.43s-17.71-17.55-24-23.4L185.12,258l-2-1.88c-.21-.2-.38-.36-.51-.5a.86.86,0,0,1-.17-.18s.08,0,.2.14l.55.46,2.09,1.81c1.81,1.58,4.39,3.89,7.56,6.79,6.33,5.79,14.92,14,24.09,23.3s17.16,18.11,22.82,24.55c2.83,3.22,5.1,5.85,6.63,7.69l1.77,2.13.45.56C248.68,323,248.73,323.09,248.72,323.1Z" style="fill:#263238"></path><path d="M323.09,256.07c.11.09-12.59,14.69-28.36,32.59S266.09,321,266,320.91s12.59-14.68,28.36-32.59S323,256,323.09,256.07Z" style="fill:#263238"></path><g style="opacity:0.30000000000000004"><path d="M200.69,189.17c7-7.72,15.19-14.2,23.37-20.63a47.92,47.92,0,0,1,8.5-5.75c5.19-2.5,11.07-3,16.82-3.42,4.69-.33,9.39-.58,14.09-.78a7.32,7.32,0,0,1,3.81.54,2.54,2.54,0,0,1,1.25,3.26c-.65,1.1-2.15,1.23-3.42,1.25a101.27,101.27,0,0,0-62.48,23.24"></path></g><path d="M253.92,332c-.11.1-8.62-9.55-19-21.54s-18.71-21.78-18.6-21.88,8.61,9.55,19,21.54S254,331.88,253.92,332Z" style="fill:#fff"></path><path d="M281.05,306.52a26.81,26.81,0,0,1-2.49,2.53c-1.57,1.53-3.72,3.66-6,6.06s-4.35,4.64-5.82,6.26a27.3,27.3,0,0,1-2.43,2.59,3.22,3.22,0,0,1,.53-.8c.37-.49.92-1.18,1.62-2,1.4-1.69,3.4-4,5.73-6.38s4.52-4.5,6.16-6c.81-.73,1.49-1.31,2-1.69A3.72,3.72,0,0,1,281.05,306.52Z" style="fill:#fff"></path><path d="M273.94,292.58a16.8,16.8,0,0,1-1.86,2.15l-4.65,5-4.61,5.07a15.57,15.57,0,0,1-2,2,15.09,15.09,0,0,1,1.7-2.28c1.11-1.36,2.69-3.2,4.51-5.18s3.51-3.71,4.77-4.94A14.86,14.86,0,0,1,273.94,292.58Z" style="fill:#fff"></path><path d="M262,257.55s-.1.14-.32.37l-1,1-.72.7c-.27.25-.59.49-.92.76a26.5,26.5,0,0,1-2.31,1.77l-1.41.95c-.49.33-1,.61-1.58.93-1.09.66-2.34,1.21-3.63,1.82a40.05,40.05,0,0,1-18.16,3.26,37.09,37.09,0,0,1-4-.44c-.62-.11-1.23-.18-1.81-.31l-1.65-.41a23.82,23.82,0,0,1-2.78-.85c-.41-.14-.79-.26-1.13-.39l-.92-.41-1.26-.57q-.44-.21-.42-.24a3.25,3.25,0,0,1,.46.14l1.3.48.93.37c.34.12.72.22,1.13.35a27.83,27.83,0,0,0,2.78.76l1.64.37c.57.12,1.18.18,1.8.28a36.71,36.71,0,0,0,4,.39,41.38,41.38,0,0,0,17.94-3.22c1.28-.59,2.52-1.12,3.61-1.76.54-.31,1.09-.58,1.58-.89l1.41-.92a27.1,27.1,0,0,0,2.34-1.69c.33-.26.66-.49.94-.72l.74-.66,1.05-.91A2,2,0,0,1,262,257.55Z" style="fill:#fff"></path><path d="M288.38,217.76a.94.94,0,0,1-.25,0l-.7-.19c-.62-.18-1.54-.43-2.7-.82-2.34-.73-5.67-1.91-9.79-3.39a137,137,0,0,0-14.63-4.54,71.84,71.84,0,0,0-8.89-1.53,77.39,77.39,0,0,0-9.69-.25,38.64,38.64,0,0,0-9.55,1.44l-8.77,2.31c-5.58,1.5-10.59,2.9-14.79,4.11l-9.94,2.89-2.7.78-.71.19a.88.88,0,0,1-.25,0l.23-.1.69-.24,2.68-.87c2.33-.75,5.71-1.8,9.9-3.05s9.19-2.7,14.76-4.23l8.77-2.34a39,39,0,0,1,9.66-1.46,76.65,76.65,0,0,1,9.76.26,72.4,72.4,0,0,1,9,1.57A130.59,130.59,0,0,1,275.07,213c4.1,1.52,7.41,2.75,9.72,3.54,1.15.41,2.06.7,2.67.91l.69.24Z" style="fill:#fff"></path></g><g id="freepik--Device--inject-2"><path d="M166.55,357l10,100H342l5.06-101.67a8.32,8.32,0,0,0-8.61-8.52L175,348.12A8.31,8.31,0,0,0,166.55,357Z" style="fill:#455a64"></path><ellipse cx="260.43" cy="398.24" rx="9.12" ry="8.68" style="fill:#fafafa"></ellipse><path d="M223.51,390A25.44,25.44,0,0,0,220,382.6c-3.67-4.57-8.2-7.18-14.42-6.33a17.64,17.64,0,0,0-5.11,1.52h0l-.19.1c-.4.19-.8.38-1.18.6h0a17.19,17.19,0,0,0-4.13,3.25c-4.13,4.51-4.29,9.54-2.27,15a25.86,25.86,0,0,0,4.61,6.83c.79.77,1.88,1.44,1.89,1.7s-.62,1.14,1,3.62c1.27,1.92,5.12.68,6.8,0a1,1,0,0,1,1.25.42l2.18,3.78a1,1,0,0,0,1.35.38l.47-.25a.93.93,0,0,0,.41-1.26l-.48-.9a.93.93,0,0,1,.41-1.26,1,1,0,0,1,1.35.38l.7,1.22a1,1,0,0,0,1.35.38l.47-.25a.91.91,0,0,0,.39-1.28l-.66-1.15a.93.93,0,0,1,.4-1.28l.14-.07h0a1,1,0,0,1,1.35.38l.65,1.15a1,1,0,0,0,1.35.39l.46-.24a.92.92,0,0,0,.41-1.28l-.7-1.23a.92.92,0,0,1,.41-1.28A1,1,0,0,1,222,406l.53.87a1,1,0,0,0,1.33.36l.48-.25a.92.92,0,0,0,.4-1.28l-2.14-3.8a.91.91,0,0,1,.3-1.22c1.51-1,4.69-3.38,3.69-5.44-1.3-2.67-2.3-2.56-2.64-2.79A13,13,0,0,1,223.51,390Z" style="fill:#e0e0e0"></path><path d="M223.51,390a5.43,5.43,0,0,1,.15.63c0,.22.08.48.12.78a2.77,2.77,0,0,0,.24,1,3.43,3.43,0,0,1,1.2.66,5.37,5.37,0,0,1,1,1.31c.15.25.3.53.45.81a2.15,2.15,0,0,1,.2,1,3.64,3.64,0,0,1-.9,2,11.23,11.23,0,0,1-1.74,1.7c-.34.27-.69.52-1.05.77a.85.85,0,0,0-.54.93,2.47,2.47,0,0,0,.28.57l.35.61L224,404l.75,1.31a1.43,1.43,0,0,1,.29.81,1.14,1.14,0,0,1-.4.83,4.56,4.56,0,0,1-.73.41,1.24,1.24,0,0,1-1.64-.57l-.43-.71a.83.83,0,0,0-1.2-.24.73.73,0,0,0-.3.58.72.72,0,0,0,.08.32l.22.38.44.78a1.18,1.18,0,0,1,.13,1,1.34,1.34,0,0,1-.75.73,1.6,1.6,0,0,1-1,.27,1.25,1.25,0,0,1-.93-.6l-.47-.82c-.16-.3-.27-.52-.5-.62a.82.82,0,0,0-.73,0l.1-.32h0l.12.23-.22.08a.73.73,0,0,0-.41,1.09l.44.75.22.39a1.11,1.11,0,0,1,.13.54,1.18,1.18,0,0,1-.5.94,4.5,4.5,0,0,1-.88.43,1.25,1.25,0,0,1-1.42-.61l-.23-.4-.46-.79a.74.74,0,0,0-.57-.35.73.73,0,0,0-.81.86,7.68,7.68,0,0,0,.41.8,1.38,1.38,0,0,1,.23,1.07,1.29,1.29,0,0,1-.75.85l-.45.23a1.32,1.32,0,0,1-.59.08,1.25,1.25,0,0,1-1-.62l-.49-.85-1-1.71-.5-.86c-.18-.32-.29-.55-.53-.64a.85.85,0,0,0-.77,0c-.31.13-.64.24-1,.35a9.47,9.47,0,0,1-4.15.55,2.65,2.65,0,0,1-1.89-1.16,7.91,7.91,0,0,1-1-1.93,2.76,2.76,0,0,1-.13-1.25,2.51,2.51,0,0,1,0-.31c0-.08,0-.21,0-.15a2.24,2.24,0,0,0-.31-.3,17.6,17.6,0,0,1-1.76-1.51,21.54,21.54,0,0,1-2.77-3.65q-.6-1-1.11-1.95c-.17-.33-.34-.66-.5-1l-.37-1.06a18.3,18.3,0,0,1-.89-4.29,12.49,12.49,0,0,1,2.06-8,16.48,16.48,0,0,1,5.69-5.21l-.08.31h0l-.13-.21.21-.1,1.39-.71.19-.1.1.2h0l-.29-.1a16.16,16.16,0,0,1,12.18-.86,17.45,17.45,0,0,1,7.52,5.77,26.62,26.62,0,0,1,2.84,5.42,11.82,11.82,0,0,1,.59,2.07,2.31,2.31,0,0,1-.18-.52c-.1-.34-.28-.85-.54-1.51a28.11,28.11,0,0,0-2.92-5.31,17.12,17.12,0,0,0-7.43-5.58,15.8,15.8,0,0,0-11.88.92l-.19.09-.1-.19h0l.29.1-1.35.7.08-.31h0l.12.19-.2.12a16,16,0,0,0-5.52,5.08,12,12,0,0,0-2,7.71,17.93,17.93,0,0,0,.87,4.16l.36,1c.15.33.32.66.48,1,.34.65.71,1.29,1.1,1.92a20.22,20.22,0,0,0,2.71,3.55,15.67,15.67,0,0,0,1.72,1.48,1.64,1.64,0,0,1,.47.54.85.85,0,0,1,0,.42c0,.1,0,.18-.05.27a2.32,2.32,0,0,0,.12,1,7.22,7.22,0,0,0,.9,1.8,2.11,2.11,0,0,0,1.54.93,8.91,8.91,0,0,0,3.9-.54c.32-.1.63-.21.94-.33a1.4,1.4,0,0,1,1.17,0,1.35,1.35,0,0,1,.49.4c.12.18.17.3.26.45l.5.87c.33.57.66,1.14,1,1.71l.49.85a.76.76,0,0,0,.59.37,1.38,1.38,0,0,0,.77-.26.78.78,0,0,0,.5-.52c.06-.24,0-.41-.19-.72l-.23-.42a2.76,2.76,0,0,1-.22-.48,1.19,1.19,0,0,1,.29-1.1,1.27,1.27,0,0,1,2,.21l.46.8.23.4a.82.82,0,0,0,.22.26.78.78,0,0,0,.66.13,4.84,4.84,0,0,0,.72-.36.69.69,0,0,0,.31-.56.65.65,0,0,0-.08-.31l-.21-.38-.43-.75a1.15,1.15,0,0,1-.1-1,1.28,1.28,0,0,1,.7-.71l-.1.32h0l-.11-.2.21-.11a1.27,1.27,0,0,1,1.14,0,1.12,1.12,0,0,1,.44.37c.12.18.17.29.26.44l.46.82a.77.77,0,0,0,.59.38,1.21,1.21,0,0,0,.75-.22.88.88,0,0,0,.54-.49.7.7,0,0,0-.09-.68l-.44-.78-.22-.4a1,1,0,0,1-.12-.52,1.16,1.16,0,0,1,.47-.91,1.24,1.24,0,0,1,1.78.37l.43.72a.91.91,0,0,0,.49.46.88.88,0,0,0,.64,0,5.61,5.61,0,0,0,.66-.36.79.79,0,0,0,.27-.55,1.16,1.16,0,0,0-.24-.62l-.73-1.32c-.25-.43-.48-.85-.72-1.27l-.34-.62a2.61,2.61,0,0,1-.32-.67,1.09,1.09,0,0,1,.15-.77,1.6,1.6,0,0,1,.54-.48c.36-.24.71-.49,1-.75A10.7,10.7,0,0,0,225.8,398a3.53,3.53,0,0,0,.87-1.86,3.09,3.09,0,0,0-.59-1.71,5.45,5.45,0,0,0-1-1.28,3.55,3.55,0,0,0-1.17-.67c-.2-.21-.16-.41-.21-.59l-.06-.5-.08-.78A5.72,5.72,0,0,1,223.51,390Z" style="fill:#263238"></path><path d="M207.08,395.51a4.33,4.33,0,0,1-1.85,6,4.78,4.78,0,0,1-6.31-1.76,4.32,4.32,0,0,1,1.85-6A4.77,4.77,0,0,1,207.08,395.51Z" style="fill:#455a64"></path><path d="M207.08,395.51c-.05,0-.25-.33-.76-.82a4.75,4.75,0,0,0-2.63-1.24,4.59,4.59,0,0,0-3.93,1.36,4.05,4.05,0,0,0-.61,4.82,4.54,4.54,0,0,0,4.46,2.15,4.48,4.48,0,0,0,3.43-2.35,4.19,4.19,0,0,0,.36-2.86c-.16-.69-.37-1-.32-1.06s.07.07.17.24a2.82,2.82,0,0,1,.35.77,4.23,4.23,0,0,1-.23,3.07,4.79,4.79,0,0,1-3.69,2.66,5,5,0,0,1-5-2.36,4.41,4.41,0,0,1-.54-2.93,4.49,4.49,0,0,1,1.25-2.49,5,5,0,0,1,4.34-1.38,4.74,4.74,0,0,1,2.72,1.46,3.11,3.11,0,0,1,.49.69A.86.86,0,0,1,207.08,395.51Z" style="fill:#263238"></path><path d="M220,388.78a4.32,4.32,0,0,1-1.84,6,4.77,4.77,0,0,1-6.31-1.76,4.31,4.31,0,0,1,1.84-6A4.77,4.77,0,0,1,220,388.78Z" style="fill:#455a64"></path><path d="M220,388.78s-.24-.33-.75-.81a4.76,4.76,0,0,0-2.63-1.25,4.67,4.67,0,0,0-3.94,1.36,4.05,4.05,0,0,0-.6,4.82,4.53,4.53,0,0,0,4.46,2.15,4.48,4.48,0,0,0,3.43-2.35,4.25,4.25,0,0,0,.36-2.86c-.16-.69-.37-1-.33-1.06s.08.07.18.24a3,3,0,0,1,.34.77,4.25,4.25,0,0,1-.22,3.08,4.79,4.79,0,0,1-3.69,2.65,5,5,0,0,1-5-2.36,4.48,4.48,0,0,1-.55-2.93,4.54,4.54,0,0,1,1.26-2.48,5,5,0,0,1,4.34-1.39,4.74,4.74,0,0,1,2.72,1.46,4,4,0,0,1,.49.69C220,388.68,220,388.77,220,388.78Z" style="fill:#263238"></path><path d="M210.89,397.21c-.11.09-1.16,3.75.13,5.88a2,2,0,0,0,2.78.7.71.71,0,0,0,.37-.88,1.23,1.23,0,0,0,1.84-.77C217,399.68,210.89,397.21,210.89,397.21Z" style="fill:#455a64"></path><path d="M210.89,397.21a9.25,9.25,0,0,1,2.69,1.17,7.28,7.28,0,0,1,2.45,2.13,2.07,2.07,0,0,1,.21.45,1.27,1.27,0,0,1,.11.52,1.25,1.25,0,0,1,0,.54,1.73,1.73,0,0,1-.19.51,1.52,1.52,0,0,1-.88.76,1.59,1.59,0,0,1-1.19-.15l.38-.31c0,.05,0,.11.05.18a.93.93,0,0,1-.18.69,1.42,1.42,0,0,1-.49.38,2,2,0,0,1-1.1.25,2.37,2.37,0,0,1-1.8-1,5.52,5.52,0,0,1-.69-3.23,5.83,5.83,0,0,1,.68-2.9s0,.28-.13.78a12.14,12.14,0,0,0-.18,2.13,5.41,5.41,0,0,0,.72,2.95,1.85,1.85,0,0,0,1.42.75,1.65,1.65,0,0,0,.84-.19c.27-.14.44-.33.39-.54a.29.29,0,0,0,0-.09l-.2-.62.57.31a1.16,1.16,0,0,0,.79.11,1.1,1.1,0,0,0,.57-.52,1.48,1.48,0,0,0,0-1.53,7.25,7.25,0,0,0-2.22-2.06C211.88,397.73,210.86,397.29,210.89,397.21Z" style="fill:#263238"></path></g><g id="freepik--Padlock--inject-2"><path d="M383.28,116.32A20.88,20.88,0,1,0,348.19,139l18.53,28.73,5.28-3.4-18.53-28.74a14.61,14.61,0,0,1,4.36-20.18h0A14.6,14.6,0,0,1,378,119.73l4.08,6.38,5.59-2.93Z" style="fill:#7E57C2"></path><path d="M383.28,116.32A20.88,20.88,0,1,0,348.19,139l18.53,28.73,5.28-3.4-18.53-28.74a14.61,14.61,0,0,1,4.36-20.18h0A14.6,14.6,0,0,1,378,119.73l4.08,6.38,5.59-2.93Z" style="fill:#7E57C2"></path><path d="M383.28,116.32A20.88,20.88,0,1,0,348.19,139l18.53,28.73,5.28-3.4-18.53-28.74a14.61,14.61,0,0,1,4.36-20.18h0A14.6,14.6,0,0,1,378,119.73l4.08,6.38,5.59-2.93Z" style="opacity:0.30000000000000004"></path><rect x="357.67" y="140.71" width="56.28" height="36.11" rx="6.28" transform="translate(-24.47 234.43) rotate(-32.82)" style="fill:#7E57C2"></rect><path d="M414,162.09a11.07,11.07,0,0,0,1.28-1.19,6.25,6.25,0,0,0,1.45-4.65,6.8,6.8,0,0,0-.39-1.65,9.17,9.17,0,0,0-.93-1.65c-.73-1.13-1.53-2.35-2.38-3.65l-5.79-8.91-3.37-5.18a13.67,13.67,0,0,0-1.9-2.6,6,6,0,0,0-6.22-1.25,19,19,0,0,0-3.08,1.82l-6.39,4.13-28.44,18.37a6,6,0,0,0-2.23,7.47,15.4,15.4,0,0,0,1.1,1.84l1.17,1.83,2.32,3.6c3.07,4.75,6,9.33,8.84,13.7a6,6,0,0,0,6.51,2.17,12.67,12.67,0,0,0,3.12-1.7c1-.65,2-1.29,3-1.91l10.84-7,15.71-10,4.29-2.7,1.12-.69a2.7,2.7,0,0,1,.4-.22,3,3,0,0,1-.37.27l-1.09.74-4.23,2.79-15.62,10.17-10.8,7-3,1.92-1.52,1a7.1,7.1,0,0,1-1.72.8,6.52,6.52,0,0,1-7.06-2.34c-2.89-4.37-5.81-9-8.89-13.71l-2.33-3.6-1.17-1.83a14.17,14.17,0,0,1-1.14-1.91,6.48,6.48,0,0,1-.3-4.51,6.62,6.62,0,0,1,2.74-3.67L386,136.87l6.4-4.11,1.54-1a8.26,8.26,0,0,1,1.64-.86,6.56,6.56,0,0,1,3.61-.25,6.47,6.47,0,0,1,3.09,1.63,13.66,13.66,0,0,1,2,2.69c1.16,1.8,2.27,3.54,3.33,5.2,2.12,3.31,4,6.31,5.72,8.95.84,1.31,1.62,2.54,2.35,3.67a9.49,9.49,0,0,1,.92,1.71,6.45,6.45,0,0,1,.39,1.72,6.34,6.34,0,0,1-1.58,4.74A5,5,0,0,1,414,162.09Z" style="fill:#263238"></path><g style="opacity:0.5"><path d="M387.21,152.26a4.7,4.7,0,1,0-2.59,7l3.82,5.91,2.15-1.39-3.81-5.91A4.68,4.68,0,0,0,387.21,152.26Z"></path></g><path d="M372.61,184.68c-.11.07-3.46-4.93-7.48-11.17s-7.2-11.36-7.09-11.43,3.46,4.93,7.48,11.18S372.72,184.61,372.61,184.68Z" style="fill:#fafafa"></path><path d="M383.43,161.88a1.72,1.72,0,0,1-.63,0,5.71,5.71,0,0,1-1.69-.38,6.59,6.59,0,0,1-3.39-9.58,5.66,5.66,0,0,1,1.07-1.36c.3-.27.5-.39.52-.37a13.52,13.52,0,0,0-1.3,1.89,6.53,6.53,0,0,0,3.23,9.12A15.33,15.33,0,0,0,383.43,161.88Z" style="fill:#fafafa"></path><path d="M393.11,114.2a65.5,65.5,0,0,1,.49-8.13,63.81,63.81,0,0,1,1-8.08,65.34,65.34,0,0,1-.49,8.13A65.73,65.73,0,0,1,393.11,114.2Z" style="fill:#263238"></path><path d="M418.77,96.14c.11.09-4.79,5.53-10.94,12.14s-11.22,11.89-11.33,11.79,4.8-5.53,10.95-12.14S418.67,96,418.77,96.14Z" style="fill:#263238"></path><path d="M423.68,122.73a75.37,75.37,0,0,1-9-.39,74.4,74.4,0,0,1-8.92-.92,79.55,79.55,0,0,1,9,.4A78.76,78.76,0,0,1,423.68,122.73Z" style="fill:#263238"></path></g></svg>